<?xml version="1.0" standalone="no"?><!DOCTYPE svg PUBLIC "-//W3C//DTD SVG 1.1//EN" "http://www.w3.org/Graphics/SVG/1.1/DTD/svg11.dtd"><svg xmlns:xlink="http://www.w3.org/1999/xlink" version="1.1" class="highcharts-root" style="font-family:'lucida grande', 'lucida sans unicode', arial, helvetica, sans-serif;font-size:12px;" xmlns="http://www.w3.org/2000/svg" width="600" viewBox="0 0 600 400" height="400"><desc>Created with Highstock 5.0.2</desc><defs><clipPath id="highcharts-86"><rect x="0" y="0" width="523" height="291" fill="none"></rect></clipPath></defs><rect fill="transparent" class="highcharts-background" x="0" y="0" width="600" height="400" rx="0" ry="0"></rect><rect fill="none" class="highcharts-plot-background" x="67" y="10" width="523" height="291"></rect><g class="highcharts-grid highcharts-xaxis-grid "><path fill="none" class="highcharts-grid-line" d="M 88.5 10 L 88.5 301" opacity="1"></path><path fill="none" class="highcharts-grid-line" d="M 131.5 10 L 131.5 301" opacity="1"></path><path fill="none" class="highcharts-grid-line" d="M 175.5 10 L 175.5 301" opacity="1"></path><path fill="none" class="highcharts-grid-line" d="M 219.5 10 L 219.5 301" opacity="1"></path><path fill="none" class="highcharts-grid-line" d="M 262.5 10 L 262.5 301" opacity="1"></path><path fill="none" class="highcharts-grid-line" d="M 306.5 10 L 306.5 301" opacity="1"></path><path fill="none" class="highcharts-grid-line" d="M 349.5 10 L 349.5 301" opacity="1"></path><path fill="none" class="highcharts-grid-line" d="M 393.5 10 L 393.5 301" opacity="1"></path><path fill="none" class="highcharts-grid-line" d="M 436.5 10 L 436.5 301" opacity="1"></path><path fill="none" class="highcharts-grid-line" d="M 480.5 10 L 480.5 301" opacity="1"></path><path fill="none" class="highcharts-grid-line" d="M 524.5 10 L 524.5 301" opacity="1"></path><path fill="none" class="highcharts-grid-line" d="M 567.5 10 L 567.5 301" opacity="1"></path></g><g class="highcharts-grid highcharts-yaxis-grid "><path fill="none" stroke="#e6e6e6" stroke-width="1" class="highcharts-grid-line" d="M 67 301.5 L 590 301.5" opacity="1"></path><path fill="none" stroke="#e6e6e6" stroke-width="1" class="highcharts-grid-line" d="M 67 253.5 L 590 253.5" opacity="1"></path><path fill="none" stroke="#e6e6e6" stroke-width="1" class="highcharts-grid-line" d="M 67 204.5 L 590 204.5" opacity="1"></path><path fill="none" stroke="#e6e6e6" stroke-width="1" class="highcharts-grid-line" d="M 67 156.5 L 590 156.5" opacity="1"></path><path fill="none" stroke="#e6e6e6" stroke-width="1" class="highcharts-grid-line" d="M 67 107.5 L 590 107.5" opacity="1"></path><path fill="none" stroke="#e6e6e6" stroke-width="1" class="highcharts-grid-line" d="M 67 59.5 L 590 59.5" opacity="1"></path><path fill="none" stroke="#e6e6e6" stroke-width="1" class="highcharts-grid-line" d="M 67 9.5 L 590 9.5" opacity="1"></path></g><rect fill="none" class="highcharts-plot-border" x="67" y="10" width="523" height="291"></rect><g class="highcharts-axis highcharts-xaxis "><path fill="none" class="highcharts-tick" stroke="#ccd6eb" stroke-width="1" d="M 88.5 301 L 88.5 311" opacity="1"></path><path fill="none" class="highcharts-tick" stroke="#ccd6eb" stroke-width="1" d="M 131.5 301 L 131.5 311" opacity="1"></path><path fill="none" class="highcharts-tick" stroke="#ccd6eb" stroke-width="1" d="M 175.5 301 L 175.5 311" opacity="1"></path><path fill="none" class="highcharts-tick" stroke="#ccd6eb" stroke-width="1" d="M 219.5 301 L 219.5 311" opacity="1"></path><path fill="none" class="highcharts-tick" stroke="#ccd6eb" stroke-width="1" d="M 262.5 301 L 262.5 311" opacity="1"></path><path fill="none" class="highcharts-tick" stroke="#ccd6eb" stroke-width="1" d="M 306.5 301 L 306.5 311" opacity="1"></path><path fill="none" class="highcharts-tick" stroke="#ccd6eb" stroke-width="1" d="M 349.5 301 L 349.5 311" opacity="1"></path><path fill="none" class="highcharts-tick" stroke="#ccd6eb" stroke-width="1" d="M 393.5 301 L 393.5 311" opacity="1"></path><path fill="none" class="highcharts-tick" stroke="#ccd6eb" stroke-width="1" d="M 436.5 301 L 436.5 311" opacity="1"></path><path fill="none" class="highcharts-tick" stroke="#ccd6eb" stroke-width="1" d="M 480.5 301 L 480.5 311" opacity="1"></path><path fill="none" class="highcharts-tick" stroke="#ccd6eb" stroke-width="1" d="M 524.5 301 L 524.5 311" opacity="1"></path><path fill="none" class="highcharts-tick" stroke="#ccd6eb" stroke-width="1" d="M 567.5 301 L 567.5 311" opacity="1"></path><path fill="none" class="highcharts-axis-line" stroke="#ccd6eb" stroke-width="1" d="M 67 301.5 L 590 301.5"></path></g><g class="highcharts-axis highcharts-yaxis "><path fill="none" class="highcharts-axis-line" d="M 67 10 L 67 301"></path></g><g class="highcharts-series-group"><g class="highcharts-series highcharts-series-0 highcharts-column-series highcharts-color-undefined " transform="translate(67,10) scale(1 1)" width="291" height="523" clip-path="url(#highcharts-86)"><rect x="3.5" y="-9.5" width="35" height="0" fill="#ddd7d7" class="highcharts-point" stroke="#ffffff" stroke-width="1"></rect><rect x="47.5" y="17.5" width="35" height="0" fill="#ddd7d7" class="highcharts-point" stroke="#ffffff" stroke-width="1"></rect><rect x="91.5" y="-10.5" width="35" height="0" fill="#ddd7d7" class="highcharts-point" stroke="#ffffff" stroke-width="1"></rect><rect x="134.5" y="0.5" width="35" height="0" fill="#ddd7d7" class="highcharts-point" stroke="#ffffff" stroke-width="1"></rect><rect x="178.5" y="-9.5" width="35" height="0" fill="#ddd7d7" class="highcharts-point" stroke="#ffffff" stroke-width="1"></rect><rect x="221.5" y="0.5" width="35" height="0" fill="#ddd7d7" class="highcharts-point" stroke="#ffffff" stroke-width="1"></rect><rect x="265.5" y="-10.5" width="35" height="0" fill="#ddd7d7" class="highcharts-point" stroke="#ffffff" stroke-width="1"></rect><rect x="308.5" y="-10.5" width="35" height="0" fill="#ddd7d7" class="highcharts-point" stroke="#ffffff" stroke-width="1"></rect><rect x="352.5" y="1.5" width="35" height="0" fill="#ddd7d7" class="highcharts-point" stroke="#ffffff" stroke-width="1"></rect><rect x="396.5" y="-9.5" width="35" height="0" fill="#ddd7d7" class="highcharts-point" stroke="#ffffff" stroke-width="1"></rect><rect x="439.5" y="0.5" width="35" height="0" fill="#ddd7d7" class="highcharts-point" stroke="#ffffff" stroke-width="1"></rect><rect x="483.5" y="-8.5" width="35" height="0" fill="#ddd7d7" class="highcharts-point" stroke="#ffffff" stroke-width="1"></rect></g><g class="highcharts-markers highcharts-series-0 highcharts-column-series highcharts-color-undefined " transform="translate(67,10) scale(1 1)" width="291" height="523" clip-path="none"></g><g class="highcharts-series highcharts-series-1 highcharts-column-series highcharts-color-undefined " transform="translate(67,10) scale(1 1)" width="291" height="523" clip-path="url(#highcharts-86)"><rect x="3.5" y="-9.5" width="35" height="0" fill="#a9fad3" class="highcharts-point" stroke="#ffffff" stroke-width="1"></rect><rect x="47.5" y="17.5" width="35" height="0" fill="#a9fad3" class="highcharts-point" stroke="#ffffff" stroke-width="1"></rect><rect x="91.5" y="-10.5" width="35" height="0" fill="#a9fad3" class="highcharts-point" stroke="#ffffff" stroke-width="1"></rect><rect x="134.5" y="0.5" width="35" height="0" fill="#a9fad3" class="highcharts-point" stroke="#ffffff" stroke-width="1"></rect><rect x="178.5" y="-9.5" width="35" height="0" fill="#a9fad3" class="highcharts-point" stroke="#ffffff" stroke-width="1"></rect><rect x="221.5" y="0.5" width="35" height="0" fill="#a9fad3" class="highcharts-point" stroke="#ffffff" stroke-width="1"></rect><rect x="265.5" y="-10.5" width="35" height="0" fill="#a9fad3" class="highcharts-point" stroke="#ffffff" stroke-width="1"></rect><rect x="308.5" y="-10.5" width="35" height="0" fill="#a9fad3" class="highcharts-point" stroke="#ffffff" stroke-width="1"></rect><rect x="352.5" y="1.5" width="35" height="0" fill="#a9fad3" class="highcharts-point" stroke="#ffffff" stroke-width="1"></rect><rect x="396.5" y="-9.5" width="35" height="7" fill="#a9fad3" class="highcharts-point" stroke="#ffffff" stroke-width="1"></rect><rect x="439.5" y="-0.5" width="35" height="2" fill="#a9fad3" class="highcharts-point" stroke="#ffffff" stroke-width="1"></rect><rect x="483.5" y="-8.5" width="35" height="0" fill="#a9fad3" class="highcharts-point" stroke="#ffffff" stroke-width="1"></rect></g><g class="highcharts-markers highcharts-series-1 highcharts-column-series highcharts-color-undefined " transform="translate(67,10) scale(1 1)" width="291" height="523" clip-path="none"></g><g class="highcharts-series highcharts-series-2 highcharts-column-series highcharts-color-undefined " transform="translate(67,10) scale(1 1)" width="291" height="523" clip-path="url(#highcharts-86)"><rect x="3.5" y="-9.5" width="35" height="8" fill="#88f79f" class="highcharts-point" stroke="#ffffff" stroke-width="1"></rect><rect x="47.5" y="17.5" width="35" height="9" fill="#88f79f" class="highcharts-point" stroke="#ffffff" stroke-width="1"></rect><rect x="91.5" y="-10.5" width="35" height="15" fill="#88f79f" class="highcharts-point" stroke="#ffffff" stroke-width="1"></rect><rect x="134.5" y="-0.5" width="35" height="18" fill="#88f79f" class="highcharts-point" stroke="#ffffff" stroke-width="1"></rect><rect x="178.5" y="-9.5" width="35" height="7" fill="#88f79f" class="highcharts-point" stroke="#ffffff" stroke-width="1"></rect><rect x="221.5" y="-0.5" width="35" height="2" fill="#88f79f" class="highcharts-point" stroke="#ffffff" stroke-width="1"></rect><rect x="265.5" y="-10.5" width="35" height="5" fill="#88f79f" class="highcharts-point" stroke="#ffffff" stroke-width="1"></rect><rect x="308.5" y="-10.5" width="35" height="6" fill="#88f79f" class="highcharts-point" stroke="#ffffff" stroke-width="1"></rect><rect x="352.5" y="1.5" width="35" height="38" fill="#88f79f" class="highcharts-point" stroke="#ffffff" stroke-width="1"></rect><rect x="396.5" y="-2.5" width="35" height="93" fill="#88f79f" class="highcharts-point" stroke="#ffffff" stroke-width="1"></rect><rect x="439.5" y="1.5" width="35" height="58" fill="#88f79f" class="highcharts-point" stroke="#ffffff" stroke-width="1"></rect><rect x="483.5" y="-8.5" width="35" height="13" fill="#88f79f" class="highcharts-point" stroke="#ffffff" stroke-width="1"></rect></g><g class="highcharts-markers highcharts-series-2 highcharts-column-series highcharts-color-undefined " transform="translate(67,10) scale(1 1)" width="291" height="523" clip-path="none"></g><g class="highcharts-series highcharts-series-3 highcharts-column-series highcharts-color-undefined " transform="translate(67,10) scale(1 1)" width="291" height="523" clip-path="url(#highcharts-86)"><rect x="3.5" y="-1.5" width="35" height="114" fill="#64de6a" class="highcharts-point" stroke="#ffffff" stroke-width="1"></rect><rect x="47.5" y="26.5" width="35" height="142" fill="#64de6a" class="highcharts-point" stroke="#ffffff" stroke-width="1"></rect><rect x="91.5" y="4.5" width="35" height="158" fill="#64de6a" class="highcharts-point" stroke="#ffffff" stroke-width="1"></rect><rect x="134.5" y="17.5" width="35" height="124" fill="#64de6a" class="highcharts-point" stroke="#ffffff" stroke-width="1"></rect><rect x="178.5" y="-2.5" width="35" height="81" fill="#64de6a" class="highcharts-point" stroke="#ffffff" stroke-width="1"></rect><rect x="221.5" y="1.5" width="35" height="62" fill="#64de6a" class="highcharts-point" stroke="#ffffff" stroke-width="1"></rect><rect x="265.5" y="-5.5" width="35" height="77" fill="#64de6a" class="highcharts-point" stroke="#ffffff" stroke-width="1"></rect><rect x="308.5" y="-4.5" width="35" height="113" fill="#64de6a" class="highcharts-point" stroke="#ffffff" stroke-width="1"></rect><rect x="352.5" y="39.5" width="35" height="174" fill="#64de6a" class="highcharts-point" stroke="#ffffff" stroke-width="1"></rect><rect x="396.5" y="90.5" width="35" height="160" fill="#64de6a" class="highcharts-point" stroke="#ffffff" stroke-width="1"></rect><rect x="439.5" y="59.5" width="35" height="138" fill="#64de6a" class="highcharts-point" stroke="#ffffff" stroke-width="1"></rect><rect x="483.5" y="4.5" width="35" height="124" fill="#64de6a" class="highcharts-point" stroke="#ffffff" stroke-width="1"></rect></g><g class="highcharts-markers highcharts-series-3 highcharts-column-series highcharts-color-undefined " transform="translate(67,10) scale(1 1)" width="291" height="523" clip-path="none"></g><g class="highcharts-series highcharts-series-4 highcharts-column-series highcharts-color-undefined " transform="translate(67,10) scale(1 1)" width="291" height="523" clip-path="url(#highcharts-86)"><rect x="3.5" y="112.5" width="35" height="174" fill="#30bf1d" class="highcharts-point" stroke="#ffffff" stroke-width="1"></rect><rect x="47.5" y="168.5" width="35" height="120" fill="#30bf1d" class="highcharts-point" stroke="#ffffff" stroke-width="1"></rect><rect x="91.5" y="162.5" width="35" height="128" fill="#30bf1d" class="highcharts-point" stroke="#ffffff" stroke-width="1"></rect><rect x="134.5" y="141.5" width="35" height="149" fill="#30bf1d" class="highcharts-point" stroke="#ffffff" stroke-width="1"></rect><rect x="178.5" y="78.5" width="35" height="197" fill="#30bf1d" class="highcharts-point" stroke="#ffffff" stroke-width="1"></rect><rect x="221.5" y="63.5" width="35" height="184" fill="#30bf1d" class="highcharts-point" stroke="#ffffff" stroke-width="1"></rect><rect x="265.5" y="71.5" width="35" height="160" fill="#30bf1d" class="highcharts-point" stroke="#ffffff" stroke-width="1"></rect><rect x="308.5" y="108.5" width="35" height="148" fill="#30bf1d" class="highcharts-point" stroke="#ffffff" stroke-width="1"></rect><rect x="352.5" y="213.5" width="35" height="75" fill="#30bf1d" class="highcharts-point" stroke="#ffffff" stroke-width="1"></rect><rect x="396.5" y="250.5" width="35" height="41" fill="#30bf1d" class="highcharts-point" stroke="#ffffff" stroke-width="1"></rect><rect x="439.5" y="197.5" width="35" height="91" fill="#30bf1d" class="highcharts-point" stroke="#ffffff" stroke-width="1"></rect><rect x="483.5" y="128.5" width="35" height="161" fill="#30bf1d" class="highcharts-point" stroke="#ffffff" stroke-width="1"></rect></g><g class="highcharts-markers highcharts-series-4 highcharts-column-series highcharts-color-undefined " transform="translate(67,10) scale(1 1)" width="291" height="523" clip-path="none"></g><g class="highcharts-series highcharts-series-5 highcharts-column-series highcharts-color-undefined " transform="translate(67,10) scale(1 1)" width="291" height="523" clip-path="url(#highcharts-86)"><rect x="3.5" y="286.5" width="35" height="5" fill="#0d955d" class="highcharts-point" stroke="#ffffff" stroke-width="1"></rect><rect x="47.5" y="288.5" width="35" height="3" fill="#0d955d" class="highcharts-point" stroke="#ffffff" stroke-width="1"></rect><rect x="91.5" y="290.5" width="35" height="1" fill="#0d955d" class="highcharts-point" stroke="#ffffff" stroke-width="1"></rect><rect x="134.5" y="290.5" width="35" height="1" fill="#0d955d" class="highcharts-point" stroke="#ffffff" stroke-width="1"></rect><rect x="178.5" y="275.5" width="35" height="15" fill="#0d955d" class="highcharts-point" stroke="#ffffff" stroke-width="1"></rect><rect x="221.5" y="247.5" width="35" height="44" fill="#0d955d" class="highcharts-point" stroke="#ffffff" stroke-width="1"></rect><rect x="265.5" y="231.5" width="35" height="58" fill="#0d955d" class="highcharts-point" stroke="#ffffff" stroke-width="1"></rect><rect x="308.5" y="256.5" width="35" height="34" fill="#0d955d" class="highcharts-point" stroke="#ffffff" stroke-width="1"></rect><rect x="352.5" y="288.5" width="35" height="3" fill="#0d955d" class="highcharts-point" stroke="#ffffff" stroke-width="1"></rect><rect x="396.5" y="291.5" width="35" height="0" fill="#0d955d" class="highcharts-point" stroke="#ffffff" stroke-width="1"></rect><rect x="439.5" y="288.5" width="35" height="3" fill="#0d955d" class="highcharts-point" stroke="#ffffff" stroke-width="1"></rect><rect x="483.5" y="289.5" width="35" height="2" fill="#0d955d" class="highcharts-point" stroke="#ffffff" stroke-width="1"></rect></g><g class="highcharts-markers highcharts-series-5 highcharts-column-series highcharts-color-undefined " transform="translate(67,10) scale(1 1)" width="291" height="523" clip-path="none"></g><g class="highcharts-series highcharts-series-6 highcharts-column-series highcharts-color-undefined " transform="translate(67,10) scale(1 1)" width="291" height="523" clip-path="url(#highcharts-86)"><rect x="3.5" y="291.5" width="35" height="0" fill="#89b307" class="highcharts-point" stroke="#ffffff" stroke-width="1"></rect><rect x="47.5" y="291.5" width="35" height="0" fill="#89b307" class="highcharts-point" stroke="#ffffff" stroke-width="1"></rect><rect x="91.5" y="291.5" width="35" height="0" fill="#89b307" class="highcharts-point" stroke="#ffffff" stroke-width="1"></rect><rect x="134.5" y="291.5" width="35" height="0" fill="#89b307" class="highcharts-point" stroke="#ffffff" stroke-width="1"></rect><rect x="178.5" y="290.5" width="35" height="1" fill="#89b307" class="highcharts-point" stroke="#ffffff" stroke-width="1"></rect><rect x="221.5" y="291.5" width="35" height="0" fill="#89b307" class="highcharts-point" stroke="#ffffff" stroke-width="1"></rect><rect x="265.5" y="289.5" width="35" height="2" fill="#89b307" class="highcharts-point" stroke="#ffffff" stroke-width="1"></rect><rect x="308.5" y="290.5" width="35" height="1" fill="#89b307" class="highcharts-point" stroke="#ffffff" stroke-width="1"></rect><rect x="352.5" y="291.5" width="35" height="0" fill="#89b307" class="highcharts-point" stroke="#ffffff" stroke-width="1"></rect><rect x="396.5" y="291.5" width="35" height="0" fill="#89b307" class="highcharts-point" stroke="#ffffff" stroke-width="1"></rect><rect x="439.5" y="291.5" width="35" height="0" fill="#89b307" class="highcharts-point" stroke="#ffffff" stroke-width="1"></rect><rect x="483.5" y="291.5" width="35" height="0" fill="#89b307" class="highcharts-point" stroke="#ffffff" stroke-width="1"></rect></g><g class="highcharts-markers highcharts-series-6 highcharts-column-series highcharts-color-undefined " transform="translate(67,10) scale(1 1)" width="291" height="523" clip-path="none"></g><g class="highcharts-series highcharts-series-7 highcharts-column-series highcharts-color-undefined " transform="translate(67,10) scale(1 1)" width="291" height="523" clip-path="url(#highcharts-86)"><rect x="3.5" y="291.5" width="35" height="0" fill="#e6e416" class="highcharts-point" stroke="#ffffff" stroke-width="1"></rect><rect x="47.5" y="291.5" width="35" height="0" fill="#e6e416" class="highcharts-point" stroke="#ffffff" stroke-width="1"></rect><rect x="91.5" y="291.5" width="35" height="0" fill="#e6e416" class="highcharts-point" stroke="#ffffff" stroke-width="1"></rect><rect x="134.5" y="291.5" width="35" height="0" fill="#e6e416" class="highcharts-point" stroke="#ffffff" stroke-width="1"></rect><rect x="178.5" y="291.5" width="35" height="0" fill="#e6e416" class="highcharts-point" stroke="#ffffff" stroke-width="1"></rect><rect x="221.5" y="291.5" width="35" height="0" fill="#e6e416" class="highcharts-point" stroke="#ffffff" stroke-width="1"></rect><rect x="265.5" y="291.5" width="35" height="0" fill="#e6e416" class="highcharts-point" stroke="#ffffff" stroke-width="1"></rect><rect x="308.5" y="291.5" width="35" height="0" fill="#e6e416" class="highcharts-point" stroke="#ffffff" stroke-width="1"></rect><rect x="352.5" y="291.5" width="35" height="0" fill="#e6e416" class="highcharts-point" stroke="#ffffff" stroke-width="1"></rect><rect x="396.5" y="291.5" width="35" height="0" fill="#e6e416" class="highcharts-point" stroke="#ffffff" stroke-width="1"></rect><rect x="439.5" y="291.5" width="35" height="0" fill="#e6e416" class="highcharts-point" stroke="#ffffff" stroke-width="1"></rect><rect x="483.5" y="291.5" width="35" height="0" fill="#e6e416" class="highcharts-point" stroke="#ffffff" stroke-width="1"></rect></g><g class="highcharts-markers highcharts-series-7 highcharts-column-series highcharts-color-undefined " transform="translate(67,10) scale(1 1)" width="291" height="523" clip-path="none"></g><g class="highcharts-series highcharts-series-8 highcharts-column-series highcharts-color-undefined " transform="translate(67,10) scale(1 1)" width="291" height="523" clip-path="url(#highcharts-86)"><rect x="3.5" y="291.5" width="35" height="0" fill="#f29106" class="highcharts-point" stroke="#ffffff" stroke-width="1"></rect><rect x="47.5" y="291.5" width="35" height="0" fill="#f29106" class="highcharts-point" stroke="#ffffff" stroke-width="1"></rect><rect x="91.5" y="291.5" width="35" height="0" fill="#f29106" class="highcharts-point" stroke="#ffffff" stroke-width="1"></rect><rect x="134.5" y="291.5" width="35" height="0" fill="#f29106" class="highcharts-point" stroke="#ffffff" stroke-width="1"></rect><rect x="178.5" y="291.5" width="35" height="0" fill="#f29106" class="highcharts-point" stroke="#ffffff" stroke-width="1"></rect><rect x="221.5" y="291.5" width="35" height="0" fill="#f29106" class="highcharts-point" stroke="#ffffff" stroke-width="1"></rect><rect x="265.5" y="291.5" width="35" height="0" fill="#f29106" class="highcharts-point" stroke="#ffffff" stroke-width="1"></rect><rect x="308.5" y="291.5" width="35" height="0" fill="#f29106" class="highcharts-point" stroke="#ffffff" stroke-width="1"></rect><rect x="352.5" y="291.5" width="35" height="0" fill="#f29106" class="highcharts-point" stroke="#ffffff" stroke-width="1"></rect><rect x="396.5" y="291.5" width="35" height="0" fill="#f29106" class="highcharts-point" stroke="#ffffff" stroke-width="1"></rect><rect x="439.5" y="291.5" width="35" height="0" fill="#f29106" class="highcharts-point" stroke="#ffffff" stroke-width="1"></rect><rect x="483.5" y="291.5" width="35" height="0" fill="#f29106" class="highcharts-point" stroke="#ffffff" stroke-width="1"></rect></g><g class="highcharts-markers highcharts-series-8 highcharts-column-series highcharts-color-undefined " transform="translate(67,10) scale(1 1)" width="291" height="523" clip-path="none"></g></g><g class="highcharts-legend" transform="translate(52,338)"><rect fill="none" class="highcharts-legend-box" rx="0" ry="0" x="0" y="0" width="496" height="47" visibility="visible"></rect><g><g><g class="highcharts-legend-item highcharts-column-series highcharts-color-undefined highcharts-series-0" transform="translate(8,3)"><text x="21" style="color:#333333;font-size:12px;font-weight:bold;cursor:pointer;fill:#333333;" text-anchor="start" y="15"><tspan>0</tspan></text><rect x="2" y="4" width="12" height="12" fill="#ddd7d7" rx="6" ry="6" class="highcharts-point"></rect></g><g class="highcharts-legend-item highcharts-column-series highcharts-color-undefined highcharts-series-1" transform="translate(58,3)"><text x="21" y="15" style="color:#333333;font-size:12px;font-weight:bold;cursor:pointer;fill:#333333;" text-anchor="start"><tspan>&gt;1</tspan></text><rect x="2" y="4" width="12" height="12" fill="#a9fad3" rx="6" ry="6" class="highcharts-point"></rect></g><g class="highcharts-legend-item highcharts-column-series highcharts-color-undefined highcharts-series-2" transform="translate(116.59375,3)"><text x="21" y="15" style="color:#333333;font-size:12px;font-weight:bold;cursor:pointer;fill:#333333;" text-anchor="start"><tspan>&gt;5</tspan></text><rect x="2" y="4" width="12" height="12" fill="#88f79f" rx="6" ry="6" class="highcharts-point"></rect></g><g class="highcharts-legend-item highcharts-column-series highcharts-color-undefined highcharts-series-3" transform="translate(175.1875,3)"><text x="21" y="15" style="color:#333333;font-size:12px;font-weight:bold;cursor:pointer;fill:#333333;" text-anchor="start"><tspan>&gt;12</tspan></text><rect x="2" y="4" width="12" height="12" fill="#64de6a" rx="6" ry="6" class="highcharts-point"></rect></g><g class="highcharts-legend-item highcharts-column-series highcharts-color-undefined highcharts-series-4" transform="translate(241.78125,3)"><text x="21" y="15" style="color:#333333;font-size:12px;font-weight:bold;cursor:pointer;fill:#333333;" text-anchor="start"><tspan>&gt;19</tspan></text><rect x="2" y="4" width="12" height="12" fill="#30bf1d" rx="6" ry="6" class="highcharts-point"></rect></g><g class="highcharts-legend-item highcharts-column-series highcharts-color-undefined highcharts-series-5" transform="translate(308.375,3)"><text x="21" y="15" style="color:#333333;font-size:12px;font-weight:bold;cursor:pointer;fill:#333333;" text-anchor="start"><tspan>&gt;28</tspan></text><rect x="2" y="4" width="12" height="12" fill="#0d955d" rx="6" ry="6" class="highcharts-point"></rect></g><g class="highcharts-legend-item highcharts-column-series highcharts-color-undefined highcharts-series-6" transform="translate(374.96875,3)"><text x="21" y="15" style="color:#333333;font-size:12px;font-weight:bold;cursor:pointer;fill:#333333;" text-anchor="start"><tspan>&gt;38</tspan></text><rect x="2" y="4" width="12" height="12" fill="#89b307" rx="6" ry="6" class="highcharts-point"></rect></g><g class="highcharts-legend-item highcharts-column-series highcharts-color-undefined highcharts-series-7" transform="translate(441.5625,3)"><text x="21" y="15" style="color:#333333;font-size:12px;font-weight:bold;cursor:pointer;fill:#333333;" text-anchor="start"><tspan>&gt;50</tspan></text><rect x="2" y="4" width="12" height="12" fill="#e6e416" rx="6" ry="6" class="highcharts-point"></rect></g><g class="highcharts-legend-item highcharts-column-series highcharts-color-undefined highcharts-series-8" transform="translate(8,21)"><text x="21" y="15" style="color:#333333;font-size:12px;font-weight:bold;cursor:pointer;fill:#333333;" text-anchor="start"><tspan>&gt;61 km/h</tspan></text><rect x="2" y="4" width="12" height="12" fill="#f29106" rx="6" ry="6" class="highcharts-point"></rect></g></g></g></g><g class="highcharts-axis-labels highcharts-xaxis-labels "><text x="88.79166666666667" style="color:#666666;cursor:default;font-size:11px;fill:#666666;" text-anchor="middle" transform="translate(0,0)" y="320" opacity="1">Jan</text><text x="132.375" style="color:#666666;cursor:default;font-size:11px;fill:#666666;" text-anchor="middle" transform="translate(0,0)" y="320" opacity="1">Feb</text><text x="175.95833333333334" style="color:#666666;cursor:default;font-size:11px;fill:#666666;" text-anchor="middle" transform="translate(0,0)" y="320" opacity="1">Mar</text><text x="219.54166666666666" style="color:#666666;cursor:default;font-size:11px;fill:#666666;" text-anchor="middle" transform="translate(0,0)" y="320" opacity="1">Apr</text><text x="263.125" style="color:#666666;cursor:default;font-size:11px;fill:#666666;" text-anchor="middle" transform="translate(0,0)" y="320" opacity="1">May</text><text x="306.70833333333337" style="color:#666666;cursor:default;font-size:11px;fill:#666666;" text-anchor="middle" transform="translate(0,0)" y="320" opacity="1">Jun</text><text x="350.2916666666667" style="color:#666666;cursor:default;font-size:11px;fill:#666666;" text-anchor="middle" transform="translate(0,0)" y="320" opacity="1">Jul</text><text x="393.87500000000006" style="color:#666666;cursor:default;font-size:11px;fill:#666666;" text-anchor="middle" transform="translate(0,0)" y="320" opacity="1">Aug</text><text x="437.45833333333337" style="color:#666666;cursor:default;font-size:11px;fill:#666666;" text-anchor="middle" transform="translate(0,0)" y="320" opacity="1">Sep</text><text x="481.0416666666667" style="color:#666666;cursor:default;font-size:11px;fill:#666666;" text-anchor="middle" transform="translate(0,0)" y="320" opacity="1">Oct</text><text x="524.625" style="color:#666666;cursor:default;font-size:11px;fill:#666666;" text-anchor="middle" transform="translate(0,0)" y="320" opacity="1">Nov</text><text x="568.2083333333334" style="color:#666666;cursor:default;font-size:11px;fill:#666666;" text-anchor="middle" transform="translate(0,0)" y="320" opacity="1">Dec</text></g><g class="highcharts-axis-labels highcharts-yaxis-labels "><text x="52" style="color:#666666;cursor:default;font-size:11px;fill:#666666;width:188px;text-overflow:clip;" text-anchor="end" transform="translate(0,0)" y="304" opacity="1"><tspan>0 days</tspan></text><text x="52" style="color:#666666;cursor:default;font-size:11px;fill:#666666;width:188px;text-overflow:clip;" text-anchor="end" transform="translate(0,0)" y="255" opacity="1"><tspan>5 days</tspan></text><text x="52" style="color:#666666;cursor:default;font-size:11px;fill:#666666;width:188px;text-overflow:clip;" text-anchor="end" transform="translate(0,0)" y="207" opacity="1"><tspan>10 days</tspan></text><text x="52" style="color:#666666;cursor:default;font-size:11px;fill:#666666;width:188px;text-overflow:clip;" text-anchor="end" transform="translate(0,0)" y="158" opacity="1"><tspan>15 days</tspan></text><text x="52" style="color:#666666;cursor:default;font-size:11px;fill:#666666;width:188px;text-overflow:clip;" text-anchor="end" transform="translate(0,0)" y="110" opacity="1"><tspan>20 days</tspan></text><text x="52" style="color:#666666;cursor:default;font-size:11px;fill:#666666;width:188px;text-overflow:clip;" text-anchor="end" transform="translate(0,0)" y="61" opacity="1"><tspan>25 days</tspan></text><text x="52" style="color:#666666;cursor:default;font-size:11px;fill:#666666;width:188px;text-overflow:clip;" text-anchor="end" transform="translate(0,0)" y="13" opacity="1"><tspan>30 days</tspan></text></g><text x="560" class="highcharts-credits" text-anchor="end" style="cursor:pointer;color:#999999;font-size:9px;font:12px meteoblue, sans-serif;fill:#999999;" y="390">meteoblue</text></svg>