<?xml version="1.0" standalone="no"?><!DOCTYPE svg PUBLIC "-//W3C//DTD SVG 1.1//EN" "http://www.w3.org/Graphics/SVG/1.1/DTD/svg11.dtd"><svg xmlns:xlink="http://www.w3.org/1999/xlink" version="1.1" class="highcharts-root" style="font-family:'lucida grande', 'lucida sans unicode', arial, helvetica, sans-serif;font-size:12px;" xmlns="http://www.w3.org/2000/svg" width="600" viewBox="0 0 600 700" height="700"><desc>Created with Highstock 5.0.2</desc><defs><clipPath id="highcharts-97"><rect x="0" y="0" width="580" height="616" fill="none"></rect></clipPath></defs><rect fill="transparent" class="highcharts-background" x="0" y="0" width="600" height="700" rx="0" ry="0"></rect><rect fill="none" class="highcharts-plot-background" x="10" y="10" width="580" height="616"></rect><g class="highcharts-grid highcharts-xaxis-grid "><path fill="none" stroke="#e6e6e6" stroke-width="1" class="highcharts-grid-line" d="M 300 318 L 300 71.5" opacity="1"></path><path fill="none" stroke="#e6e6e6" stroke-width="1" class="highcharts-grid-line" d="M 300 318 L 394.33146607799466 90.26369523596782" opacity="1"></path><path fill="none" stroke="#e6e6e6" stroke-width="1" class="highcharts-grid-line" d="M 300 318 L 474.30182156248395 143.69817843751605" opacity="1"></path><path fill="none" stroke="#e6e6e6" stroke-width="1" class="highcharts-grid-line" d="M 300 318 L 527.7363047640322 223.66853392200537" opacity="1"></path><path fill="none" stroke="#e6e6e6" stroke-width="1" class="highcharts-grid-line" d="M 300 318 L 546.5 318" opacity="1"></path><path fill="none" stroke="#e6e6e6" stroke-width="1" class="highcharts-grid-line" d="M 300 318 L 527.7363047640322 412.3314660779946" opacity="1"></path><path fill="none" stroke="#e6e6e6" stroke-width="1" class="highcharts-grid-line" d="M 300 318 L 474.30182156248395 492.30182156248395" opacity="1"></path><path fill="none" stroke="#e6e6e6" stroke-width="1" class="highcharts-grid-line" d="M 300 318 L 394.33146607799466 545.7363047640322" opacity="1"></path><path fill="none" stroke="#e6e6e6" stroke-width="1" class="highcharts-grid-line" d="M 300 318 L 300 564.5" opacity="1"></path><path fill="none" stroke="#e6e6e6" stroke-width="1" class="highcharts-grid-line" d="M 300 318 L 205.6685339220054 545.7363047640322" opacity="1"></path><path fill="none" stroke="#e6e6e6" stroke-width="1" class="highcharts-grid-line" d="M 300 318 L 125.69817843751605 492.30182156248395" opacity="1"></path><path fill="none" stroke="#e6e6e6" stroke-width="1" class="highcharts-grid-line" d="M 300 318 L 72.26369523596787 412.3314660779947" opacity="1"></path><path fill="none" stroke="#e6e6e6" stroke-width="1" class="highcharts-grid-line" d="M 300 318 L 53.5 318.00000000000006" opacity="1"></path><path fill="none" stroke="#e6e6e6" stroke-width="1" class="highcharts-grid-line" d="M 300 318 L 72.26369523596784 223.66853392200528" opacity="1"></path><path fill="none" stroke="#e6e6e6" stroke-width="1" class="highcharts-grid-line" d="M 300 318 L 125.69817843751599 143.69817843751605" opacity="1"></path><path fill="none" stroke="#e6e6e6" stroke-width="1" class="highcharts-grid-line" d="M 300 318 L 205.66853392200522 90.26369523596787" opacity="1"></path><path fill="none" stroke="#e6e6e6" stroke-width="1" class="highcharts-grid-line" d="M 300 318 L 299.99999999999994 71.5" opacity="1"></path></g><g class="highcharts-grid highcharts-yaxis-grid "><path fill="none" stroke="#e6e6e6" stroke-width="1" class="highcharts-grid-line"></path><path fill="none" stroke="#e6e6e6" stroke-width="1" class="highcharts-grid-line" d="M 300 233.4924748877233 A 84.50752511227672 84.50752511227672 0 1 1 299.9154924889723 233.49251714148232 M 300 318 A 0 0 0 1 0 300 318 " opacity="1"></path><path fill="none" stroke="#e6e6e6" stroke-width="1" class="highcharts-grid-line" d="M 300 148.98494977544655 A 169.01505022455345 169.01505022455345 0 1 1 299.8309849779445 148.98503428296462 M 300 318 A 0 0 0 1 0 300 318 " opacity="1"></path></g><rect fill="none" class="highcharts-plot-border" x="10" y="10" width="580" height="616"></rect><g class="highcharts-axis highcharts-xaxis "><path fill="none" class="highcharts-axis-line" stroke="#ccd6eb" stroke-width="1" d="M 300 71.5 A 246.5 246.5 0 1 1 299.7535000410832 71.50012324998974 M 300 318 A 0 0 0 1 0 300 318 "></path></g><g class="highcharts-axis highcharts-yaxis "><path fill="none" class="highcharts-axis-line" d="M 300 318 L 300 71.5"></path></g><g class="highcharts-series-group"><g class="highcharts-series highcharts-series-0 highcharts-column-series highcharts-color-undefined highcharts-dense-data" transform="translate(10,10) scale(1 1)" width="246.5" height="1548.805178219768" clip-path="url(#highcharts-97)"><path fill="#ddd7d7" d="M 289.8942408841375 307.33226322203245 A 0.6760602008982062 0.6760602008982062 0 0 1 290.10509132631626 307.33215779680256 L 290 308 A 0 0 0 0 0 290 308 Z" class="highcharts-point"></path><path fill="#ddd7d7" d="M 290.1578231195872 307.34261939626856 A 0.6760602008982062 0.6760602008982062 0 0 1 290.3526638720259 307.42321096698515 L 290 308 A 0 0 0 0 0 290 308 Z" class="highcharts-point"></path><path fill="#ddd7d7" d="M 290.09934455393744 307.8632639520632 A 0.16901505022454444 0.16901505022454444 0 0 1 290.1366366350314 307.90051875970966 L 290 308 A 0 0 0 0 0 290 308 Z" class="highcharts-point"></path><path fill="#ddd7d7" d="M 290.7205451010089 307.5584493942114 A 0.845075251122779 0.845075251122779 0 0 1 290.82152806493485 307.8018994735378 L 290 308 A 0 0 0 0 0 290 308 Z" class="highcharts-point"></path><path fill="#ddd7d7" d="M 0 0" class="highcharts-point"></path><path fill="#ddd7d7" d="M 290.65738060373144 308.1578231195872 A 0.6760602008982062 0.6760602008982062 0 0 1 290.57678903301485 308.3526638720259 L 290 308 A 0 0 0 0 0 290 308 Z" class="highcharts-point"></path><path fill="#ddd7d7" d="M 290.1367360479368 308.09934455393744 A 0.16901505022454444 0.16901505022454444 0 0 1 290.09948124029034 308.1366366350314 L 290 308 A 0 0 0 0 0 290 308 Z" class="highcharts-point"></path><path fill="#ddd7d7" d="M 0 0" class="highcharts-point"></path><path fill="#ddd7d7" d="M 290.26439778965624 309.6693419449189 A 1.6901505022455297 1.6901505022455297 0 0 1 289.7372716842093 309.6696055079936 L 290 308 A 0 0 0 0 0 290 308 Z" class="highcharts-point"></path><path fill="#ddd7d7" d="M 289.9605442201032 308.16434515093283 A 0.16901505022454444 0.16901505022454444 0 0 1 289.9118340319935 308.1441972582537 L 290 308 A 0 0 0 0 0 290 308 Z" class="highcharts-point"></path><path fill="#ddd7d7" d="M 289.7019663381876 308.4102081438104 A 0.5070451506736617 0.5070451506736617 0 0 1 289.5900900949058 308.29844372087103 L 290 308 A 0 0 0 0 0 290 308 Z" class="highcharts-point"></path><path fill="#ddd7d7" d="M 0 0" class="highcharts-point"></path><path fill="#ddd7d7" d="M 289.49919741652434 308.07931933689684 A 0.5070451506736617 0.5070451506736617 0 0 1 289.4991183476019 307.9211815052628 L 290 308 A 0 0 0 0 0 290 308 Z" class="highcharts-point"></path><path fill="#ddd7d7" d="M 289.83565484906717 307.9605442201032 A 0.16901505022454444 0.16901505022454444 0 0 1 289.8558027417463 307.9118340319935 L 290 308 A 0 0 0 0 0 290 308 Z" class="highcharts-point"></path><path fill="#ddd7d7" d="M 289.5897918561896 307.7019663381876 A 0.5070451506736617 0.5070451506736617 0 0 1 289.70155627912897 307.5900900949058 L 290 308 A 0 0 0 0 0 290 308 Z" class="highcharts-point"></path><path fill="#ddd7d7" d="M 0 0" class="highcharts-point"></path></g><g class="highcharts-markers highcharts-series-0 highcharts-column-series highcharts-color-undefined " transform="translate(10,10) scale(1 1)" width="246.5" height="1548.805178219768" clip-path="none"></g><g class="highcharts-series highcharts-series-1 highcharts-column-series highcharts-color-undefined highcharts-dense-data" transform="translate(10,10) scale(1 1)" width="246.5" height="1548.805178219768" clip-path="url(#highcharts-97)"><path fill="#a9fad3" d="M 286.98586519791866 288.9695018279242 A 19.26771572559909 19.26771572559909 0 0 1 292.99510280001374 288.96649720887274 L 290.10509132631626 307.33215779680256 A 0.6760602008982062 0.6760602008982062 0 0 0 289.8942408841375 307.33226322203245 Z" class="highcharts-point"></path><path fill="#a9fad3" d="M 293.5904759706083 293.0445912651099 A 15.380369570434368 15.380369570434368 0 0 1 298.0231030885899 294.878049498912 L 290.3526638720259 307.42321096698515 A 0.6760602008982062 0.6760602008982062 0 0 0 290.1578231195872 307.34261939626856 Z" class="highcharts-point"></path><path fill="#a9fad3" d="M 296.25870689806027 299.3856289799817 A 10.647948164146868 10.647948164146868 0 0 1 298.6081080069782 301.73268186170867 L 290.1366366350314 307.90051875970966 A 0.16901505022454444 0.16901505022454444 0 0 0 290.09934455393744 307.8632639520632 Z" class="highcharts-point"></path><path fill="#a9fad3" d="M 302.9698118181603 300.0520890958053 A 15.211354520209824 15.211354520209824 0 0 1 304.7875051688273 304.43419052368 L 290.82152806493485 307.8018994735378 A 0.845075251122779 0.845075251122779 0 0 0 290.7205451010089 307.5584493942114 Z" class="highcharts-point"></path><path fill="#a9fad3" d="M 299.348314891546 306.519372377925 A 9.464842812575 9.464842812575 0 0 1 299.34979084476424 309.4712785684278 L 290 308 A 0 0 0 0 0 290 308 Z" class="highcharts-point"></path><path fill="#a9fad3" d="M 303.3119572255616 311.19591817164013 A 13.690219068188838 13.690219068188838 0 0 1 301.67997791855095 315.1414434085249 L 290.57678903301485 308.3526638720259 A 0.6760602008982062 0.6760602008982062 0 0 0 290.65738060373144 308.1578231195872 Z" class="highcharts-point"></path><path fill="#a9fad3" d="M 301.0756198828811 316.0469088689341 A 13.690219068188838 13.690219068188838 0 0 1 298.05798046351794 319.0675674375431 L 290.09948124029034 308.1366366350314 A 0.16901505022454444 0.16901505022454444 0 0 0 290.1367360479368 308.09934455393744 Z" class="highcharts-point"></path><path fill="#a9fad3" d="M 296.4466388445135 318.51995847473 A 12.338098666392398 12.338098666392398 0 0 1 292.89226768634836 319.9943097480488 L 290 308 A 0 0 0 0 0 290 308 Z" class="highcharts-point"></path><path fill="#a9fad3" d="M 293.01413480208123 327.03049817207585 A 19.26771572559909 19.26771572559909 0 0 1 287.00489719998615 327.0335027911272 L 289.7372716842093 309.6696055079936 A 1.6901505022455297 1.6901505022455297 0 0 0 290.26439778965624 309.6693419449189 Z" class="highcharts-point"></path><path fill="#a9fad3" d="M 287.35646274691493 319.01112511250153 A 11.324008365045074 11.324008365045074 0 0 1 284.0928801435658 317.6612163029989 L 289.9118340319935 308.1441972582537 A 0.16901505022454444 0.16901505022454444 0 0 0 289.9605442201032 308.16434515093283 Z" class="highcharts-point"></path><path fill="#a9fad3" d="M 283.14522577831536 317.4347873076394 A 11.662038465494192 11.662038465494192 0 0 1 280.5720721828336 314.86420558003374 L 289.5900900949058 308.29844372087103 A 0.5070451506736617 0.5070451506736617 0 0 0 289.7019663381876 308.4102081438104 Z" class="highcharts-point"></path><path fill="#a9fad3" d="M 285.2444023333412 310.9142339982047 A 5.577496657410251 5.577496657410251 0 0 1 284.57791477143 309.3074634746506 L 290 308 A 0 0 0 0 0 290 308 Z" class="highcharts-point"></path><path fill="#a9fad3" d="M 282.3210270533729 309.2162298324187 A 7.7746923103294705 7.7746923103294705 0 0 1 282.31981466322935 306.7914497473628 L 289.4991183476019 307.9211815052628 A 0.5070451506736617 0.5070451506736617 0 0 0 289.49919741652434 308.07931933689684 Z" class="highcharts-point"></path><path fill="#a9fad3" d="M 285.7270260757457 306.97414972268336 A 4.394391305838383 4.394391305838383 0 0 1 286.25087128540343 305.7076848318315 L 289.8558027417463 307.9118340319935 A 0.16901505022454444 0.16901505022454444 0 0 0 289.83565484906717 307.9605442201032 Z" class="highcharts-point"></path><path fill="#a9fad3" d="M 283.4366696990335 303.231461411002 A 8.11272241077856 8.11272241077856 0 0 1 285.2249004660635 301.441441518493 L 289.70155627912897 307.5900900949058 A 0.5070451506736617 0.5070451506736617 0 0 0 289.5897918561896 307.7019663381876 Z" class="highcharts-point"></path><path fill="#a9fad3" d="M 285.23125345748326 300.2181129091038 A 9.126812712125883 9.126812712125883 0 0 1 287.8605143142081 299.1274968987036 L 290 308 A 0 0 0 0 0 290 308 Z" class="highcharts-point"></path></g><g class="highcharts-markers highcharts-series-1 highcharts-column-series highcharts-color-undefined " transform="translate(10,10) scale(1 1)" width="246.5" height="1548.805178219768" clip-path="none"></g><g class="highcharts-series highcharts-series-2 highcharts-column-series highcharts-color-undefined highcharts-dense-data" transform="translate(10,10) scale(1 1)" width="246.5" height="1548.805178219768" clip-path="url(#highcharts-97)"><path fill="#88f79f" d="M 275.0086453264902 213.34831172309663 A 95.83153347732181 95.83153347732181 0 0 1 304.8966955053315 213.33336769676188 L 292.99510280001374 288.96649720887274 A 19.26771572559909 19.26771572559909 0 0 0 286.98586519791866 288.9695018279242 Z" class="highcharts-point"></path><path fill="#88f79f" d="M 305.3088425999562 244.2340814380509 A 65.57783948712674 65.57783948712674 0 0 1 324.20839558651505 252.05146379755894 L 298.0231030885899 294.878049498912 A 15.380369570434368 15.380369570434368 0 0 0 293.5904759706083 293.0445912651099 Z" class="highcharts-point"></path><path fill="#88f79f" d="M 320.1013998430517 266.56897747514995 A 51.21156021803969 51.21156021803969 0 0 1 331.40090041451447 277.85718419202743 L 298.6081080069782 301.73268186170867 A 10.647948164146868 10.647948164146868 0 0 0 296.25870689806027 299.3856289799817 Z" class="highcharts-point"></path><path fill="#88f79f" d="M 333.95325116154316 281.0654130468956 A 51.54959031848881 51.54959031848881 0 0 1 340.11321196102585 295.9158678858045 L 304.7875051688273 304.43419052368 A 15.211354520209824 15.211354520209824 0 0 0 302.9698118181603 300.0520890958053 Z" class="highcharts-point"></path><path fill="#88f79f" d="M 322.38523373142726 302.8706828806687 A 32.78891974356338 32.78891974356338 0 0 1 322.3903468550762 313.0969293263393 L 299.34979084476424 309.4712785684278 A 9.464842812575 9.464842812575 0 0 0 299.348314891546 306.519372377925 Z" class="highcharts-point"></path><path fill="#88f79f" d="M 325.66289775243047 316.56190423760376 A 36.676265898728104 36.676265898728104 0 0 1 321.2908050410563 327.1320150574061 L 301.67997791855095 315.1414434085249 A 13.690219068188838 13.690219068188838 0 0 0 303.3119572255616 311.19591817164013 Z" class="highcharts-point"></path><path fill="#88f79f" d="M 320.08193054609677 329.85580186624077 A 37.183311049401766 37.183311049401766 0 0 1 311.8858728638759 338.06005970690717 L 298.05798046351794 319.0675674375431 A 13.690219068188838 13.690219068188838 0 0 0 301.0756198828811 316.0469088689341 Z" class="highcharts-point"></path><path fill="#88f79f" d="M 316.22810598384245 350.80037899992897 A 50.19746991669237 50.19746991669237 0 0 1 301.7671712718558 356.79876705713014 L 292.89226768634836 319.9943097480488 A 12.338098666392398 12.338098666392398 0 0 0 296.4466388445135 318.51995847473 Z" class="highcharts-point"></path><path fill="#88f79f" d="M 301.3691049552186 379.7817036315141 A 72.67647159655797 72.67647159655797 0 0 1 278.7026824210003 379.7930368437255 L 287.00489719998615 327.0335027911272 A 19.26771572559909 19.26771572559909 0 0 0 293.01413480208123 327.03049817207585 Z" class="highcharts-point"></path><path fill="#88f79f" d="M 274.9673478593222 370.6155025054193 A 64.39473413555487 64.39473413555487 0 0 1 256.40876618953104 362.9391553946655 L 284.0928801435658 317.6612163029989 A 11.324008365045074 11.324008365045074 0 0 0 287.35646274691493 319.01112511250153 Z" class="highcharts-point"></path><path fill="#88f79f" d="M 242.01658044820755 374.0435111534759 A 81.63426925845931 81.63426925845931 0 0 1 224.00450527983543 356.04943906023635 L 280.5720721828336 314.86420558003374 A 11.662038465494192 11.662038465494192 0 0 0 283.14522577831536 317.4347873076394 Z" class="highcharts-point"></path><path fill="#88f79f" d="M 238.26486174756047 339.7033334956209 A 60.67640303061469 60.67640303061469 0 0 1 231.01428493767767 322.2236177999871 L 284.57791477143 309.3074634746506 A 5.577496657410251 5.577496657410251 0 0 0 285.2444023333412 310.9142339982047 Z" class="highcharts-point"></path><path fill="#88f79f" d="M 264.45906824274033 312.0452861817405 A 25.85930268435669 25.85930268435669 0 0 1 264.4550357276977 303.98025676840234 L 282.31981466322935 306.7914497473628 A 7.7746923103294705 7.7746923103294705 0 0 0 282.3210270533729 309.2162298324187 Z" class="highcharts-point"></path><path fill="#88f79f" d="M 281.1253618496256 305.8693878855732 A 9.126812712125883 9.126812712125883 0 0 1 282.2133480542994 303.23903772765004 L 286.25087128540343 305.7076848318315 A 4.394391305838383 4.394391305838383 0 0 0 285.7270260757457 306.97414972268336 Z" class="highcharts-point"></path><path fill="#88f79f" d="M 277.28354754187734 298.7609564838163 A 15.718399670883457 15.718399670883457 0 0 1 280.748244652998 295.2927929420801 L 285.2249004660635 301.441441518493 A 8.11272241077856 8.11272241077856 0 0 0 283.4366696990335 303.231461411002 Z" class="highcharts-point"></path><path fill="#88f79f" d="M 269.1588114067786 273.99027123237954 A 39.88755185299462 39.88755185299462 0 0 1 280.64965515098356 269.223875335075 L 287.8605143142081 299.1274968987036 A 9.126812712125883 9.126812712125883 0 0 0 285.23125345748326 300.2181129091038 Z" class="highcharts-point"></path></g><g class="highcharts-markers highcharts-series-2 highcharts-column-series highcharts-color-undefined " transform="translate(10,10) scale(1 1)" width="246.5" height="1548.805178219768" clip-path="none"></g><g class="highcharts-series highcharts-series-3 highcharts-column-series highcharts-color-undefined highcharts-dense-data" transform="translate(10,10) scale(1 1)" width="246.5" height="1548.805178219768" clip-path="url(#highcharts-97)"><path fill="#64de6a" d="M 270.5403226812994 185.1364328539667 A 124.39507696527134 124.39507696527134 0 0 1 309.336804042194 185.11703461166974 L 304.8966955053315 213.33336769676188 A 95.83153347732181 95.83153347732181 0 0 0 275.0086453264902 213.34831172309663 Z" class="highcharts-point"></path><path fill="#64de6a" d="M 315.0149644545676 203.8051743085677 A 107.15554184236689 107.15554184236689 0 0 1 345.89722371610964 216.5789382671453 L 324.20839558651505 252.05146379755894 A 65.57783948712674 65.57783948712674 0 0 0 305.3088425999562 244.2340814380509 Z" class="highcharts-point"></path><path fill="#64de6a" d="M 345.831639312855 231.15434105951906 A 94.98645822619903 94.98645822619903 0 0 1 366.7897888876473 252.09154295682973 L 331.40090041451447 277.85718419202743 A 51.21156021803969 51.21156021803969 0 0 0 320.1013998430517 266.56897747514995 Z" class="highcharts-point"></path><path fill="#64de6a" d="M 361.91040108068864 263.9332495422981 A 84.3385100620522 84.3385100620522 0 0 1 371.98850088049807 288.2295674590703 L 340.11321196102585 295.9158678858045 A 51.54959031848881 51.54959031848881 0 0 0 333.95325116154316 281.0654130468956 Z" class="highcharts-point"></path><path fill="#64de6a" d="M 343.2520080429139 299.5657105099656 A 53.91580102163255 53.91580102163255 0 0 1 343.2604157049964 316.38103327372284 L 322.3903468550762 313.0969293263393 A 32.78891974356338 32.78891974356338 0 0 0 322.38523373142726 302.8706828806687 Z" class="highcharts-point"></path><path fill="#64de6a" d="M 346.6990770718364 321.6122440643931 A 58.31019232747093 58.31019232747093 0 0 1 339.74805409753185 338.4172589622355 L 321.2908050410563 327.1320150574061 A 36.676265898728104 36.676265898728104 0 0 0 325.66289775243047 316.56190423760376 Z" class="highcharts-point"></path><path fill="#64de6a" d="M 335.1228958191451 340.78370279936115 A 55.77496657410265 55.77496657410265 0 0 1 322.8288092958138 353.09008956036075 L 311.8858728638759 338.06005970690717 A 37.183311049401766 37.183311049401766 0 0 0 320.08193054609677 329.85580186624077 Z" class="highcharts-point"></path><path fill="#64de6a" d="M 328.41490270360765 370.6874237877748 A 73.52154684768075 73.52154684768075 0 0 1 307.23474580221296 379.47294164933203 L 301.7671712718558 356.79876705713014 A 50.19746991669237 50.19746991669237 0 0 0 316.22810598384245 350.80037899992897 Z" class="highcharts-point"></path><path fill="#64de6a" d="M 305.20287290523413 403.98716183283864 A 97.18365387911825 97.18365387911825 0 0 1 274.89312184203527 404.0023167096329 L 278.7026824210003 379.7930368437255 A 72.67647159655797 72.67647159655797 0 0 0 301.3691049552186 379.7817036315141 Z" class="highcharts-point"></path><path fill="#64de6a" d="M 269.16734821449376 394.7742396925496 A 89.23994651856424 89.23994651856424 0 0 1 243.44836889257846 384.13615235796163 L 256.40876618953104 362.9391553946655 A 64.39473413555487 64.39473413555487 0 0 0 274.9673478593222 370.6155025054193 Z" class="highcharts-point"></path><path fill="#64de6a" d="M 207.94139844765928 420.9439755957994 A 139.60643148548115 139.60643148548115 0 0 1 177.1381394640664 390.17150447982453 L 224.00450527983543 356.04943906023635 A 81.63426925845931 81.63426925845931 0 0 0 242.01658044820755 374.0435111534759 Z" class="highcharts-point"></path><path fill="#64de6a" d="M 150.214250404272 393.66081752298675 A 163.94459871781686 163.94459871781686 0 0 1 130.62355540263883 346.4315021336698 L 231.01428493767767 322.2236177999871 A 60.67640303061469 60.67640303061469 0 0 0 238.26486174756047 339.7033334956209 Z" class="highcharts-point"></path><path fill="#64de6a" d="M 224.06099317570215 318.44371269142147 A 66.7609448386986 66.7609448386986 0 0 1 224.05058243425222 297.6222315262675 L 264.4550357276977 303.98025676840234 A 25.85930268435669 25.85930268435669 0 0 0 264.45906824274033 312.0452861817405 Z" class="highcharts-point"></path><path fill="#64de6a" d="M 278.98887488749847 305.3564627469149 A 11.324008365045074 11.324008365045074 0 0 1 280.33878369700113 302.0928801435658 L 282.2133480542994 303.23903772765004 A 9.126812712125883 9.126812712125883 0 0 0 281.1253618496256 305.8693878855732 Z" class="highcharts-point"></path><path fill="#64de6a" d="M 276.46313125425655 298.1648891601916 A 16.73248997223078 16.73248997223078 0 0 1 280.1513572112559 294.4729731318917 L 280.748244652998 295.2927929420801 A 15.718399670883457 15.718399670883457 0 0 0 277.28354754187734 298.7609564838163 Z" class="highcharts-point"></path><path fill="#64de6a" d="M 266.95105837783564 270.38754572733495 A 44.11292810860846 44.11292810860846 0 0 1 279.6591525186725 265.1162350104007 L 280.64965515098356 269.223875335075 A 39.88755185299462 39.88755185299462 0 0 0 269.1588114067786 273.99027123237954 Z" class="highcharts-point"></path></g><g class="highcharts-markers highcharts-series-3 highcharts-column-series highcharts-color-undefined " transform="translate(10,10) scale(1 1)" width="246.5" height="1548.805178219768" clip-path="none"></g><g class="highcharts-series highcharts-series-4 highcharts-column-series highcharts-color-undefined highcharts-dense-data" transform="translate(10,10) scale(1 1)" width="246.5" height="1548.805178219768" clip-path="url(#highcharts-97)"><path fill="#30bf1d" d="M 269.6678099754338 179.62760443573424 A 129.9725736226816 129.9725736226816 0 0 1 310.2038074843032 179.60733643529082 L 309.336804042194 185.11703461166974 A 124.39507696527134 124.39507696527134 0 0 0 270.5403226812994 185.1364328539667 Z" class="highcharts-point"></path><path fill="#30bf1d" d="M 320.10476006125407 182.60464983822897 A 128.95848332133428 128.95848332133428 0 0 1 357.2706335889458 197.9774919524162 L 345.89722371610964 216.5789382671453 A 107.15554184236689 107.15554184236689 0 0 0 315.0149644545676 203.8051743085677 Z" class="highcharts-point"></path><path fill="#30bf1d" d="M 359.73987686410004 212.01129434836722 A 118.64856525763653 118.64856525763653 0 0 1 385.91891779204343 238.16416931618232 L 366.7897888876473 252.09154295682973 A 94.98645822619903 94.98645822619903 0 0 0 345.831639312855 231.15434105951906 Z" class="highcharts-point"></path><path fill="#30bf1d" d="M 368.5394160099706 259.87098396904304 A 92.11320237238164 92.11320237238164 0 0 1 379.5465590778987 286.4070426156179 L 371.98850088049807 288.2295674590703 A 84.3385100620522 84.3385100620522 0 0 0 361.91040108068864 263.9332495422981 Z" class="highcharts-point"></path><path fill="#30bf1d" d="M 345.5890867658004 299.1955536044468 A 56.28201172477631 56.28201172477631 0 0 1 345.59786341618747 316.7488529158298 L 343.2604157049964 316.38103327372284 A 53.91580102163255 53.91580102163255 0 0 0 343.2520080429139 299.5657105099656 Z" class="highcharts-point"></path><path fill="#30bf1d" d="M 348.17818343023214 321.96734608346424 A 59.831327779491914 59.831327779491914 0 0 1 341.04582942181526 339.2107526742938 L 339.74805409753185 338.4172589622355 A 58.31019232747093 58.31019232747093 0 0 0 346.6990770718364 321.6122440643931 Z" class="highcharts-point"></path><path fill="#30bf1d" d="M 339.49844935312285 343.9627285253598 A 61.183448181288355 61.183448181288355 0 0 1 326.01220898510485 357.46246188136547 L 322.8288092958138 353.09008956036075 A 55.77496657410265 55.77496657410265 0 0 0 335.1228958191451 340.78370279936115 Z" class="highcharts-point"></path><path fill="#30bf1d" d="M 331.77068730760095 376.16356655544246 A 79.94411875621378 79.94411875621378 0 0 1 308.74030980332583 385.71655494283686 L 307.23474580221296 379.47294164933203 A 73.52154684768075 73.52154684768075 0 0 0 328.41490270360765 370.6874237877748 Z" class="highcharts-point"></path><path fill="#30bf1d" d="M 305.4408309159248 405.4895695832657 A 98.70478933113924 98.70478933113924 0 0 1 274.65666635782367 405.50496166682717 L 274.89312184203527 404.0023167096329 A 97.18365387911825 97.18365387911825 0 0 0 305.20287290523413 403.98716183283864 Z" class="highcharts-point"></path><path fill="#30bf1d" d="M 268.73333463562903 396.58203635281103 A 91.09911207103431 91.09911207103431 0 0 1 242.4785432445072 385.7223221987525 L 243.44836889257846 384.13615235796163 A 89.23994651856424 89.23994651856424 0 0 0 269.16734821449376 394.7742396925496 Z" class="highcharts-point"></path><path fill="#30bf1d" d="M 201.28531333384956 430.1052908075652 A 150.93043985052623 150.93043985052623 0 0 1 167.98348491696282 396.8367475792776 L 177.1381394640664 390.17150447982453 A 139.60643148548115 139.60643148548115 0 0 0 207.94139844765928 420.9439755957994 Z" class="highcharts-point"></path><path fill="#30bf1d" d="M 95.59693174779687 427.13035344176194 A 228.0013027529226 228.0013027529226 0 0 1 68.35172808057712 361.4475220395057 L 130.62355540263883 346.4315021336698 A 163.94459871781686 163.94459871781686 0 0 0 150.214250404272 393.66081752298675 Z" class="highcharts-point"></path><path fill="#30bf1d" d="M 193.34510138919376 323.3086320210963 A 97.85971408001646 97.85971408001646 0 0 1 193.32984108716968 292.7880305157187 L 224.05058243425222 297.6222315262675 A 66.7609448386986 66.7609448386986 0 0 0 224.06099317570215 318.44371269142147 Z" class="highcharts-point"></path><path fill="#30bf1d" d="M 278.49583943469986 305.23809540722453 A 11.831053515718736 11.831053515718736 0 0 1 279.90619192223994 301.82838223954633 L 280.33878369700113 302.0928801435658 A 11.324008365045074 11.324008365045074 0 0 0 278.98887488749847 305.3564627469149 Z" class="highcharts-point"></path><path fill="#30bf1d" d="M 276.46313125425655 298.1648891601916 A 16.73248997223078 16.73248997223078 0 0 1 280.1513572112559 294.4729731318917 L 280.1513572112559 294.4729731318917 A 16.73248997223078 16.73248997223078 0 0 0 276.46313125425655 298.1648891601916 Z" class="highcharts-point"></path><path fill="#30bf1d" d="M 266.6861280143625 269.9552186667296 A 44.61997325928212 44.61997325928212 0 0 1 279.5402922027952 264.6233181714398 L 279.6591525186725 265.1162350104007 A 44.11292810860846 44.11292810860846 0 0 0 266.95105837783564 270.38754572733495 Z" class="highcharts-point"></path></g><g class="highcharts-markers highcharts-series-4 highcharts-column-series highcharts-color-undefined " transform="translate(10,10) scale(1 1)" width="246.5" height="1548.805178219768" clip-path="none"></g><g class="highcharts-series highcharts-series-5 highcharts-column-series highcharts-color-undefined highcharts-dense-data" transform="translate(10,10) scale(1 1)" width="246.5" height="1548.805178219768" clip-path="url(#highcharts-97)"><path fill="#0d955d" d="M 269.6413701964682 179.46067024124235 A 130.14158867290615 130.14158867290615 0 0 1 310.2300803158823 179.44037588449146 L 310.2038074843032 179.60733643529082 A 129.9725736226816 129.9725736226816 0 0 0 269.6678099754338 179.62760443573424 Z" class="highcharts-point"></path><path fill="#0d955d" d="M 320.14421584115087 182.4403046872961 A 129.12749837155883 129.12749837155883 0 0 1 357.3587995569523 197.83329469416248 L 357.2706335889458 197.9774919524162 A 128.95848332133428 128.95848332133428 0 0 0 320.10476006125407 182.60464983822897 Z" class="highcharts-point"></path><path fill="#0d955d" d="M 360.0379105259124 211.6010862045568 A 119.1556104083102 119.1556104083102 0 0 1 386.3288276971376 237.86572559531132 L 385.91891779204343 238.16416931618232 A 118.64856525763653 118.64856525763653 0 0 0 359.73987686410004 212.01129434836722 Z" class="highcharts-point"></path><path fill="#0d955d" d="M 368.5394160099706 259.87098396904304 A 92.11320237238164 92.11320237238164 0 0 1 379.5465590778987 286.4070426156179 L 379.5465590778987 286.4070426156179 A 92.11320237238164 92.11320237238164 0 0 0 368.5394160099706 259.87098396904304 Z" class="highcharts-point"></path><path fill="#0d955d" d="M 345.5890867658004 299.1955536044468 A 56.28201172477631 56.28201172477631 0 0 1 345.59786341618747 316.7488529158298 L 345.59786341618747 316.7488529158298 A 56.28201172477631 56.28201172477631 0 0 0 345.5890867658004 299.1955536044468 Z" class="highcharts-point"></path><path fill="#0d955d" d="M 348.17818343023214 321.96734608346424 A 59.831327779491914 59.831327779491914 0 0 1 341.04582942181526 339.2107526742938 L 341.04582942181526 339.2107526742938 A 59.831327779491914 59.831327779491914 0 0 0 348.17818343023214 321.96734608346424 Z" class="highcharts-point"></path><path fill="#0d955d" d="M 339.49844935312285 343.9627285253598 A 61.183448181288355 61.183448181288355 0 0 1 326.01220898510485 357.46246188136547 L 326.01220898510485 357.46246188136547 A 61.183448181288355 61.183448181288355 0 0 0 339.49844935312285 343.9627285253598 Z" class="highcharts-point"></path><path fill="#0d955d" d="M 331.77068730760095 376.16356655544246 A 79.94411875621378 79.94411875621378 0 0 1 308.74030980332583 385.71655494283686 L 308.74030980332583 385.71655494283686 A 79.94411875621378 79.94411875621378 0 0 0 331.77068730760095 376.16356655544246 Z" class="highcharts-point"></path><path fill="#0d955d" d="M 305.4408309159248 405.4895695832657 A 98.70478933113924 98.70478933113924 0 0 1 274.65666635782367 405.50496166682717 L 274.65666635782367 405.50496166682717 A 98.70478933113924 98.70478933113924 0 0 0 305.4408309159248 405.4895695832657 Z" class="highcharts-point"></path><path fill="#0d955d" d="M 268.73333463562903 396.58203635281103 A 91.09911207103431 91.09911207103431 0 0 1 242.4785432445072 385.7223221987525 L 242.4785432445072 385.7223221987525 A 91.09911207103431 91.09911207103431 0 0 0 268.73333463562903 396.58203635281103 Z" class="highcharts-point"></path><path fill="#0d955d" d="M 201.28531333384956 430.1052908075652 A 150.93043985052623 150.93043985052623 0 0 1 167.98348491696282 396.8367475792776 L 167.98348491696282 396.8367475792776 A 150.93043985052623 150.93043985052623 0 0 0 201.28531333384956 430.1052908075652 Z" class="highcharts-point"></path><path fill="#0d955d" d="M 89.8325709397256 430.6627582880707 A 234.76190476190476 234.76190476190476 0 0 1 61.779503561098295 363.0323262512035 L 68.35172808057712 361.4475220395057 A 228.0013027529226 228.0013027529226 0 0 0 95.59693174779687 427.13035344176194 Z" class="highcharts-point"></path><path fill="#0d955d" d="M 186.667733609518 324.36622317972126 A 104.6203160889986 104.6203160889986 0 0 1 186.65141905519522 291.7371172525559 L 193.32984108716968 292.7880305157187 A 97.85971408001646 97.85971408001646 0 0 0 193.34510138919376 323.3086320210963 Z" class="highcharts-point"></path><path fill="#0d955d" d="M 278.33149428376703 305.19863962732774 A 12.000068565943309 12.000068565943309 0 0 1 279.76199466398623 301.74021627153985 L 279.90619192223994 301.82838223954633 A 11.831053515718736 11.831053515718736 0 0 0 278.49583943469986 305.23809540722453 Z" class="highcharts-point"></path><path fill="#0d955d" d="M 276.46313125425655 298.1648891601916 A 16.73248997223078 16.73248997223078 0 0 1 280.1513572112559 294.4729731318917 L 280.1513572112559 294.4729731318917 A 16.73248997223078 16.73248997223078 0 0 0 276.46313125425655 298.1648891601916 Z" class="highcharts-point"></path><path fill="#0d955d" d="M 266.6861280143625 269.9552186667296 A 44.61997325928212 44.61997325928212 0 0 1 279.5402922027952 264.6233181714398 L 279.5402922027952 264.6233181714398 A 44.61997325928212 44.61997325928212 0 0 0 266.6861280143625 269.9552186667296 Z" class="highcharts-point"></path></g><g class="highcharts-markers highcharts-series-5 highcharts-column-series highcharts-color-undefined " transform="translate(10,10) scale(1 1)" width="246.5" height="1548.805178219768" clip-path="none"></g><g class="highcharts-series highcharts-series-6 highcharts-column-series highcharts-color-undefined highcharts-dense-data" transform="translate(10,10) scale(1 1)" width="246.5" height="1548.805178219768" clip-path="url(#highcharts-97)"><path fill="#89b307" d="M 269.6413701964682 179.46067024124235 A 130.14158867290615 130.14158867290615 0 0 1 310.2300803158823 179.44037588449146 L 310.2300803158823 179.44037588449146 A 130.14158867290615 130.14158867290615 0 0 0 269.6413701964682 179.46067024124235 Z" class="highcharts-point"></path><path fill="#89b307" d="M 320.14421584115087 182.4403046872961 A 129.12749837155883 129.12749837155883 0 0 1 357.3587995569523 197.83329469416248 L 357.3587995569523 197.83329469416248 A 129.12749837155883 129.12749837155883 0 0 0 320.14421584115087 182.4403046872961 Z" class="highcharts-point"></path><path fill="#89b307" d="M 360.0379105259124 211.6010862045568 A 119.1556104083102 119.1556104083102 0 0 1 386.3288276971376 237.86572559531132 L 386.3288276971376 237.86572559531132 A 119.1556104083102 119.1556104083102 0 0 0 360.0379105259124 211.6010862045568 Z" class="highcharts-point"></path><path fill="#89b307" d="M 368.5394160099706 259.87098396904304 A 92.11320237238164 92.11320237238164 0 0 1 379.5465590778987 286.4070426156179 L 379.5465590778987 286.4070426156179 A 92.11320237238164 92.11320237238164 0 0 0 368.5394160099706 259.87098396904304 Z" class="highcharts-point"></path><path fill="#89b307" d="M 345.5890867658004 299.1955536044468 A 56.28201172477631 56.28201172477631 0 0 1 345.59786341618747 316.7488529158298 L 345.59786341618747 316.7488529158298 A 56.28201172477631 56.28201172477631 0 0 0 345.5890867658004 299.1955536044468 Z" class="highcharts-point"></path><path fill="#89b307" d="M 348.17818343023214 321.96734608346424 A 59.831327779491914 59.831327779491914 0 0 1 341.04582942181526 339.2107526742938 L 341.04582942181526 339.2107526742938 A 59.831327779491914 59.831327779491914 0 0 0 348.17818343023214 321.96734608346424 Z" class="highcharts-point"></path><path fill="#89b307" d="M 339.49844935312285 343.9627285253598 A 61.183448181288355 61.183448181288355 0 0 1 326.01220898510485 357.46246188136547 L 326.01220898510485 357.46246188136547 A 61.183448181288355 61.183448181288355 0 0 0 339.49844935312285 343.9627285253598 Z" class="highcharts-point"></path><path fill="#89b307" d="M 331.77068730760095 376.16356655544246 A 79.94411875621378 79.94411875621378 0 0 1 308.74030980332583 385.71655494283686 L 308.74030980332583 385.71655494283686 A 79.94411875621378 79.94411875621378 0 0 0 331.77068730760095 376.16356655544246 Z" class="highcharts-point"></path><path fill="#89b307" d="M 305.4408309159248 405.4895695832657 A 98.70478933113924 98.70478933113924 0 0 1 274.65666635782367 405.50496166682717 L 274.65666635782367 405.50496166682717 A 98.70478933113924 98.70478933113924 0 0 0 305.4408309159248 405.4895695832657 Z" class="highcharts-point"></path><path fill="#89b307" d="M 268.73333463562903 396.58203635281103 A 91.09911207103431 91.09911207103431 0 0 1 242.4785432445072 385.7223221987525 L 242.4785432445072 385.7223221987525 A 91.09911207103431 91.09911207103431 0 0 0 268.73333463562903 396.58203635281103 Z" class="highcharts-point"></path><path fill="#89b307" d="M 201.28531333384956 430.1052908075652 A 150.93043985052623 150.93043985052623 0 0 1 167.98348491696282 396.8367475792776 L 167.98348491696282 396.8367475792776 A 150.93043985052623 150.93043985052623 0 0 0 201.28531333384956 430.1052908075652 Z" class="highcharts-point"></path><path fill="#89b307" d="M 89.8325709397256 430.6627582880707 A 234.76190476190476 234.76190476190476 0 0 1 61.779503561098295 363.0323262512035 L 61.779503561098295 363.0323262512035 A 234.76190476190476 234.76190476190476 0 0 0 89.8325709397256 430.6627582880707 Z" class="highcharts-point"></path><path fill="#89b307" d="M 186.5007994150261 324.3926629586869 A 104.78933113922315 104.78933113922315 0 0 1 186.48445850439586 291.7108444209768 L 186.65141905519522 291.7371172525559 A 104.6203160889986 104.6203160889986 0 0 0 186.667733609518 324.36622317972126 Z" class="highcharts-point"></path><path fill="#89b307" d="M 278.33149428376703 305.19863962732774 A 12.000068565943309 12.000068565943309 0 0 1 279.76199466398623 301.74021627153985 L 279.76199466398623 301.74021627153985 A 12.000068565943309 12.000068565943309 0 0 0 278.33149428376703 305.19863962732774 Z" class="highcharts-point"></path><path fill="#89b307" d="M 276.46313125425655 298.1648891601916 A 16.73248997223078 16.73248997223078 0 0 1 280.1513572112559 294.4729731318917 L 280.1513572112559 294.4729731318917 A 16.73248997223078 16.73248997223078 0 0 0 276.46313125425655 298.1648891601916 Z" class="highcharts-point"></path><path fill="#89b307" d="M 266.6861280143625 269.9552186667296 A 44.61997325928212 44.61997325928212 0 0 1 279.5402922027952 264.6233181714398 L 279.5402922027952 264.6233181714398 A 44.61997325928212 44.61997325928212 0 0 0 266.6861280143625 269.9552186667296 Z" class="highcharts-point"></path></g><g class="highcharts-markers highcharts-series-6 highcharts-column-series highcharts-color-undefined " transform="translate(10,10) scale(1 1)" width="246.5" height="1548.805178219768" clip-path="none"></g><g class="highcharts-series highcharts-series-7 highcharts-column-series highcharts-color-undefined highcharts-dense-data" transform="translate(10,10) scale(1 1)" width="246.5" height="1548.805178219768" clip-path="url(#highcharts-97)"><path fill="#e6e416" d="M 269.6413701964682 179.46067024124235 A 130.14158867290615 130.14158867290615 0 0 1 310.2300803158823 179.44037588449146 L 310.2300803158823 179.44037588449146 A 130.14158867290615 130.14158867290615 0 0 0 269.6413701964682 179.46067024124235 Z" class="highcharts-point"></path><path fill="#e6e416" d="M 320.14421584115087 182.4403046872961 A 129.12749837155883 129.12749837155883 0 0 1 357.3587995569523 197.83329469416248 L 357.3587995569523 197.83329469416248 A 129.12749837155883 129.12749837155883 0 0 0 320.14421584115087 182.4403046872961 Z" class="highcharts-point"></path><path fill="#e6e416" d="M 360.0379105259124 211.6010862045568 A 119.1556104083102 119.1556104083102 0 0 1 386.3288276971376 237.86572559531132 L 386.3288276971376 237.86572559531132 A 119.1556104083102 119.1556104083102 0 0 0 360.0379105259124 211.6010862045568 Z" class="highcharts-point"></path><path fill="#e6e416" d="M 368.5394160099706 259.87098396904304 A 92.11320237238164 92.11320237238164 0 0 1 379.5465590778987 286.4070426156179 L 379.5465590778987 286.4070426156179 A 92.11320237238164 92.11320237238164 0 0 0 368.5394160099706 259.87098396904304 Z" class="highcharts-point"></path><path fill="#e6e416" d="M 345.5890867658004 299.1955536044468 A 56.28201172477631 56.28201172477631 0 0 1 345.59786341618747 316.7488529158298 L 345.59786341618747 316.7488529158298 A 56.28201172477631 56.28201172477631 0 0 0 345.5890867658004 299.1955536044468 Z" class="highcharts-point"></path><path fill="#e6e416" d="M 348.17818343023214 321.96734608346424 A 59.831327779491914 59.831327779491914 0 0 1 341.04582942181526 339.2107526742938 L 341.04582942181526 339.2107526742938 A 59.831327779491914 59.831327779491914 0 0 0 348.17818343023214 321.96734608346424 Z" class="highcharts-point"></path><path fill="#e6e416" d="M 339.49844935312285 343.9627285253598 A 61.183448181288355 61.183448181288355 0 0 1 326.01220898510485 357.46246188136547 L 326.01220898510485 357.46246188136547 A 61.183448181288355 61.183448181288355 0 0 0 339.49844935312285 343.9627285253598 Z" class="highcharts-point"></path><path fill="#e6e416" d="M 331.77068730760095 376.16356655544246 A 79.94411875621378 79.94411875621378 0 0 1 308.74030980332583 385.71655494283686 L 308.74030980332583 385.71655494283686 A 79.94411875621378 79.94411875621378 0 0 0 331.77068730760095 376.16356655544246 Z" class="highcharts-point"></path><path fill="#e6e416" d="M 305.4408309159248 405.4895695832657 A 98.70478933113924 98.70478933113924 0 0 1 274.65666635782367 405.50496166682717 L 274.65666635782367 405.50496166682717 A 98.70478933113924 98.70478933113924 0 0 0 305.4408309159248 405.4895695832657 Z" class="highcharts-point"></path><path fill="#e6e416" d="M 268.73333463562903 396.58203635281103 A 91.09911207103431 91.09911207103431 0 0 1 242.4785432445072 385.7223221987525 L 242.4785432445072 385.7223221987525 A 91.09911207103431 91.09911207103431 0 0 0 268.73333463562903 396.58203635281103 Z" class="highcharts-point"></path><path fill="#e6e416" d="M 201.28531333384956 430.1052908075652 A 150.93043985052623 150.93043985052623 0 0 1 167.98348491696282 396.8367475792776 L 167.98348491696282 396.8367475792776 A 150.93043985052623 150.93043985052623 0 0 0 201.28531333384956 430.1052908075652 Z" class="highcharts-point"></path><path fill="#e6e416" d="M 89.8325709397256 430.6627582880707 A 234.76190476190476 234.76190476190476 0 0 1 61.779503561098295 363.0323262512035 L 61.779503561098295 363.0323262512035 A 234.76190476190476 234.76190476190476 0 0 0 89.8325709397256 430.6627582880707 Z" class="highcharts-point"></path><path fill="#e6e416" d="M 186.5007994150261 324.3926629586869 A 104.78933113922315 104.78933113922315 0 0 1 186.48445850439586 291.7108444209768 L 186.48445850439586 291.7108444209768 A 104.78933113922315 104.78933113922315 0 0 0 186.5007994150261 324.3926629586869 Z" class="highcharts-point"></path><path fill="#e6e416" d="M 278.33149428376703 305.19863962732774 A 12.000068565943309 12.000068565943309 0 0 1 279.76199466398623 301.74021627153985 L 279.76199466398623 301.74021627153985 A 12.000068565943309 12.000068565943309 0 0 0 278.33149428376703 305.19863962732774 Z" class="highcharts-point"></path><path fill="#e6e416" d="M 276.46313125425655 298.1648891601916 A 16.73248997223078 16.73248997223078 0 0 1 280.1513572112559 294.4729731318917 L 280.1513572112559 294.4729731318917 A 16.73248997223078 16.73248997223078 0 0 0 276.46313125425655 298.1648891601916 Z" class="highcharts-point"></path><path fill="#e6e416" d="M 266.6861280143625 269.9552186667296 A 44.61997325928212 44.61997325928212 0 0 1 279.5402922027952 264.6233181714398 L 279.5402922027952 264.6233181714398 A 44.61997325928212 44.61997325928212 0 0 0 266.6861280143625 269.9552186667296 Z" class="highcharts-point"></path></g><g class="highcharts-markers highcharts-series-7 highcharts-column-series highcharts-color-undefined " transform="translate(10,10) scale(1 1)" width="246.5" height="1548.805178219768" clip-path="none"></g><g class="highcharts-series highcharts-series-8 highcharts-column-series highcharts-color-undefined highcharts-dense-data" transform="translate(10,10) scale(1 1)" width="246.5" height="1548.805178219768" clip-path="url(#highcharts-97)"><path fill="#f29106" d="M 269.6413701964682 179.46067024124235 A 130.14158867290615 130.14158867290615 0 0 1 310.2300803158823 179.44037588449146 L 310.2300803158823 179.44037588449146 A 130.14158867290615 130.14158867290615 0 0 0 269.6413701964682 179.46067024124235 Z" class="highcharts-point"></path><path fill="#f29106" d="M 320.14421584115087 182.4403046872961 A 129.12749837155883 129.12749837155883 0 0 1 357.3587995569523 197.83329469416248 L 357.3587995569523 197.83329469416248 A 129.12749837155883 129.12749837155883 0 0 0 320.14421584115087 182.4403046872961 Z" class="highcharts-point"></path><path fill="#f29106" d="M 360.0379105259124 211.6010862045568 A 119.1556104083102 119.1556104083102 0 0 1 386.3288276971376 237.86572559531132 L 386.3288276971376 237.86572559531132 A 119.1556104083102 119.1556104083102 0 0 0 360.0379105259124 211.6010862045568 Z" class="highcharts-point"></path><path fill="#f29106" d="M 368.5394160099706 259.87098396904304 A 92.11320237238164 92.11320237238164 0 0 1 379.5465590778987 286.4070426156179 L 379.5465590778987 286.4070426156179 A 92.11320237238164 92.11320237238164 0 0 0 368.5394160099706 259.87098396904304 Z" class="highcharts-point"></path><path fill="#f29106" d="M 345.5890867658004 299.1955536044468 A 56.28201172477631 56.28201172477631 0 0 1 345.59786341618747 316.7488529158298 L 345.59786341618747 316.7488529158298 A 56.28201172477631 56.28201172477631 0 0 0 345.5890867658004 299.1955536044468 Z" class="highcharts-point"></path><path fill="#f29106" d="M 348.17818343023214 321.96734608346424 A 59.831327779491914 59.831327779491914 0 0 1 341.04582942181526 339.2107526742938 L 341.04582942181526 339.2107526742938 A 59.831327779491914 59.831327779491914 0 0 0 348.17818343023214 321.96734608346424 Z" class="highcharts-point"></path><path fill="#f29106" d="M 339.49844935312285 343.9627285253598 A 61.183448181288355 61.183448181288355 0 0 1 326.01220898510485 357.46246188136547 L 326.01220898510485 357.46246188136547 A 61.183448181288355 61.183448181288355 0 0 0 339.49844935312285 343.9627285253598 Z" class="highcharts-point"></path><path fill="#f29106" d="M 331.77068730760095 376.16356655544246 A 79.94411875621378 79.94411875621378 0 0 1 308.74030980332583 385.71655494283686 L 308.74030980332583 385.71655494283686 A 79.94411875621378 79.94411875621378 0 0 0 331.77068730760095 376.16356655544246 Z" class="highcharts-point"></path><path fill="#f29106" d="M 305.4408309159248 405.4895695832657 A 98.70478933113924 98.70478933113924 0 0 1 274.65666635782367 405.50496166682717 L 274.65666635782367 405.50496166682717 A 98.70478933113924 98.70478933113924 0 0 0 305.4408309159248 405.4895695832657 Z" class="highcharts-point"></path><path fill="#f29106" d="M 268.73333463562903 396.58203635281103 A 91.09911207103431 91.09911207103431 0 0 1 242.4785432445072 385.7223221987525 L 242.4785432445072 385.7223221987525 A 91.09911207103431 91.09911207103431 0 0 0 268.73333463562903 396.58203635281103 Z" class="highcharts-point"></path><path fill="#f29106" d="M 201.28531333384956 430.1052908075652 A 150.93043985052623 150.93043985052623 0 0 1 167.98348491696282 396.8367475792776 L 167.98348491696282 396.8367475792776 A 150.93043985052623 150.93043985052623 0 0 0 201.28531333384956 430.1052908075652 Z" class="highcharts-point"></path><path fill="#f29106" d="M 89.8325709397256 430.6627582880707 A 234.76190476190476 234.76190476190476 0 0 1 61.779503561098295 363.0323262512035 L 61.779503561098295 363.0323262512035 A 234.76190476190476 234.76190476190476 0 0 0 89.8325709397256 430.6627582880707 Z" class="highcharts-point"></path><path fill="#f29106" d="M 186.5007994150261 324.3926629586869 A 104.78933113922315 104.78933113922315 0 0 1 186.48445850439586 291.7108444209768 L 186.48445850439586 291.7108444209768 A 104.78933113922315 104.78933113922315 0 0 0 186.5007994150261 324.3926629586869 Z" class="highcharts-point"></path><path fill="#f29106" d="M 278.33149428376703 305.19863962732774 A 12.000068565943309 12.000068565943309 0 0 1 279.76199466398623 301.74021627153985 L 279.76199466398623 301.74021627153985 A 12.000068565943309 12.000068565943309 0 0 0 278.33149428376703 305.19863962732774 Z" class="highcharts-point"></path><path fill="#f29106" d="M 276.46313125425655 298.1648891601916 A 16.73248997223078 16.73248997223078 0 0 1 280.1513572112559 294.4729731318917 L 280.1513572112559 294.4729731318917 A 16.73248997223078 16.73248997223078 0 0 0 276.46313125425655 298.1648891601916 Z" class="highcharts-point"></path><path fill="#f29106" d="M 266.6861280143625 269.9552186667296 A 44.61997325928212 44.61997325928212 0 0 1 279.5402922027952 264.6233181714398 L 279.5402922027952 264.6233181714398 A 44.61997325928212 44.61997325928212 0 0 0 266.6861280143625 269.9552186667296 Z" class="highcharts-point"></path></g><g class="highcharts-markers highcharts-series-8 highcharts-column-series highcharts-color-undefined " transform="translate(10,10) scale(1 1)" width="246.5" height="1548.805178219768" clip-path="none"></g></g><g class="highcharts-legend" transform="translate(52,638)"><rect fill="none" class="highcharts-legend-box" rx="0" ry="0" x="0" y="0" width="496" height="47" visibility="visible"></rect><g><g><g class="highcharts-legend-item highcharts-column-series highcharts-color-undefined highcharts-series-0" transform="translate(8,3)"><text x="21" style="color:#333333;font-size:12px;font-weight:bold;cursor:pointer;fill:#333333;" text-anchor="start" y="15"><tspan>0</tspan></text><rect x="2" y="4" width="12" height="12" fill="#ddd7d7" rx="6" ry="6" class="highcharts-point"></rect></g><g class="highcharts-legend-item highcharts-column-series highcharts-color-undefined highcharts-series-1" transform="translate(58,3)"><text x="21" y="15" style="color:#333333;font-size:12px;font-weight:bold;cursor:pointer;fill:#333333;" text-anchor="start"><tspan>&gt;1</tspan></text><rect x="2" y="4" width="12" height="12" fill="#a9fad3" rx="6" ry="6" class="highcharts-point"></rect></g><g class="highcharts-legend-item highcharts-column-series highcharts-color-undefined highcharts-series-2" transform="translate(116.59375,3)"><text x="21" y="15" style="color:#333333;font-size:12px;font-weight:bold;cursor:pointer;fill:#333333;" text-anchor="start"><tspan>&gt;5</tspan></text><rect x="2" y="4" width="12" height="12" fill="#88f79f" rx="6" ry="6" class="highcharts-point"></rect></g><g class="highcharts-legend-item highcharts-column-series highcharts-color-undefined highcharts-series-3" transform="translate(175.1875,3)"><text x="21" y="15" style="color:#333333;font-size:12px;font-weight:bold;cursor:pointer;fill:#333333;" text-anchor="start"><tspan>&gt;12</tspan></text><rect x="2" y="4" width="12" height="12" fill="#64de6a" rx="6" ry="6" class="highcharts-point"></rect></g><g class="highcharts-legend-item highcharts-column-series highcharts-color-undefined highcharts-series-4" transform="translate(241.78125,3)"><text x="21" y="15" style="color:#333333;font-size:12px;font-weight:bold;cursor:pointer;fill:#333333;" text-anchor="start"><tspan>&gt;19</tspan></text><rect x="2" y="4" width="12" height="12" fill="#30bf1d" rx="6" ry="6" class="highcharts-point"></rect></g><g class="highcharts-legend-item highcharts-column-series highcharts-color-undefined highcharts-series-5" transform="translate(308.375,3)"><text x="21" y="15" style="color:#333333;font-size:12px;font-weight:bold;cursor:pointer;fill:#333333;" text-anchor="start"><tspan>&gt;28</tspan></text><rect x="2" y="4" width="12" height="12" fill="#0d955d" rx="6" ry="6" class="highcharts-point"></rect></g><g class="highcharts-legend-item highcharts-column-series highcharts-color-undefined highcharts-series-6" transform="translate(374.96875,3)"><text x="21" y="15" style="color:#333333;font-size:12px;font-weight:bold;cursor:pointer;fill:#333333;" text-anchor="start"><tspan>&gt;38</tspan></text><rect x="2" y="4" width="12" height="12" fill="#89b307" rx="6" ry="6" class="highcharts-point"></rect></g><g class="highcharts-legend-item highcharts-column-series highcharts-color-undefined highcharts-series-7" transform="translate(441.5625,3)"><text x="21" y="15" style="color:#333333;font-size:12px;font-weight:bold;cursor:pointer;fill:#333333;" text-anchor="start"><tspan>&gt;50</tspan></text><rect x="2" y="4" width="12" height="12" fill="#e6e416" rx="6" ry="6" class="highcharts-point"></rect></g><g class="highcharts-legend-item highcharts-column-series highcharts-color-undefined highcharts-series-8" transform="translate(8,21)"><text x="21" y="15" style="color:#333333;font-size:12px;font-weight:bold;cursor:pointer;fill:#333333;" text-anchor="start"><tspan>&gt;61 km/h</tspan></text><rect x="2" y="4" width="12" height="12" fill="#f29106" rx="6" ry="6" class="highcharts-point"></rect></g></g></g></g><g class="highcharts-axis-labels highcharts-xaxis-labels "><text x="300" style="color:#666666;cursor:default;font-size:11px;fill:#666666;width:24px;text-overflow:clip;" transform="translate(0,0)" text-anchor="middle" y="59" opacity="1"><tspan>N</tspan></text><text x="400.071717563471" style="color:#666666;cursor:default;font-size:11px;fill:#666666;width:24px;text-overflow:clip;" transform="translate(0,0)" text-anchor="start" y="78.90550224829852" opacity="1"><tspan>NNE</tspan></text><text x="484.9084232802822" style="color:#666666;cursor:default;font-size:11px;fill:#666666;width:24px;text-overflow:clip;" transform="translate(0,0)" text-anchor="start" y="135.59157671971784" opacity="1"><tspan>NE</tspan></text><text x="541.5944977517015" style="color:#666666;cursor:default;font-size:11px;fill:#666666;width:24px;text-overflow:clip;" transform="translate(0,0)" text-anchor="start" y="220.428282436529" opacity="1"><tspan>ENE</tspan></text><text x="561.5" style="color:#666666;cursor:default;font-size:11px;fill:#666666;width:24px;text-overflow:clip;" transform="translate(0,0)" text-anchor="start" y="320.5" opacity="1"><tspan>E</tspan></text><text x="541.5944977517015" style="color:#666666;cursor:default;font-size:11px;fill:#666666;width:24px;text-overflow:clip;" transform="translate(0,0)" text-anchor="start" y="420.571717563471" opacity="1"><tspan>ESE</tspan></text><text x="484.9084232802822" style="color:#666666;cursor:default;font-size:11px;fill:#666666;width:24px;text-overflow:clip;" transform="translate(0,0)" text-anchor="start" y="505.40842328028214" opacity="1"><tspan>SE</tspan></text><text x="400.071717563471" style="color:#666666;cursor:default;font-size:11px;fill:#666666;width:24px;text-overflow:clip;" transform="translate(0,0)" text-anchor="start" y="562.0944977517015" opacity="1"><tspan>SSE</tspan></text><text x="300" style="color:#666666;cursor:default;font-size:11px;fill:#666666;width:24px;text-overflow:clip;" transform="translate(0,0)" text-anchor="middle" y="582" opacity="1"><tspan>S</tspan></text><text x="199.92828243652903" style="color:#666666;cursor:default;font-size:11px;fill:#666666;width:24px;text-overflow:clip;" transform="translate(0,0)" text-anchor="end" y="562.0944977517015" opacity="1"><tspan>SSW</tspan></text><text x="115.09157671971784" style="color:#666666;cursor:default;font-size:11px;fill:#666666;width:24px;text-overflow:clip;" transform="translate(0,0)" text-anchor="end" y="505.4084232802822" opacity="1"><tspan>SW</tspan></text><text x="58.405502248298575" style="color:#666666;cursor:default;font-size:11px;fill:#666666;width:24px;text-overflow:clip;" transform="translate(0,0)" text-anchor="end" y="420.5717175634711" opacity="1"><tspan>WSW</tspan></text><text x="38.5" style="color:#666666;cursor:default;font-size:11px;fill:#666666;width:24px;text-overflow:clip;" transform="translate(0,0)" text-anchor="end" y="320.50000000000006" opacity="1"><tspan>W</tspan></text><text x="58.405502248298546" style="color:#666666;cursor:default;font-size:11px;fill:#666666;width:24px;text-overflow:clip;" transform="translate(0,0)" text-anchor="end" y="220.42828243652895" opacity="1"><tspan>WNW</tspan></text><text x="115.09157671971778" style="color:#666666;cursor:default;font-size:11px;fill:#666666;width:24px;text-overflow:clip;" transform="translate(0,0)" text-anchor="end" y="135.59157671971784" opacity="1"><tspan>NW</tspan></text><text x="199.9282824365289" style="color:#666666;cursor:default;font-size:11px;fill:#666666;width:24px;text-overflow:clip;" transform="translate(0,0)" text-anchor="end" y="78.90550224829857" opacity="1"><tspan>NNW</tspan></text><text x="0" style="color:#666666;cursor:default;font-size:11px;fill:#666666;width:24px;text-overflow:clip;" transform="translate(0,0)" text-anchor="middle" y="-9999"><tspan>16</tspan></text></g><g class="highcharts-axis-labels highcharts-yaxis-labels "><text x="297" style="color:#666666;cursor:default;font-size:11px;fill:#666666;width:188px;text-overflow:clip;" text-anchor="end" transform="translate(0,0)" y="316" opacity="1"><tspan>0</tspan></text><text x="297" style="color:#666666;cursor:default;font-size:11px;fill:#666666;width:188px;text-overflow:clip;" text-anchor="end" transform="translate(0,0)" y="231.4924748877233" opacity="1"><tspan>500</tspan></text><text x="297" style="color:#666666;cursor:default;font-size:11px;fill:#666666;width:188px;text-overflow:clip;" text-anchor="end" transform="translate(0,0)" y="146.98494977544655" opacity="1"><tspan>1000</tspan></text></g><text x="560" class="highcharts-credits" text-anchor="end" style="cursor:pointer;color:#999999;font-size:9px;font:12px meteoblue, sans-serif;fill:#999999;" y="690">meteoblue</text></svg>