<?xml version="1.0" standalone="no"?><!DOCTYPE svg PUBLIC "-//W3C//DTD SVG 1.1//EN" "http://www.w3.org/Graphics/SVG/1.1/DTD/svg11.dtd"><svg xmlns:xlink="http://www.w3.org/1999/xlink" version="1.1" class="highcharts-root" style="font-family:'lucida grande', 'lucida sans unicode', arial, helvetica, sans-serif;font-size:12px;" xmlns="http://www.w3.org/2000/svg" width="600" viewBox="0 0 600 400" height="400"><desc>Created with Highstock 5.0.2</desc><defs><clipPath id="highcharts-54"><rect x="0" y="0" width="477" height="291" fill="none"></rect></clipPath></defs><rect fill="transparent" class="highcharts-background" x="0" y="0" width="600" height="400" rx="0" ry="0"></rect><rect fill="none" class="highcharts-plot-background" x="53" y="10" width="477" height="291"></rect><g class="highcharts-grid highcharts-xaxis-grid "><path fill="none" class="highcharts-grid-line" d="M 72.5 10 L 72.5 301 M 72.5 10 L 72.5 301 M 72.5 10 L 72.5 301" opacity="1"></path><path fill="none" class="highcharts-grid-line" d="M 112.5 10 L 112.5 301 M 112.5 10 L 112.5 301 M 112.5 10 L 112.5 301" opacity="1"></path><path fill="none" class="highcharts-grid-line" d="M 151.5 10 L 151.5 301 M 151.5 10 L 151.5 301 M 151.5 10 L 151.5 301" opacity="1"></path><path fill="none" class="highcharts-grid-line" d="M 191.5 10 L 191.5 301 M 191.5 10 L 191.5 301 M 191.5 10 L 191.5 301" opacity="1"></path><path fill="none" class="highcharts-grid-line" d="M 231.5 10 L 231.5 301 M 231.5 10 L 231.5 301 M 231.5 10 L 231.5 301" opacity="1"></path><path fill="none" class="highcharts-grid-line" d="M 271.5 10 L 271.5 301 M 271.5 10 L 271.5 301 M 271.5 10 L 271.5 301" opacity="1"></path><path fill="none" class="highcharts-grid-line" d="M 310.5 10 L 310.5 301 M 310.5 10 L 310.5 301 M 310.5 10 L 310.5 301" opacity="1"></path><path fill="none" class="highcharts-grid-line" d="M 350.5 10 L 350.5 301 M 350.5 10 L 350.5 301 M 350.5 10 L 350.5 301" opacity="1"></path><path fill="none" class="highcharts-grid-line" d="M 390.5 10 L 390.5 301 M 390.5 10 L 390.5 301 M 390.5 10 L 390.5 301" opacity="1"></path><path fill="none" class="highcharts-grid-line" d="M 430.5 10 L 430.5 301 M 430.5 10 L 430.5 301 M 430.5 10 L 430.5 301" opacity="1"></path><path fill="none" class="highcharts-grid-line" d="M 469.5 10 L 469.5 301 M 469.5 10 L 469.5 301 M 469.5 10 L 469.5 301" opacity="1"></path><path fill="none" class="highcharts-grid-line" d="M 509.5 10 L 509.5 301 M 509.5 10 L 509.5 301 M 509.5 10 L 509.5 301" opacity="1"></path></g><g class="highcharts-grid highcharts-yaxis-grid "><path fill="none" stroke="#e6e6e6" stroke-width="1" class="highcharts-grid-line" d="M 53 301.5 L 530 301.5" opacity="1"></path><path fill="none" stroke="#e6e6e6" stroke-width="1" class="highcharts-grid-line" d="M 53 259.5 L 530 259.5" opacity="1"></path><path fill="none" stroke="#e6e6e6" stroke-width="1" class="highcharts-grid-line" d="M 53 218.5 L 530 218.5" opacity="1"></path><path fill="none" stroke="#e6e6e6" stroke-width="1" class="highcharts-grid-line" d="M 53 176.5 L 530 176.5" opacity="1"></path><path fill="none" stroke="#e6e6e6" stroke-width="1" class="highcharts-grid-line" d="M 53 135.5 L 530 135.5" opacity="1"></path><path fill="none" stroke="#e6e6e6" stroke-width="1" class="highcharts-grid-line" d="M 53 93.5 L 530 93.5" opacity="1"></path><path fill="none" stroke="#e6e6e6" stroke-width="1" class="highcharts-grid-line" d="M 53 52.5 L 530 52.5" opacity="1"></path><path fill="none" stroke="#e6e6e6" stroke-width="1" class="highcharts-grid-line" d="M 53 9.5 L 530 9.5" opacity="1"></path></g><g class="highcharts-grid highcharts-yaxis-grid "><path fill="none" class="highcharts-grid-line" d="M 53 301.5 L 530 301.5" opacity="1"></path><path fill="none" class="highcharts-grid-line" d="M 53 228.5 L 530 228.5" opacity="1"></path><path fill="none" class="highcharts-grid-line" d="M 53 156.5 L 530 156.5" opacity="1"></path><path fill="none" class="highcharts-grid-line" d="M 53 83.5 L 530 83.5" opacity="1"></path><path fill="none" class="highcharts-grid-line" d="M 53 10.5 L 530 10.5" opacity="1"></path></g><g class="highcharts-grid highcharts-yaxis-grid "></g><rect fill="none" class="highcharts-plot-border" x="53" y="10" width="477" height="291"></rect><g class="highcharts-axis highcharts-xaxis "><path fill="none" class="highcharts-tick" stroke="#ccd6eb" stroke-width="1" d="M 72.5 301 L 72.5 311" opacity="1"></path><path fill="none" class="highcharts-tick" stroke="#ccd6eb" stroke-width="1" d="M 112.5 301 L 112.5 311" opacity="1"></path><path fill="none" class="highcharts-tick" stroke="#ccd6eb" stroke-width="1" d="M 151.5 301 L 151.5 311" opacity="1"></path><path fill="none" class="highcharts-tick" stroke="#ccd6eb" stroke-width="1" d="M 191.5 301 L 191.5 311" opacity="1"></path><path fill="none" class="highcharts-tick" stroke="#ccd6eb" stroke-width="1" d="M 231.5 301 L 231.5 311" opacity="1"></path><path fill="none" class="highcharts-tick" stroke="#ccd6eb" stroke-width="1" d="M 271.5 301 L 271.5 311" opacity="1"></path><path fill="none" class="highcharts-tick" stroke="#ccd6eb" stroke-width="1" d="M 310.5 301 L 310.5 311" opacity="1"></path><path fill="none" class="highcharts-tick" stroke="#ccd6eb" stroke-width="1" d="M 350.5 301 L 350.5 311" opacity="1"></path><path fill="none" class="highcharts-tick" stroke="#ccd6eb" stroke-width="1" d="M 390.5 301 L 390.5 311" opacity="1"></path><path fill="none" class="highcharts-tick" stroke="#ccd6eb" stroke-width="1" d="M 430.5 301 L 430.5 311" opacity="1"></path><path fill="none" class="highcharts-tick" stroke="#ccd6eb" stroke-width="1" d="M 469.5 301 L 469.5 311" opacity="1"></path><path fill="none" class="highcharts-tick" stroke="#ccd6eb" stroke-width="1" d="M 509.5 301 L 509.5 311" opacity="1"></path><path fill="none" class="highcharts-axis-line" stroke="#ccd6eb" stroke-width="1" d="M 53 301.5 L 530 301.5"></path></g><g class="highcharts-axis highcharts-yaxis "><path fill="none" class="highcharts-axis-line" d="M 53 10 L 53 301"></path></g><g class="highcharts-axis highcharts-yaxis "><path fill="none" class="highcharts-axis-line" d="M 530 10 L 530 301"></path></g><g class="highcharts-axis highcharts-yaxis "><path fill="none" class="highcharts-axis-line" d="M 590 10 L 590 301"></path></g><g class="highcharts-series-group"><g class="highcharts-series highcharts-series-0 highcharts-column-series highcharts-color-undefined " transform="translate(53,10) scale(1 1)" width="291" height="477" clip-path="url(#highcharts-54)"><rect x="3.5" y="282.5" width="32" height="9" fill="#a8c8ff" class="highcharts-point" stroke="#ffffff" stroke-width="1"></rect><rect x="43.5" y="274.5" width="32" height="17" fill="#a8c8ff" class="highcharts-point" stroke="#ffffff" stroke-width="1"></rect><rect x="82.5" y="279.5" width="32" height="12" fill="#a8c8ff" class="highcharts-point" stroke="#ffffff" stroke-width="1"></rect><rect x="122.5" y="271.5" width="32" height="20" fill="#a8c8ff" class="highcharts-point" stroke="#ffffff" stroke-width="1"></rect><rect x="162.5" y="230.5" width="32" height="61" fill="#a8c8ff" class="highcharts-point" stroke="#ffffff" stroke-width="1"></rect><rect x="202.5" y="207.5" width="32" height="84" fill="#a8c8ff" class="highcharts-point" stroke="#ffffff" stroke-width="1"></rect><rect x="241.5" y="201.5" width="32" height="90" fill="#a8c8ff" class="highcharts-point" stroke="#ffffff" stroke-width="1"></rect><rect x="281.5" y="192.5" width="32" height="99" fill="#a8c8ff" class="highcharts-point" stroke="#ffffff" stroke-width="1"></rect><rect x="321.5" y="163.5" width="32" height="128" fill="#a8c8ff" class="highcharts-point" stroke="#ffffff" stroke-width="1"></rect><rect x="361.5" y="113.5" width="32" height="178" fill="#a8c8ff" class="highcharts-point" stroke="#ffffff" stroke-width="1"></rect><rect x="400.5" y="125.5" width="32" height="166" fill="#a8c8ff" class="highcharts-point" stroke="#ffffff" stroke-width="1"></rect><rect x="440.5" y="227.5" width="32" height="64" fill="#a8c8ff" class="highcharts-point" stroke="#ffffff" stroke-width="1"></rect></g><g class="highcharts-markers highcharts-series-0 highcharts-column-series highcharts-color-undefined " transform="translate(53,10) scale(1 1)" width="291" height="477" clip-path="none"></g><g class="highcharts-series highcharts-series-1 highcharts-spline-series highcharts-color-undefined " transform="translate(53,10) scale(1 1)" width="291" height="477" clip-path="url(#highcharts-54)"><path fill="none" d="M 19.875 124.7142857142857 C 19.875 124.7142857142857 43.725 109.7485714285714 59.625 99.77142857142854 C 75.525 89.79428571428568 83.475 81.47999999999999 99.375 74.82857142857142 C 115.275 68.17714285714285 123.225 69.84 139.125 66.5142857142857 C 155.025 63.18857142857142 162.975 58.19999999999999 178.875 58.19999999999999 C 194.775 58.19999999999999 202.725 69.83999999999999 218.625 74.82857142857142 C 234.525 79.81714285714284 242.475 79.81714285714284 258.375 83.14285714285714 C 274.275 86.46857142857142 282.225 91.45714285714286 298.125 91.45714285714286 C 314.025 91.45714285714286 321.975 91.45714285714286 337.875 91.45714285714286 C 353.775 91.45714285714286 361.725 101.4342857142857 377.625 108.08571428571426 C 393.525 114.73714285714283 401.475 119.72571428571426 417.375 124.7142857142857 C 433.275 129.7028571428571 457.125 133.0285714285714 457.125 133.0285714285714" class="highcharts-graph" stroke="#DE2900" stroke-width="2" stroke-linejoin="round" stroke-linecap="round"></path></g><g class="highcharts-markers highcharts-series-1 highcharts-spline-series highcharts-color-undefined " transform="translate(53,10) scale(1 1)" width="291" height="477" clip-path="none"></g><g class="highcharts-series highcharts-series-2 highcharts-spline-series highcharts-color-undefined " transform="translate(53,10) scale(1 1)" width="291" height="477" clip-path="url(#highcharts-54)"><path fill="none" d="M 19.875 108.08571428571426 C 19.875 108.08571428571426 43.725 93.11999999999998 59.625 83.14285714285714 C 75.525 73.16571428571429 83.475 66.5142857142857 99.375 58.19999999999999 C 115.275 49.88571428571427 123.225 46.559999999999995 139.125 41.571428571428555 C 155.025 36.58285714285712 162.975 33.25714285714281 178.875 33.25714285714281 C 194.775 33.25714285714281 202.725 43.2342857142857 218.625 49.88571428571427 C 234.525 56.53714285714285 242.475 66.5142857142857 258.375 66.5142857142857 C 274.275 66.5142857142857 282.225 66.5142857142857 298.125 66.5142857142857 C 314.025 66.5142857142857 321.975 66.5142857142857 337.875 66.5142857142857 C 353.775 66.5142857142857 361.725 74.82857142857144 377.625 83.14285714285714 C 393.525 91.45714285714286 401.475 101.43428571428569 417.375 108.08571428571426 C 433.275 114.73714285714283 457.125 116.39999999999998 457.125 116.39999999999998" class="highcharts-graph" stroke="#ff9480" stroke-width="2" stroke-dasharray="8,6"></path></g><g class="highcharts-markers highcharts-series-2 highcharts-spline-series highcharts-color-undefined " transform="translate(53,10) scale(1 1)" width="291" height="477" clip-path="none"></g><g class="highcharts-series highcharts-series-3 highcharts-spline-series highcharts-color-undefined " transform="translate(53,10) scale(1 1)" width="291" height="477" clip-path="url(#highcharts-54)"><path fill="none" d="M 19.875 216.17142857142858 C 19.875 216.17142857142858 43.725 212.84571428571428 59.625 207.85714285714283 C 75.525 202.86857142857139 83.475 199.54285714285714 99.375 191.22857142857143 C 115.275 182.9142857142857 123.225 172.93714285714285 139.125 166.28571428571428 C 155.025 159.63428571428568 162.975 157.97142857142856 178.875 157.97142857142856 C 194.775 157.97142857142856 202.725 166.28571428571428 218.625 166.28571428571428 C 234.525 166.28571428571428 242.475 166.28571428571428 258.375 166.28571428571428 C 274.275 166.28571428571428 282.225 166.28571428571428 298.125 166.28571428571428 C 314.025 166.28571428571428 321.975 171.2742857142857 337.875 174.6 C 353.775 177.92571428571426 361.725 177.9257142857143 377.625 182.9142857142857 C 393.525 187.90285714285716 401.475 192.89142857142858 417.375 199.54285714285714 C 433.275 206.19428571428574 457.125 216.17142857142858 457.125 216.17142857142858" class="highcharts-graph" stroke="#2354ca" stroke-width="2" stroke-linejoin="round" stroke-linecap="round"></path></g><g class="highcharts-markers highcharts-series-3 highcharts-spline-series highcharts-color-undefined " transform="translate(53,10) scale(1 1)" width="291" height="477" clip-path="none"></g><g class="highcharts-series highcharts-series-4 highcharts-spline-series highcharts-color-undefined " transform="translate(53,10) scale(1 1)" width="291" height="477" clip-path="url(#highcharts-54)"><path fill="none" d="M 19.875 241.1142857142857 C 19.875 241.1142857142857 43.725 237.78857142857143 59.625 232.8 C 75.525 227.8114285714286 83.475 226.14857142857144 99.375 216.17142857142858 C 115.275 206.1942857142857 123.225 191.22857142857143 139.125 182.9142857142857 C 155.025 174.6 162.975 174.6 178.875 174.6 C 194.775 174.6 202.725 174.6 218.625 174.6 C 234.525 174.6 242.475 174.6 258.375 174.6 C 274.275 174.6 282.225 182.9142857142857 298.125 182.9142857142857 C 314.025 182.9142857142857 321.975 182.9142857142857 337.875 182.9142857142857 C 353.775 182.9142857142857 361.725 192.89142857142858 377.625 199.54285714285714 C 393.525 206.19428571428574 401.475 207.85714285714286 417.375 216.17142857142858 C 433.275 224.48571428571432 457.125 241.1142857142857 457.125 241.1142857142857" class="highcharts-graph" stroke="#6CA8E8" stroke-width="2" stroke-dasharray="8,6"></path></g><g class="highcharts-markers highcharts-series-4 highcharts-spline-series highcharts-color-undefined " transform="translate(53,10) scale(1 1)" width="291" height="477" clip-path="none"></g><g class="highcharts-series highcharts-series-5 highcharts-spline-series highcharts-color-undefined " visibility="hidden" transform="translate(53,10) scale(1 1)" width="291" height="477" clip-path="url(#highcharts-54)"><path fill="none" d="M 0 0" class="highcharts-graph" stroke="#79e505" stroke-width="2" stroke-linejoin="round" stroke-linecap="round"></path></g><g class="highcharts-markers highcharts-series-5 highcharts-spline-series highcharts-color-undefined " visibility="hidden" transform="translate(53,10) scale(1 1)" width="291" height="477" clip-path="none"></g><g class="highcharts-series highcharts-series-6 highcharts-areasplinerange-series highcharts-color-undefined " visibility="hidden" transform="translate(53,10) scale(1 1)" width="291" height="477" clip-path="url(#highcharts-54)"><path fill="rgb(121,229,5)" fill-opacity="0.5" d="M 0 0" class="highcharts-area"></path><path fill="none" d="M 0 0" class="highcharts-graph" stroke="#79e505" stroke-width="1" stroke-linejoin="round" stroke-linecap="round"></path></g><g class="highcharts-markers highcharts-series-6 highcharts-areasplinerange-series highcharts-color-undefined " visibility="hidden" transform="translate(53,10) scale(1 1)" width="291" height="477" clip-path="none"></g></g><g class="highcharts-data-labels highcharts-series-1 highcharts-spline-series highcharts-color-undefined " transform="translate(53,10) scale(1 1)" opacity="1"><g class="highcharts-label highcharts-data-label highcharts-data-label-color-undefined " style="" transform="translate(1,98)"><text x="5" style="font-size:11px;font-weight:bold;color:#9e3203;text-shadow:1px 1px #ffffff, -1px -1px #ffffff, -1px 1px #ffffff, 1px -1px #ffffff;fill:#9e3203;text-rendering:geometricprecision;" y="16"><tspan>30 °C</tspan></text></g><g class="highcharts-label highcharts-data-label highcharts-data-label-color-undefined " style="" transform="translate(40,73)"><text x="5" style="font-size:11px;font-weight:bold;color:#9e3203;text-shadow:1px 1px #ffffff, -1px -1px #ffffff, -1px 1px #ffffff, 1px -1px #ffffff;fill:#9e3203;text-rendering:geometricprecision;" y="16"><tspan>33 °C</tspan></text></g><g class="highcharts-label highcharts-data-label highcharts-data-label-color-undefined " style="" transform="translate(80,48)"><text x="5" style="font-size:11px;font-weight:bold;color:#9e3203;text-shadow:1px 1px #ffffff, -1px -1px #ffffff, -1px 1px #ffffff, 1px -1px #ffffff;fill:#9e3203;text-rendering:geometricprecision;" y="16"><tspan>36 °C</tspan></text></g><g class="highcharts-label highcharts-data-label highcharts-data-label-color-undefined " style="" transform="translate(120,40)"><text x="5" style="font-size:11px;font-weight:bold;color:#9e3203;text-shadow:1px 1px #ffffff, -1px -1px #ffffff, -1px 1px #ffffff, 1px -1px #ffffff;fill:#9e3203;text-rendering:geometricprecision;" y="16"><tspan>37 °C</tspan></text></g><g class="highcharts-label highcharts-data-label highcharts-data-label-color-undefined " style="" transform="translate(160,31)"><text x="5" style="font-size:11px;font-weight:bold;color:#9e3203;text-shadow:1px 1px #ffffff, -1px -1px #ffffff, -1px 1px #ffffff, 1px -1px #ffffff;fill:#9e3203;text-rendering:geometricprecision;" y="16"><tspan>38 °C</tspan></text></g><g class="highcharts-label highcharts-data-label highcharts-data-label-color-undefined " style="" transform="translate(199,48)"><text x="5" style="font-size:11px;font-weight:bold;color:#9e3203;text-shadow:1px 1px #ffffff, -1px -1px #ffffff, -1px 1px #ffffff, 1px -1px #ffffff;fill:#9e3203;text-rendering:geometricprecision;" y="16"><tspan>36 °C</tspan></text></g><g class="highcharts-label highcharts-data-label highcharts-data-label-color-undefined " style="" transform="translate(239,56)"><text x="5" style="font-size:11px;font-weight:bold;color:#9e3203;text-shadow:1px 1px #ffffff, -1px -1px #ffffff, -1px 1px #ffffff, 1px -1px #ffffff;fill:#9e3203;text-rendering:geometricprecision;" y="16"><tspan>35 °C</tspan></text></g><g class="highcharts-label highcharts-data-label highcharts-data-label-color-undefined " style="" transform="translate(279,64)"><text x="5" style="font-size:11px;font-weight:bold;color:#9e3203;text-shadow:1px 1px #ffffff, -1px -1px #ffffff, -1px 1px #ffffff, 1px -1px #ffffff;fill:#9e3203;text-rendering:geometricprecision;" y="16"><tspan>34 °C</tspan></text></g><g class="highcharts-label highcharts-data-label highcharts-data-label-color-undefined " style="" transform="translate(319,64)"><text x="5" style="font-size:11px;font-weight:bold;color:#9e3203;text-shadow:1px 1px #ffffff, -1px -1px #ffffff, -1px 1px #ffffff, 1px -1px #ffffff;fill:#9e3203;text-rendering:geometricprecision;" y="16"><tspan>34 °C</tspan></text></g><g class="highcharts-label highcharts-data-label highcharts-data-label-color-undefined " style="" transform="translate(358,81)"><text x="5" style="font-size:11px;font-weight:bold;color:#9e3203;text-shadow:1px 1px #ffffff, -1px -1px #ffffff, -1px 1px #ffffff, 1px -1px #ffffff;fill:#9e3203;text-rendering:geometricprecision;" y="16"><tspan>32 °C</tspan></text></g><g class="highcharts-label highcharts-data-label highcharts-data-label-color-undefined " style="" transform="translate(398,98)"><text x="5" style="font-size:11px;font-weight:bold;color:#9e3203;text-shadow:1px 1px #ffffff, -1px -1px #ffffff, -1px 1px #ffffff, 1px -1px #ffffff;fill:#9e3203;text-rendering:geometricprecision;" y="16"><tspan>30 °C</tspan></text></g><g class="highcharts-label highcharts-data-label highcharts-data-label-color-undefined " style="" transform="translate(438,106)"><text x="5" style="font-size:11px;font-weight:bold;color:#9e3203;text-shadow:1px 1px #ffffff, -1px -1px #ffffff, -1px 1px #ffffff, 1px -1px #ffffff;fill:#9e3203;text-rendering:geometricprecision;" y="16"><tspan>29 °C</tspan></text></g></g><g class="highcharts-data-labels highcharts-series-3 highcharts-spline-series highcharts-color-undefined " transform="translate(53,10) scale(1 1)" opacity="1"><g class="highcharts-label highcharts-data-label highcharts-data-label-color-undefined " style="" transform="translate(1,189)"><text x="5" style="font-size:11px;font-weight:bold;color:#2354ca;text-shadow:1px 1px #ffffff, -1px -1px #ffffff, -1px 1px #ffffff, 1px -1px #ffffff;fill:#2354ca;text-rendering:geometricprecision;" y="16"><tspan>19 °C</tspan></text></g><g class="highcharts-label highcharts-data-label highcharts-data-label-color-undefined " style="" transform="translate(40,181)"><text x="5" style="font-size:11px;font-weight:bold;color:#2354ca;text-shadow:1px 1px #ffffff, -1px -1px #ffffff, -1px 1px #ffffff, 1px -1px #ffffff;fill:#2354ca;text-rendering:geometricprecision;" y="16"><tspan>20 °C</tspan></text></g><g class="highcharts-label highcharts-data-label highcharts-data-label-color-undefined " style="" transform="translate(80,164)"><text x="5" style="font-size:11px;font-weight:bold;color:#2354ca;text-shadow:1px 1px #ffffff, -1px -1px #ffffff, -1px 1px #ffffff, 1px -1px #ffffff;fill:#2354ca;text-rendering:geometricprecision;" y="16"><tspan>22 °C</tspan></text></g><g class="highcharts-label highcharts-data-label highcharts-data-label-color-undefined " style="" transform="translate(120,139)"><text x="5" style="font-size:11px;font-weight:bold;color:#2354ca;text-shadow:1px 1px #ffffff, -1px -1px #ffffff, -1px 1px #ffffff, 1px -1px #ffffff;fill:#2354ca;text-rendering:geometricprecision;" y="16"><tspan>25 °C</tspan></text></g><g class="highcharts-label highcharts-data-label highcharts-data-label-color-undefined " style="" transform="translate(160,131)"><text x="5" style="font-size:11px;font-weight:bold;color:#2354ca;text-shadow:1px 1px #ffffff, -1px -1px #ffffff, -1px 1px #ffffff, 1px -1px #ffffff;fill:#2354ca;text-rendering:geometricprecision;" y="16"><tspan>26 °C</tspan></text></g><g class="highcharts-label highcharts-data-label highcharts-data-label-color-undefined " style="" transform="translate(199,139)"><text x="5" style="font-size:11px;font-weight:bold;color:#2354ca;text-shadow:1px 1px #ffffff, -1px -1px #ffffff, -1px 1px #ffffff, 1px -1px #ffffff;fill:#2354ca;text-rendering:geometricprecision;" y="16"><tspan>25 °C</tspan></text></g><g class="highcharts-label highcharts-data-label highcharts-data-label-color-undefined " style="" transform="translate(239,139)"><text x="5" style="font-size:11px;font-weight:bold;color:#2354ca;text-shadow:1px 1px #ffffff, -1px -1px #ffffff, -1px 1px #ffffff, 1px -1px #ffffff;fill:#2354ca;text-rendering:geometricprecision;" y="16"><tspan>25 °C</tspan></text></g><g class="highcharts-label highcharts-data-label highcharts-data-label-color-undefined " style="" transform="translate(279,139)"><text x="5" style="font-size:11px;font-weight:bold;color:#2354ca;text-shadow:1px 1px #ffffff, -1px -1px #ffffff, -1px 1px #ffffff, 1px -1px #ffffff;fill:#2354ca;text-rendering:geometricprecision;" y="16"><tspan>25 °C</tspan></text></g><g class="highcharts-label highcharts-data-label highcharts-data-label-color-undefined " style="" transform="translate(319,148)"><text x="5" style="font-size:11px;font-weight:bold;color:#2354ca;text-shadow:1px 1px #ffffff, -1px -1px #ffffff, -1px 1px #ffffff, 1px -1px #ffffff;fill:#2354ca;text-rendering:geometricprecision;" y="16"><tspan>24 °C</tspan></text></g><g class="highcharts-label highcharts-data-label highcharts-data-label-color-undefined " style="" transform="translate(358,156)"><text x="5" style="font-size:11px;font-weight:bold;color:#2354ca;text-shadow:1px 1px #ffffff, -1px -1px #ffffff, -1px 1px #ffffff, 1px -1px #ffffff;fill:#2354ca;text-rendering:geometricprecision;" y="16"><tspan>23 °C</tspan></text></g><g class="highcharts-label highcharts-data-label highcharts-data-label-color-undefined " style="" transform="translate(398,173)"><text x="5" style="font-size:11px;font-weight:bold;color:#2354ca;text-shadow:1px 1px #ffffff, -1px -1px #ffffff, -1px 1px #ffffff, 1px -1px #ffffff;fill:#2354ca;text-rendering:geometricprecision;" y="16"><tspan>21 °C</tspan></text></g><g class="highcharts-label highcharts-data-label highcharts-data-label-color-undefined " style="" transform="translate(438,189)"><text x="5" style="font-size:11px;font-weight:bold;color:#2354ca;text-shadow:1px 1px #ffffff, -1px -1px #ffffff, -1px 1px #ffffff, 1px -1px #ffffff;fill:#2354ca;text-rendering:geometricprecision;" y="16"><tspan>19 °C</tspan></text></g></g><g class="highcharts-legend" transform="translate(28,338)"><rect fill="none" class="highcharts-legend-box" rx="0" ry="0" x="0" y="0" width="544" height="47" visibility="visible"></rect><g><g><g class="highcharts-legend-item highcharts-column-series highcharts-color-undefined highcharts-series-0" transform="translate(8,3)"><text x="21" style="color:#333333;font-size:12px;font-weight:bold;cursor:pointer;fill:#333333;" text-anchor="start" y="15">Precipitation</text><rect x="2" y="4" width="12" height="12" fill="#a8c8ff" rx="6" ry="6" class="highcharts-point"></rect></g><g class="highcharts-legend-item highcharts-spline-series highcharts-color-undefined highcharts-series-1" transform="translate(125.1875,3)"><path fill="none" d="M 0 11 L 16 11" class="highcharts-graph" stroke="#DE2900" stroke-width="2"></path><text x="21" y="15" style="color:#333333;font-size:12px;font-weight:bold;cursor:pointer;fill:#333333;" text-anchor="start"><tspan>Mean daily maximum</tspan></text></g><g class="highcharts-legend-item highcharts-spline-series highcharts-color-undefined highcharts-series-2" transform="translate(295.171875,3)"><path fill="none" d="M 0 11 L 16 11" class="highcharts-graph" stroke-dasharray="8,6" stroke="#ff9480" stroke-width="2"></path><text x="21" y="15" style="color:#333333;font-size:12px;font-weight:bold;cursor:pointer;fill:#333333;" text-anchor="start"><tspan>Hot days</tspan></text></g><g class="highcharts-legend-item highcharts-spline-series highcharts-color-undefined highcharts-series-3" transform="translate(389.53125,3)"><path fill="none" d="M 0 11 L 16 11" class="highcharts-graph" stroke="#2354ca" stroke-width="2"></path><text x="21" y="15" style="color:#333333;font-size:12px;font-weight:bold;cursor:pointer;fill:#333333;" text-anchor="start"><tspan>Mean daily minimum</tspan></text></g><g class="highcharts-legend-item highcharts-spline-series highcharts-color-undefined highcharts-series-4" transform="translate(8,21)"><path fill="none" d="M 0 11 L 16 11" class="highcharts-graph" stroke-dasharray="8,6" stroke="#6CA8E8" stroke-width="2"></path><text x="21" y="15" style="color:#333333;font-size:12px;font-weight:bold;cursor:pointer;fill:#333333;" text-anchor="start"><tspan>Cold nights</tspan></text></g><g class="highcharts-legend-item highcharts-spline-series highcharts-color-undefined highcharts-series-5 highcharts-legend-item-hidden" transform="translate(118.984375,21)"><path fill="none" d="M 0 11 L 16 11" class="highcharts-graph" stroke="#cccccc" stroke-width="2"></path><text x="21" y="15" style="color:#cccccc;font-size:12px;font-weight:bold;cursor:pointer;fill:#cccccc;" text-anchor="start"><tspan>Wind speed</tspan></text></g></g></g></g><g class="highcharts-axis-labels highcharts-xaxis-labels "><text x="72.875" style="color:#666666;cursor:default;font-size:11px;fill:#666666;" text-anchor="middle" transform="translate(0,0)" y="320" opacity="1">Jan</text><text x="112.625" style="color:#666666;cursor:default;font-size:11px;fill:#666666;" text-anchor="middle" transform="translate(0,0)" y="320" opacity="1">Feb</text><text x="152.375" style="color:#666666;cursor:default;font-size:11px;fill:#666666;" text-anchor="middle" transform="translate(0,0)" y="320" opacity="1">Mar</text><text x="192.125" style="color:#666666;cursor:default;font-size:11px;fill:#666666;" text-anchor="middle" transform="translate(0,0)" y="320" opacity="1">Apr</text><text x="231.875" style="color:#666666;cursor:default;font-size:11px;fill:#666666;" text-anchor="middle" transform="translate(0,0)" y="320" opacity="1">May</text><text x="271.625" style="color:#666666;cursor:default;font-size:11px;fill:#666666;" text-anchor="middle" transform="translate(0,0)" y="320" opacity="1">Jun</text><text x="311.375" style="color:#666666;cursor:default;font-size:11px;fill:#666666;" text-anchor="middle" transform="translate(0,0)" y="320" opacity="1">Jul</text><text x="351.125" style="color:#666666;cursor:default;font-size:11px;fill:#666666;" text-anchor="middle" transform="translate(0,0)" y="320" opacity="1">Aug</text><text x="390.875" style="color:#666666;cursor:default;font-size:11px;fill:#666666;" text-anchor="middle" transform="translate(0,0)" y="320" opacity="1">Sep</text><text x="430.625" style="color:#666666;cursor:default;font-size:11px;fill:#666666;" text-anchor="middle" transform="translate(0,0)" y="320" opacity="1">Oct</text><text x="470.375" style="color:#666666;cursor:default;font-size:11px;fill:#666666;" text-anchor="middle" transform="translate(0,0)" y="320" opacity="1">Nov</text><text x="510.125" style="color:#666666;cursor:default;font-size:11px;fill:#666666;" text-anchor="middle" transform="translate(0,0)" y="320" opacity="1">Dec</text></g><g class="highcharts-axis-labels highcharts-yaxis-labels "><text x="38" style="color:#666666;cursor:default;font-size:11px;fill:#666666;width:188px;text-overflow:clip;" text-anchor="end" transform="translate(0,0)" y="304" opacity="1"><tspan>10 °C</tspan></text><text x="38" style="color:#666666;cursor:default;font-size:11px;fill:#666666;width:188px;text-overflow:clip;" text-anchor="end" transform="translate(0,0)" y="262" opacity="1"><tspan>15 °C</tspan></text><text x="38" style="color:#666666;cursor:default;font-size:11px;fill:#666666;width:188px;text-overflow:clip;" text-anchor="end" transform="translate(0,0)" y="220" opacity="1"><tspan>20 °C</tspan></text><text x="38" style="color:#666666;cursor:default;font-size:11px;fill:#666666;width:188px;text-overflow:clip;" text-anchor="end" transform="translate(0,0)" y="179" opacity="1"><tspan>25 °C</tspan></text><text x="38" style="color:#666666;cursor:default;font-size:11px;fill:#666666;width:188px;text-overflow:clip;" text-anchor="end" transform="translate(0,0)" y="137" opacity="1"><tspan>30 °C</tspan></text><text x="38" style="color:#666666;cursor:default;font-size:11px;fill:#666666;width:188px;text-overflow:clip;" text-anchor="end" transform="translate(0,0)" y="96" opacity="1"><tspan>35 °C</tspan></text><text x="38" style="color:#666666;cursor:default;font-size:11px;fill:#666666;width:188px;text-overflow:clip;" text-anchor="end" transform="translate(0,0)" y="54" opacity="1"><tspan>40 °C</tspan></text><text x="38" style="color:#666666;cursor:default;font-size:11px;fill:#666666;width:188px;text-overflow:clip;" text-anchor="end" transform="translate(0,0)" y="13" opacity="1"><tspan>45 °C</tspan></text></g><g class="highcharts-axis-labels highcharts-yaxis-labels "><text x="545" style="color:#666666;cursor:default;font-size:11px;fill:#666666;width:188px;text-overflow:clip;" text-anchor="start" transform="translate(0,0)" y="304" opacity="1"><tspan>0 mm</tspan></text><text x="545" style="color:#666666;cursor:default;font-size:11px;fill:#666666;width:188px;text-overflow:clip;" text-anchor="start" transform="translate(0,0)" y="231" opacity="1"><tspan>25 mm</tspan></text><text x="545" style="color:#666666;cursor:default;font-size:11px;fill:#666666;width:188px;text-overflow:clip;" text-anchor="start" transform="translate(0,0)" y="158" opacity="1"><tspan>50 mm</tspan></text><text x="545" style="color:#666666;cursor:default;font-size:11px;fill:#666666;width:188px;text-overflow:clip;" text-anchor="start" transform="translate(0,0)" y="85" opacity="1"><tspan>75 mm</tspan></text><text x="545" style="color:#666666;cursor:default;font-size:11px;fill:#666666;width:188px;text-overflow:clip;" text-anchor="start" transform="translate(0,0)" y="13" opacity="1"><tspan>100 mm</tspan></text></g><g class="highcharts-axis-labels highcharts-yaxis-labels "></g><text x="560" class="highcharts-credits" text-anchor="end" style="cursor:pointer;color:#999999;font-size:9px;font:12px meteoblue, sans-serif;fill:#999999;" y="390">meteoblue</text></svg>