<?xml version="1.0" standalone="no"?><!DOCTYPE svg PUBLIC "-//W3C//DTD SVG 1.1//EN" "http://www.w3.org/Graphics/SVG/1.1/DTD/svg11.dtd"><svg xmlns:xlink="http://www.w3.org/1999/xlink" version="1.1" class="highcharts-root" style="font-family:'lucida grande', 'lucida sans unicode', arial, helvetica, sans-serif;font-size:12px;" xmlns="http://www.w3.org/2000/svg" width="600" viewBox="0 0 600 400" height="400"><desc>Created with Highstock 5.0.2</desc><defs><clipPath id="highcharts-76"><rect x="0" y="0" width="523" height="291" fill="none"></rect></clipPath></defs><rect fill="transparent" class="highcharts-background" x="0" y="0" width="600" height="400" rx="0" ry="0"></rect><rect fill="none" class="highcharts-plot-background" x="67" y="10" width="523" height="291"></rect><g class="highcharts-grid highcharts-xaxis-grid "><path fill="none" class="highcharts-grid-line" d="M 88.5 10 L 88.5 301" opacity="1"></path><path fill="none" class="highcharts-grid-line" d="M 131.5 10 L 131.5 301" opacity="1"></path><path fill="none" class="highcharts-grid-line" d="M 175.5 10 L 175.5 301" opacity="1"></path><path fill="none" class="highcharts-grid-line" d="M 219.5 10 L 219.5 301" opacity="1"></path><path fill="none" class="highcharts-grid-line" d="M 262.5 10 L 262.5 301" opacity="1"></path><path fill="none" class="highcharts-grid-line" d="M 306.5 10 L 306.5 301" opacity="1"></path><path fill="none" class="highcharts-grid-line" d="M 349.5 10 L 349.5 301" opacity="1"></path><path fill="none" class="highcharts-grid-line" d="M 393.5 10 L 393.5 301" opacity="1"></path><path fill="none" class="highcharts-grid-line" d="M 436.5 10 L 436.5 301" opacity="1"></path><path fill="none" class="highcharts-grid-line" d="M 480.5 10 L 480.5 301" opacity="1"></path><path fill="none" class="highcharts-grid-line" d="M 524.5 10 L 524.5 301" opacity="1"></path><path fill="none" class="highcharts-grid-line" d="M 567.5 10 L 567.5 301" opacity="1"></path></g><g class="highcharts-grid highcharts-yaxis-grid "><path fill="none" stroke="#e6e6e6" stroke-width="1" class="highcharts-grid-line" d="M 67 301.5 L 590 301.5" opacity="1"></path><path fill="none" stroke="#e6e6e6" stroke-width="1" class="highcharts-grid-line" d="M 67 253.5 L 590 253.5" opacity="1"></path><path fill="none" stroke="#e6e6e6" stroke-width="1" class="highcharts-grid-line" d="M 67 204.5 L 590 204.5" opacity="1"></path><path fill="none" stroke="#e6e6e6" stroke-width="1" class="highcharts-grid-line" d="M 67 156.5 L 590 156.5" opacity="1"></path><path fill="none" stroke="#e6e6e6" stroke-width="1" class="highcharts-grid-line" d="M 67 107.5 L 590 107.5" opacity="1"></path><path fill="none" stroke="#e6e6e6" stroke-width="1" class="highcharts-grid-line" d="M 67 59.5 L 590 59.5" opacity="1"></path><path fill="none" stroke="#e6e6e6" stroke-width="1" class="highcharts-grid-line" d="M 67 9.5 L 590 9.5" opacity="1"></path></g><rect fill="none" class="highcharts-plot-border" x="67" y="10" width="523" height="291"></rect><g class="highcharts-axis highcharts-xaxis "><path fill="none" class="highcharts-tick" stroke="#ccd6eb" stroke-width="1" d="M 88.5 301 L 88.5 311" opacity="1"></path><path fill="none" class="highcharts-tick" stroke="#ccd6eb" stroke-width="1" d="M 131.5 301 L 131.5 311" opacity="1"></path><path fill="none" class="highcharts-tick" stroke="#ccd6eb" stroke-width="1" d="M 175.5 301 L 175.5 311" opacity="1"></path><path fill="none" class="highcharts-tick" stroke="#ccd6eb" stroke-width="1" d="M 219.5 301 L 219.5 311" opacity="1"></path><path fill="none" class="highcharts-tick" stroke="#ccd6eb" stroke-width="1" d="M 262.5 301 L 262.5 311" opacity="1"></path><path fill="none" class="highcharts-tick" stroke="#ccd6eb" stroke-width="1" d="M 306.5 301 L 306.5 311" opacity="1"></path><path fill="none" class="highcharts-tick" stroke="#ccd6eb" stroke-width="1" d="M 349.5 301 L 349.5 311" opacity="1"></path><path fill="none" class="highcharts-tick" stroke="#ccd6eb" stroke-width="1" d="M 393.5 301 L 393.5 311" opacity="1"></path><path fill="none" class="highcharts-tick" stroke="#ccd6eb" stroke-width="1" d="M 436.5 301 L 436.5 311" opacity="1"></path><path fill="none" class="highcharts-tick" stroke="#ccd6eb" stroke-width="1" d="M 480.5 301 L 480.5 311" opacity="1"></path><path fill="none" class="highcharts-tick" stroke="#ccd6eb" stroke-width="1" d="M 524.5 301 L 524.5 311" opacity="1"></path><path fill="none" class="highcharts-tick" stroke="#ccd6eb" stroke-width="1" d="M 567.5 301 L 567.5 311" opacity="1"></path><path fill="none" class="highcharts-axis-line" stroke="#ccd6eb" stroke-width="1" d="M 67 301.5 L 590 301.5"></path></g><g class="highcharts-axis highcharts-yaxis "><path fill="none" class="highcharts-axis-line" d="M 67 10 L 67 301"></path></g><g class="highcharts-series-group"><g class="highcharts-series highcharts-series-0 highcharts-column-series highcharts-color-undefined " transform="translate(67,10) scale(1 1)" width="291" height="523" clip-path="url(#highcharts-76)"><rect x="3.5" y="-9.5" width="35" height="0" fill="#c201a0" class="highcharts-point" stroke="#ffffff" stroke-width="1"></rect><rect x="47.5" y="18.5" width="35" height="0" fill="#c201a0" class="highcharts-point" stroke="#ffffff" stroke-width="1"></rect><rect x="91.5" y="-9.5" width="35" height="0" fill="#c201a0" class="highcharts-point" stroke="#ffffff" stroke-width="1"></rect><rect x="134.5" y="-0.5" width="35" height="0" fill="#c201a0" class="highcharts-point" stroke="#ffffff" stroke-width="1"></rect><rect x="178.5" y="-9.5" width="35" height="0" fill="#c201a0" class="highcharts-point" stroke="#ffffff" stroke-width="1"></rect><rect x="221.5" y="1.5" width="35" height="0" fill="#c201a0" class="highcharts-point" stroke="#ffffff" stroke-width="1"></rect><rect x="265.5" y="-9.5" width="35" height="0" fill="#c201a0" class="highcharts-point" stroke="#ffffff" stroke-width="1"></rect><rect x="308.5" y="-9.5" width="35" height="0" fill="#c201a0" class="highcharts-point" stroke="#ffffff" stroke-width="1"></rect><rect x="352.5" y="1.5" width="35" height="0" fill="#c201a0" class="highcharts-point" stroke="#ffffff" stroke-width="1"></rect><rect x="396.5" y="-9.5" width="35" height="0" fill="#c201a0" class="highcharts-point" stroke="#ffffff" stroke-width="1"></rect><rect x="439.5" y="1.5" width="35" height="0" fill="#c201a0" class="highcharts-point" stroke="#ffffff" stroke-width="1"></rect><rect x="483.5" y="-9.5" width="35" height="0" fill="#c201a0" class="highcharts-point" stroke="#ffffff" stroke-width="1"></rect></g><g class="highcharts-markers highcharts-series-0 highcharts-column-series highcharts-color-undefined " transform="translate(67,10) scale(1 1)" width="291" height="523" clip-path="none"></g><g class="highcharts-series highcharts-series-1 highcharts-column-series highcharts-color-undefined " transform="translate(67,10) scale(1 1)" width="291" height="523" clip-path="url(#highcharts-76)"><rect x="3.5" y="-9.5" width="35" height="0" fill="#9620e9" class="highcharts-point" stroke="#ffffff" stroke-width="1"></rect><rect x="47.5" y="18.5" width="35" height="0" fill="#9620e9" class="highcharts-point" stroke="#ffffff" stroke-width="1"></rect><rect x="91.5" y="-9.5" width="35" height="0" fill="#9620e9" class="highcharts-point" stroke="#ffffff" stroke-width="1"></rect><rect x="134.5" y="-0.5" width="35" height="0" fill="#9620e9" class="highcharts-point" stroke="#ffffff" stroke-width="1"></rect><rect x="178.5" y="-9.5" width="35" height="0" fill="#9620e9" class="highcharts-point" stroke="#ffffff" stroke-width="1"></rect><rect x="221.5" y="1.5" width="35" height="0" fill="#9620e9" class="highcharts-point" stroke="#ffffff" stroke-width="1"></rect><rect x="265.5" y="-9.5" width="35" height="0" fill="#9620e9" class="highcharts-point" stroke="#ffffff" stroke-width="1"></rect><rect x="308.5" y="-9.5" width="35" height="0" fill="#9620e9" class="highcharts-point" stroke="#ffffff" stroke-width="1"></rect><rect x="352.5" y="1.5" width="35" height="0" fill="#9620e9" class="highcharts-point" stroke="#ffffff" stroke-width="1"></rect><rect x="396.5" y="-9.5" width="35" height="0" fill="#9620e9" class="highcharts-point" stroke="#ffffff" stroke-width="1"></rect><rect x="439.5" y="1.5" width="35" height="0" fill="#9620e9" class="highcharts-point" stroke="#ffffff" stroke-width="1"></rect><rect x="483.5" y="-9.5" width="35" height="0" fill="#9620e9" class="highcharts-point" stroke="#ffffff" stroke-width="1"></rect></g><g class="highcharts-markers highcharts-series-1 highcharts-column-series highcharts-color-undefined " transform="translate(67,10) scale(1 1)" width="291" height="523" clip-path="none"></g><g class="highcharts-series highcharts-series-2 highcharts-column-series highcharts-color-undefined " transform="translate(67,10) scale(1 1)" width="291" height="523" clip-path="url(#highcharts-76)"><rect x="3.5" y="-9.5" width="35" height="0" fill="#6735f6" class="highcharts-point" stroke="#ffffff" stroke-width="1"></rect><rect x="47.5" y="18.5" width="35" height="1" fill="#6735f6" class="highcharts-point" stroke="#ffffff" stroke-width="1"></rect><rect x="91.5" y="-9.5" width="35" height="0" fill="#6735f6" class="highcharts-point" stroke="#ffffff" stroke-width="1"></rect><rect x="134.5" y="-0.5" width="35" height="0" fill="#6735f6" class="highcharts-point" stroke="#ffffff" stroke-width="1"></rect><rect x="178.5" y="-9.5" width="35" height="0" fill="#6735f6" class="highcharts-point" stroke="#ffffff" stroke-width="1"></rect><rect x="221.5" y="1.5" width="35" height="0" fill="#6735f6" class="highcharts-point" stroke="#ffffff" stroke-width="1"></rect><rect x="265.5" y="-9.5" width="35" height="1" fill="#6735f6" class="highcharts-point" stroke="#ffffff" stroke-width="1"></rect><rect x="308.5" y="-9.5" width="35" height="1" fill="#6735f6" class="highcharts-point" stroke="#ffffff" stroke-width="1"></rect><rect x="352.5" y="1.5" width="35" height="1" fill="#6735f6" class="highcharts-point" stroke="#ffffff" stroke-width="1"></rect><rect x="396.5" y="-9.5" width="35" height="3" fill="#6735f6" class="highcharts-point" stroke="#ffffff" stroke-width="1"></rect><rect x="439.5" y="1.5" width="35" height="5" fill="#6735f6" class="highcharts-point" stroke="#ffffff" stroke-width="1"></rect><rect x="483.5" y="-9.5" width="35" height="2" fill="#6735f6" class="highcharts-point" stroke="#ffffff" stroke-width="1"></rect></g><g class="highcharts-markers highcharts-series-2 highcharts-column-series highcharts-color-undefined " transform="translate(67,10) scale(1 1)" width="291" height="523" clip-path="none"></g><g class="highcharts-series highcharts-series-3 highcharts-column-series highcharts-color-undefined " transform="translate(67,10) scale(1 1)" width="291" height="523" clip-path="url(#highcharts-76)"><rect x="3.5" y="-9.5" width="35" height="0" fill="#3749f7" class="highcharts-point" stroke="#ffffff" stroke-width="1"></rect><rect x="47.5" y="19.5" width="35" height="0" fill="#3749f7" class="highcharts-point" stroke="#ffffff" stroke-width="1"></rect><rect x="91.5" y="-9.5" width="35" height="1" fill="#3749f7" class="highcharts-point" stroke="#ffffff" stroke-width="1"></rect><rect x="134.5" y="-0.5" width="35" height="2" fill="#3749f7" class="highcharts-point" stroke="#ffffff" stroke-width="1"></rect><rect x="178.5" y="-9.5" width="35" height="1" fill="#3749f7" class="highcharts-point" stroke="#ffffff" stroke-width="1"></rect><rect x="221.5" y="1.5" width="35" height="1" fill="#3749f7" class="highcharts-point" stroke="#ffffff" stroke-width="1"></rect><rect x="265.5" y="-8.5" width="35" height="3" fill="#3749f7" class="highcharts-point" stroke="#ffffff" stroke-width="1"></rect><rect x="308.5" y="-8.5" width="35" height="4" fill="#3749f7" class="highcharts-point" stroke="#ffffff" stroke-width="1"></rect><rect x="352.5" y="2.5" width="35" height="3" fill="#3749f7" class="highcharts-point" stroke="#ffffff" stroke-width="1"></rect><rect x="396.5" y="-6.5" width="35" height="8" fill="#3749f7" class="highcharts-point" stroke="#ffffff" stroke-width="1"></rect><rect x="439.5" y="6.5" width="35" height="8" fill="#3749f7" class="highcharts-point" stroke="#ffffff" stroke-width="1"></rect><rect x="483.5" y="-7.5" width="35" height="1" fill="#3749f7" class="highcharts-point" stroke="#ffffff" stroke-width="1"></rect></g><g class="highcharts-markers highcharts-series-3 highcharts-column-series highcharts-color-undefined " transform="translate(67,10) scale(1 1)" width="291" height="523" clip-path="none"></g><g class="highcharts-series highcharts-series-4 highcharts-column-series highcharts-color-undefined " transform="translate(67,10) scale(1 1)" width="291" height="523" clip-path="url(#highcharts-76)"><rect x="3.5" y="-9.5" width="35" height="1" fill="#319af3" class="highcharts-point" stroke="#ffffff" stroke-width="1"></rect><rect x="47.5" y="19.5" width="35" height="2" fill="#319af3" class="highcharts-point" stroke="#ffffff" stroke-width="1"></rect><rect x="91.5" y="-8.5" width="35" height="0" fill="#319af3" class="highcharts-point" stroke="#ffffff" stroke-width="1"></rect><rect x="134.5" y="1.5" width="35" height="1" fill="#319af3" class="highcharts-point" stroke="#ffffff" stroke-width="1"></rect><rect x="178.5" y="-8.5" width="35" height="5" fill="#319af3" class="highcharts-point" stroke="#ffffff" stroke-width="1"></rect><rect x="221.5" y="2.5" width="35" height="10" fill="#319af3" class="highcharts-point" stroke="#ffffff" stroke-width="1"></rect><rect x="265.5" y="-5.5" width="35" height="11" fill="#319af3" class="highcharts-point" stroke="#ffffff" stroke-width="1"></rect><rect x="308.5" y="-4.5" width="35" height="12" fill="#319af3" class="highcharts-point" stroke="#ffffff" stroke-width="1"></rect><rect x="352.5" y="5.5" width="35" height="14" fill="#319af3" class="highcharts-point" stroke="#ffffff" stroke-width="1"></rect><rect x="396.5" y="1.5" width="35" height="24" fill="#319af3" class="highcharts-point" stroke="#ffffff" stroke-width="1"></rect><rect x="439.5" y="14.5" width="35" height="16" fill="#319af3" class="highcharts-point" stroke="#ffffff" stroke-width="1"></rect><rect x="483.5" y="-6.5" width="35" height="5" fill="#319af3" class="highcharts-point" stroke="#ffffff" stroke-width="1"></rect></g><g class="highcharts-markers highcharts-series-4 highcharts-column-series highcharts-color-undefined " transform="translate(67,10) scale(1 1)" width="291" height="523" clip-path="none"></g><g class="highcharts-series highcharts-series-5 highcharts-column-series highcharts-color-undefined " transform="translate(67,10) scale(1 1)" width="291" height="523" clip-path="url(#highcharts-76)"><rect x="3.5" y="-8.5" width="35" height="3" fill="#8bcafa" class="highcharts-point" stroke="#ffffff" stroke-width="1"></rect><rect x="47.5" y="21.5" width="35" height="3" fill="#8bcafa" class="highcharts-point" stroke="#ffffff" stroke-width="1"></rect><rect x="91.5" y="-8.5" width="35" height="4" fill="#8bcafa" class="highcharts-point" stroke="#ffffff" stroke-width="1"></rect><rect x="134.5" y="2.5" width="35" height="6" fill="#8bcafa" class="highcharts-point" stroke="#ffffff" stroke-width="1"></rect><rect x="178.5" y="-3.5" width="35" height="22" fill="#8bcafa" class="highcharts-point" stroke="#ffffff" stroke-width="1"></rect><rect x="221.5" y="12.5" width="35" height="32" fill="#8bcafa" class="highcharts-point" stroke="#ffffff" stroke-width="1"></rect><rect x="265.5" y="5.5" width="35" height="31" fill="#8bcafa" class="highcharts-point" stroke="#ffffff" stroke-width="1"></rect><rect x="308.5" y="7.5" width="35" height="33" fill="#8bcafa" class="highcharts-point" stroke="#ffffff" stroke-width="1"></rect><rect x="352.5" y="19.5" width="35" height="50" fill="#8bcafa" class="highcharts-point" stroke="#ffffff" stroke-width="1"></rect><rect x="396.5" y="25.5" width="35" height="53" fill="#8bcafa" class="highcharts-point" stroke="#ffffff" stroke-width="1"></rect><rect x="439.5" y="30.5" width="35" height="29" fill="#8bcafa" class="highcharts-point" stroke="#ffffff" stroke-width="1"></rect><rect x="483.5" y="-1.5" width="35" height="14" fill="#8bcafa" class="highcharts-point" stroke="#ffffff" stroke-width="1"></rect></g><g class="highcharts-markers highcharts-series-5 highcharts-column-series highcharts-color-undefined " transform="translate(67,10) scale(1 1)" width="291" height="523" clip-path="none"></g><g class="highcharts-series highcharts-series-6 highcharts-column-series highcharts-color-undefined " transform="translate(67,10) scale(1 1)" width="291" height="523" clip-path="url(#highcharts-76)"><rect x="3.5" y="-5.5" width="35" height="10" fill="#ade4f8" class="highcharts-point" stroke="#ffffff" stroke-width="1"></rect><rect x="47.5" y="24.5" width="35" height="11" fill="#ade4f8" class="highcharts-point" stroke="#ffffff" stroke-width="1"></rect><rect x="91.5" y="-4.5" width="35" height="17" fill="#ade4f8" class="highcharts-point" stroke="#ffffff" stroke-width="1"></rect><rect x="134.5" y="8.5" width="35" height="32" fill="#ade4f8" class="highcharts-point" stroke="#ffffff" stroke-width="1"></rect><rect x="178.5" y="18.5" width="35" height="88" fill="#ade4f8" class="highcharts-point" stroke="#ffffff" stroke-width="1"></rect><rect x="221.5" y="44.5" width="35" height="98" fill="#ade4f8" class="highcharts-point" stroke="#ffffff" stroke-width="1"></rect><rect x="265.5" y="36.5" width="35" height="78" fill="#ade4f8" class="highcharts-point" stroke="#ffffff" stroke-width="1"></rect><rect x="308.5" y="40.5" width="35" height="86" fill="#ade4f8" class="highcharts-point" stroke="#ffffff" stroke-width="1"></rect><rect x="352.5" y="69.5" width="35" height="94" fill="#ade4f8" class="highcharts-point" stroke="#ffffff" stroke-width="1"></rect><rect x="396.5" y="78.5" width="35" height="84" fill="#ade4f8" class="highcharts-point" stroke="#ffffff" stroke-width="1"></rect><rect x="439.5" y="59.5" width="35" height="54" fill="#ade4f8" class="highcharts-point" stroke="#ffffff" stroke-width="1"></rect><rect x="483.5" y="12.5" width="35" height="24" fill="#ade4f8" class="highcharts-point" stroke="#ffffff" stroke-width="1"></rect></g><g class="highcharts-markers highcharts-series-6 highcharts-column-series highcharts-color-undefined " transform="translate(67,10) scale(1 1)" width="291" height="523" clip-path="none"></g><g class="highcharts-series highcharts-series-7 highcharts-column-series highcharts-color-undefined " transform="translate(67,10) scale(1 1)" width="291" height="523" clip-path="url(#highcharts-76)"><rect x="3.5" y="4.5" width="35" height="287" fill="#e4e075" class="highcharts-point" stroke="#ffffff" stroke-width="1"></rect><rect x="47.5" y="35.5" width="35" height="256" fill="#e4e075" class="highcharts-point" stroke="#ffffff" stroke-width="1"></rect><rect x="91.5" y="12.5" width="35" height="279" fill="#e4e075" class="highcharts-point" stroke="#ffffff" stroke-width="1"></rect><rect x="134.5" y="40.5" width="35" height="251" fill="#e4e075" class="highcharts-point" stroke="#ffffff" stroke-width="1"></rect><rect x="178.5" y="106.5" width="35" height="185" fill="#e4e075" class="highcharts-point" stroke="#ffffff" stroke-width="1"></rect><rect x="221.5" y="142.5" width="35" height="149" fill="#e4e075" class="highcharts-point" stroke="#ffffff" stroke-width="1"></rect><rect x="265.5" y="114.5" width="35" height="177" fill="#e4e075" class="highcharts-point" stroke="#ffffff" stroke-width="1"></rect><rect x="308.5" y="126.5" width="35" height="165" fill="#e4e075" class="highcharts-point" stroke="#ffffff" stroke-width="1"></rect><rect x="352.5" y="163.5" width="35" height="128" fill="#e4e075" class="highcharts-point" stroke="#ffffff" stroke-width="1"></rect><rect x="396.5" y="162.5" width="35" height="129" fill="#e4e075" class="highcharts-point" stroke="#ffffff" stroke-width="1"></rect><rect x="439.5" y="113.5" width="35" height="178" fill="#e4e075" class="highcharts-point" stroke="#ffffff" stroke-width="1"></rect><rect x="483.5" y="36.5" width="35" height="255" fill="#e4e075" class="highcharts-point" stroke="#ffffff" stroke-width="1"></rect></g><g class="highcharts-markers highcharts-series-7 highcharts-column-series highcharts-color-undefined " transform="translate(67,10) scale(1 1)" width="291" height="523" clip-path="none"></g></g><g class="highcharts-legend" transform="translate(47,338)"><rect fill="none" class="highcharts-legend-box" rx="0" ry="0" x="0" y="0" width="505" height="47" visibility="visible"></rect><g><g><g class="highcharts-legend-item highcharts-column-series highcharts-color-undefined highcharts-series-0" transform="translate(8,3)"><text x="21" style="color:#333333;font-size:12px;font-weight:bold;cursor:pointer;fill:#333333;" text-anchor="start" y="15">&gt;100mm</text><rect x="2" y="4" width="12" height="12" fill="#c201a0" rx="6" ry="6" class="highcharts-point"></rect></g><g class="highcharts-legend-item highcharts-column-series highcharts-color-undefined highcharts-series-1" transform="translate(105.703125,3)"><text x="21" y="15" style="color:#333333;font-size:12px;font-weight:bold;cursor:pointer;fill:#333333;" text-anchor="start">50-100mm</text><rect x="2" y="4" width="12" height="12" fill="#9620e9" rx="6" ry="6" class="highcharts-point"></rect></g><g class="highcharts-legend-item highcharts-column-series highcharts-color-undefined highcharts-series-2" transform="translate(216.46875,3)"><text x="21" y="15" style="color:#333333;font-size:12px;font-weight:bold;cursor:pointer;fill:#333333;" text-anchor="start">20-50mm</text><rect x="2" y="4" width="12" height="12" fill="#6735f6" rx="6" ry="6" class="highcharts-point"></rect></g><g class="highcharts-legend-item highcharts-column-series highcharts-color-undefined highcharts-series-3" transform="translate(319.40625,3)"><text x="21" y="15" style="color:#333333;font-size:12px;font-weight:bold;cursor:pointer;fill:#333333;" text-anchor="start">10-20mm</text><rect x="2" y="4" width="12" height="12" fill="#3749f7" rx="6" ry="6" class="highcharts-point"></rect></g><g class="highcharts-legend-item highcharts-column-series highcharts-color-undefined highcharts-series-4" transform="translate(422.34375,3)"><text x="21" y="15" style="color:#333333;font-size:12px;font-weight:bold;cursor:pointer;fill:#333333;" text-anchor="start">5-10mm</text><rect x="2" y="4" width="12" height="12" fill="#319af3" rx="6" ry="6" class="highcharts-point"></rect></g><g class="highcharts-legend-item highcharts-column-series highcharts-color-undefined highcharts-series-5" transform="translate(8,21)"><text x="21" y="15" style="color:#333333;font-size:12px;font-weight:bold;cursor:pointer;fill:#333333;" text-anchor="start">2-5mm</text><rect x="2" y="4" width="12" height="12" fill="#8bcafa" rx="6" ry="6" class="highcharts-point"></rect></g><g class="highcharts-legend-item highcharts-column-series highcharts-color-undefined highcharts-series-6" transform="translate(95.28125,21)"><text x="21" y="15" style="color:#333333;font-size:12px;font-weight:bold;cursor:pointer;fill:#333333;" text-anchor="start"><tspan>&lt; 2mm</tspan></text><rect x="2" y="4" width="12" height="12" fill="#ade4f8" rx="6" ry="6" class="highcharts-point"></rect></g><g class="highcharts-legend-item highcharts-column-series highcharts-color-undefined highcharts-series-7" transform="translate(181.125,21)"><text x="21" y="15" style="color:#333333;font-size:12px;font-weight:bold;cursor:pointer;fill:#333333;" text-anchor="start"><tspan>Dry days</tspan></text><rect x="2" y="4" width="12" height="12" fill="#e4e075" rx="6" ry="6" class="highcharts-point"></rect></g></g></g></g><g class="highcharts-axis-labels highcharts-xaxis-labels "><text x="88.79166666666667" style="color:#666666;cursor:default;font-size:11px;fill:#666666;" text-anchor="middle" transform="translate(0,0)" y="320" opacity="1">Jan</text><text x="132.375" style="color:#666666;cursor:default;font-size:11px;fill:#666666;" text-anchor="middle" transform="translate(0,0)" y="320" opacity="1">Feb</text><text x="175.95833333333334" style="color:#666666;cursor:default;font-size:11px;fill:#666666;" text-anchor="middle" transform="translate(0,0)" y="320" opacity="1">Mar</text><text x="219.54166666666666" style="color:#666666;cursor:default;font-size:11px;fill:#666666;" text-anchor="middle" transform="translate(0,0)" y="320" opacity="1">Apr</text><text x="263.125" style="color:#666666;cursor:default;font-size:11px;fill:#666666;" text-anchor="middle" transform="translate(0,0)" y="320" opacity="1">May</text><text x="306.70833333333337" style="color:#666666;cursor:default;font-size:11px;fill:#666666;" text-anchor="middle" transform="translate(0,0)" y="320" opacity="1">Jun</text><text x="350.2916666666667" style="color:#666666;cursor:default;font-size:11px;fill:#666666;" text-anchor="middle" transform="translate(0,0)" y="320" opacity="1">Jul</text><text x="393.87500000000006" style="color:#666666;cursor:default;font-size:11px;fill:#666666;" text-anchor="middle" transform="translate(0,0)" y="320" opacity="1">Aug</text><text x="437.45833333333337" style="color:#666666;cursor:default;font-size:11px;fill:#666666;" text-anchor="middle" transform="translate(0,0)" y="320" opacity="1">Sep</text><text x="481.0416666666667" style="color:#666666;cursor:default;font-size:11px;fill:#666666;" text-anchor="middle" transform="translate(0,0)" y="320" opacity="1">Oct</text><text x="524.625" style="color:#666666;cursor:default;font-size:11px;fill:#666666;" text-anchor="middle" transform="translate(0,0)" y="320" opacity="1">Nov</text><text x="568.2083333333334" style="color:#666666;cursor:default;font-size:11px;fill:#666666;" text-anchor="middle" transform="translate(0,0)" y="320" opacity="1">Dec</text></g><g class="highcharts-axis-labels highcharts-yaxis-labels "><text x="52" style="color:#666666;cursor:default;font-size:11px;fill:#666666;width:188px;text-overflow:clip;" text-anchor="end" transform="translate(0,0)" y="304" opacity="1"><tspan>0 days</tspan></text><text x="52" style="color:#666666;cursor:default;font-size:11px;fill:#666666;width:188px;text-overflow:clip;" text-anchor="end" transform="translate(0,0)" y="255" opacity="1"><tspan>5 days</tspan></text><text x="52" style="color:#666666;cursor:default;font-size:11px;fill:#666666;width:188px;text-overflow:clip;" text-anchor="end" transform="translate(0,0)" y="207" opacity="1"><tspan>10 days</tspan></text><text x="52" style="color:#666666;cursor:default;font-size:11px;fill:#666666;width:188px;text-overflow:clip;" text-anchor="end" transform="translate(0,0)" y="158" opacity="1"><tspan>15 days</tspan></text><text x="52" style="color:#666666;cursor:default;font-size:11px;fill:#666666;width:188px;text-overflow:clip;" text-anchor="end" transform="translate(0,0)" y="110" opacity="1"><tspan>20 days</tspan></text><text x="52" style="color:#666666;cursor:default;font-size:11px;fill:#666666;width:188px;text-overflow:clip;" text-anchor="end" transform="translate(0,0)" y="61" opacity="1"><tspan>25 days</tspan></text><text x="52" style="color:#666666;cursor:default;font-size:11px;fill:#666666;width:188px;text-overflow:clip;" text-anchor="end" transform="translate(0,0)" y="13" opacity="1"><tspan>30 days</tspan></text></g><text x="560" class="highcharts-credits" text-anchor="end" style="cursor:pointer;color:#999999;font-size:9px;font:12px meteoblue, sans-serif;fill:#999999;" y="390">meteoblue</text></svg>