<?xml version="1.0" standalone="no"?><!DOCTYPE svg PUBLIC "-//W3C//DTD SVG 1.1//EN" "http://www.w3.org/Graphics/SVG/1.1/DTD/svg11.dtd"><svg xmlns:xlink="http://www.w3.org/1999/xlink" version="1.1" class="highcharts-root" style="font-family:'lucida grande', 'lucida sans unicode', arial, helvetica, sans-serif;font-size:12px;" xmlns="http://www.w3.org/2000/svg" width="600" viewBox="0 0 600 400" height="400"><desc>Created with Highstock 5.0.2</desc><defs><clipPath id="highcharts-63"><rect x="0" y="0" width="523" height="309" fill="none"></rect></clipPath></defs><rect fill="transparent" class="highcharts-background" x="0" y="0" width="600" height="400" rx="0" ry="0"></rect><rect fill="none" class="highcharts-plot-background" x="67" y="10" width="523" height="309"></rect><g class="highcharts-grid highcharts-xaxis-grid "><path fill="none" class="highcharts-grid-line" d="M 88.5 10 L 88.5 319" opacity="1"></path><path fill="none" class="highcharts-grid-line" d="M 131.5 10 L 131.5 319" opacity="1"></path><path fill="none" class="highcharts-grid-line" d="M 175.5 10 L 175.5 319" opacity="1"></path><path fill="none" class="highcharts-grid-line" d="M 219.5 10 L 219.5 319" opacity="1"></path><path fill="none" class="highcharts-grid-line" d="M 262.5 10 L 262.5 319" opacity="1"></path><path fill="none" class="highcharts-grid-line" d="M 306.5 10 L 306.5 319" opacity="1"></path><path fill="none" class="highcharts-grid-line" d="M 349.5 10 L 349.5 319" opacity="1"></path><path fill="none" class="highcharts-grid-line" d="M 393.5 10 L 393.5 319" opacity="1"></path><path fill="none" class="highcharts-grid-line" d="M 436.5 10 L 436.5 319" opacity="1"></path><path fill="none" class="highcharts-grid-line" d="M 480.5 10 L 480.5 319" opacity="1"></path><path fill="none" class="highcharts-grid-line" d="M 524.5 10 L 524.5 319" opacity="1"></path><path fill="none" class="highcharts-grid-line" d="M 567.5 10 L 567.5 319" opacity="1"></path></g><g class="highcharts-grid highcharts-yaxis-grid "><path fill="none" stroke="#e6e6e6" stroke-width="1" class="highcharts-grid-line" d="M 67 319.5 L 590 319.5" opacity="1"></path><path fill="none" stroke="#e6e6e6" stroke-width="1" class="highcharts-grid-line" d="M 67 268.5 L 590 268.5" opacity="1"></path><path fill="none" stroke="#e6e6e6" stroke-width="1" class="highcharts-grid-line" d="M 67 216.5 L 590 216.5" opacity="1"></path><path fill="none" stroke="#e6e6e6" stroke-width="1" class="highcharts-grid-line" d="M 67 165.5 L 590 165.5" opacity="1"></path><path fill="none" stroke="#e6e6e6" stroke-width="1" class="highcharts-grid-line" d="M 67 113.5 L 590 113.5" opacity="1"></path><path fill="none" stroke="#e6e6e6" stroke-width="1" class="highcharts-grid-line" d="M 67 62.5 L 590 62.5" opacity="1"></path><path fill="none" stroke="#e6e6e6" stroke-width="1" class="highcharts-grid-line" d="M 67 9.5 L 590 9.5" opacity="1"></path></g><rect fill="none" class="highcharts-plot-border" x="67" y="10" width="523" height="309"></rect><g class="highcharts-axis highcharts-xaxis "><path fill="none" class="highcharts-tick" stroke="#ccd6eb" stroke-width="1" d="M 88.5 319 L 88.5 329" opacity="1"></path><path fill="none" class="highcharts-tick" stroke="#ccd6eb" stroke-width="1" d="M 131.5 319 L 131.5 329" opacity="1"></path><path fill="none" class="highcharts-tick" stroke="#ccd6eb" stroke-width="1" d="M 175.5 319 L 175.5 329" opacity="1"></path><path fill="none" class="highcharts-tick" stroke="#ccd6eb" stroke-width="1" d="M 219.5 319 L 219.5 329" opacity="1"></path><path fill="none" class="highcharts-tick" stroke="#ccd6eb" stroke-width="1" d="M 262.5 319 L 262.5 329" opacity="1"></path><path fill="none" class="highcharts-tick" stroke="#ccd6eb" stroke-width="1" d="M 306.5 319 L 306.5 329" opacity="1"></path><path fill="none" class="highcharts-tick" stroke="#ccd6eb" stroke-width="1" d="M 349.5 319 L 349.5 329" opacity="1"></path><path fill="none" class="highcharts-tick" stroke="#ccd6eb" stroke-width="1" d="M 393.5 319 L 393.5 329" opacity="1"></path><path fill="none" class="highcharts-tick" stroke="#ccd6eb" stroke-width="1" d="M 436.5 319 L 436.5 329" opacity="1"></path><path fill="none" class="highcharts-tick" stroke="#ccd6eb" stroke-width="1" d="M 480.5 319 L 480.5 329" opacity="1"></path><path fill="none" class="highcharts-tick" stroke="#ccd6eb" stroke-width="1" d="M 524.5 319 L 524.5 329" opacity="1"></path><path fill="none" class="highcharts-tick" stroke="#ccd6eb" stroke-width="1" d="M 567.5 319 L 567.5 329" opacity="1"></path><path fill="none" class="highcharts-axis-line" stroke="#ccd6eb" stroke-width="1" d="M 67 319.5 L 590 319.5"></path></g><g class="highcharts-axis highcharts-yaxis "><path fill="none" class="highcharts-axis-line" d="M 67 10 L 67 319"></path></g><g class="highcharts-series-group"><g class="highcharts-series highcharts-series-0 highcharts-column-series highcharts-color-undefined " transform="translate(67,10) scale(1 1)" width="309" height="523" clip-path="url(#highcharts-63)"><rect x="3.5" y="-10.5" width="35" height="171" fill="#f3e905" class="highcharts-point" stroke="#ffffff" stroke-width="1"></rect><rect x="47.5" y="18.5" width="35" height="169" fill="#f3e905" class="highcharts-point" stroke="#ffffff" stroke-width="1"></rect><rect x="91.5" y="-9.5" width="35" height="240" fill="#f3e905" class="highcharts-point" stroke="#ffffff" stroke-width="1"></rect><rect x="134.5" y="-0.5" width="35" height="221" fill="#f3e905" class="highcharts-point" stroke="#ffffff" stroke-width="1"></rect><rect x="178.5" y="-10.5" width="35" height="179" fill="#f3e905" class="highcharts-point" stroke="#ffffff" stroke-width="1"></rect><rect x="221.5" y="1.5" width="35" height="46" fill="#f3e905" class="highcharts-point" stroke="#ffffff" stroke-width="1"></rect><rect x="265.5" y="-9.5" width="35" height="28" fill="#f3e905" class="highcharts-point" stroke="#ffffff" stroke-width="1"></rect><rect x="308.5" y="-9.5" width="35" height="26" fill="#f3e905" class="highcharts-point" stroke="#ffffff" stroke-width="1"></rect><rect x="352.5" y="-0.5" width="35" height="35" fill="#f3e905" class="highcharts-point" stroke="#ffffff" stroke-width="1"></rect><rect x="396.5" y="-9.5" width="35" height="51" fill="#f3e905" class="highcharts-point" stroke="#ffffff" stroke-width="1"></rect><rect x="439.5" y="-0.5" width="35" height="91" fill="#f3e905" class="highcharts-point" stroke="#ffffff" stroke-width="1"></rect><rect x="483.5" y="-10.5" width="35" height="124" fill="#f3e905" class="highcharts-point" stroke="#ffffff" stroke-width="1"></rect></g><g class="highcharts-markers highcharts-series-0 highcharts-column-series highcharts-color-undefined " transform="translate(67,10) scale(1 1)" width="309" height="523" clip-path="none"></g><g class="highcharts-series highcharts-series-1 highcharts-column-series highcharts-color-undefined " transform="translate(67,10) scale(1 1)" width="309" height="523" clip-path="url(#highcharts-63)"><rect x="3.5" y="160.5" width="35" height="131" fill="#D8D594" class="highcharts-point" stroke="#ffffff" stroke-width="1"></rect><rect x="47.5" y="187.5" width="35" height="114" fill="#D8D594" class="highcharts-point" stroke="#ffffff" stroke-width="1"></rect><rect x="91.5" y="230.5" width="35" height="70" fill="#D8D594" class="highcharts-point" stroke="#ffffff" stroke-width="1"></rect><rect x="134.5" y="220.5" width="35" height="71" fill="#D8D594" class="highcharts-point" stroke="#ffffff" stroke-width="1"></rect><rect x="178.5" y="168.5" width="35" height="108" fill="#D8D594" class="highcharts-point" stroke="#ffffff" stroke-width="1"></rect><rect x="221.5" y="47.5" width="35" height="152" fill="#D8D594" class="highcharts-point" stroke="#ffffff" stroke-width="1"></rect><rect x="265.5" y="18.5" width="35" height="139" fill="#D8D594" class="highcharts-point" stroke="#ffffff" stroke-width="1"></rect><rect x="308.5" y="16.5" width="35" height="156" fill="#D8D594" class="highcharts-point" stroke="#ffffff" stroke-width="1"></rect><rect x="352.5" y="34.5" width="35" height="160" fill="#D8D594" class="highcharts-point" stroke="#ffffff" stroke-width="1"></rect><rect x="396.5" y="41.5" width="35" height="171" fill="#D8D594" class="highcharts-point" stroke="#ffffff" stroke-width="1"></rect><rect x="439.5" y="90.5" width="35" height="147" fill="#D8D594" class="highcharts-point" stroke="#ffffff" stroke-width="1"></rect><rect x="483.5" y="113.5" width="35" height="148" fill="#D8D594" class="highcharts-point" stroke="#ffffff" stroke-width="1"></rect></g><g class="highcharts-markers highcharts-series-1 highcharts-column-series highcharts-color-undefined " transform="translate(67,10) scale(1 1)" width="309" height="523" clip-path="none"></g><g class="highcharts-series highcharts-series-2 highcharts-column-series highcharts-color-undefined " transform="translate(67,10) scale(1 1)" width="309" height="523" clip-path="url(#highcharts-63)"><rect x="3.5" y="291.5" width="35" height="18" fill="#666666" class="highcharts-point" stroke="#ffffff" stroke-width="1"></rect><rect x="47.5" y="301.5" width="35" height="8" fill="#666666" class="highcharts-point" stroke="#ffffff" stroke-width="1"></rect><rect x="91.5" y="300.5" width="35" height="9" fill="#666666" class="highcharts-point" stroke="#ffffff" stroke-width="1"></rect><rect x="134.5" y="291.5" width="35" height="18" fill="#666666" class="highcharts-point" stroke="#ffffff" stroke-width="1"></rect><rect x="178.5" y="276.5" width="35" height="33" fill="#666666" class="highcharts-point" stroke="#ffffff" stroke-width="1"></rect><rect x="221.5" y="199.5" width="35" height="110" fill="#666666" class="highcharts-point" stroke="#ffffff" stroke-width="1"></rect><rect x="265.5" y="157.5" width="35" height="152" fill="#666666" class="highcharts-point" stroke="#ffffff" stroke-width="1"></rect><rect x="308.5" y="172.5" width="35" height="137" fill="#666666" class="highcharts-point" stroke="#ffffff" stroke-width="1"></rect><rect x="352.5" y="194.5" width="35" height="115" fill="#666666" class="highcharts-point" stroke="#ffffff" stroke-width="1"></rect><rect x="396.5" y="212.5" width="35" height="97" fill="#666666" class="highcharts-point" stroke="#ffffff" stroke-width="1"></rect><rect x="439.5" y="237.5" width="35" height="72" fill="#666666" class="highcharts-point" stroke="#ffffff" stroke-width="1"></rect><rect x="483.5" y="261.5" width="35" height="48" fill="#666666" class="highcharts-point" stroke="#ffffff" stroke-width="1"></rect></g><g class="highcharts-markers highcharts-series-2 highcharts-column-series highcharts-color-undefined " transform="translate(67,10) scale(1 1)" width="309" height="523" clip-path="none"></g><g class="highcharts-series highcharts-series-3 highcharts-line-series highcharts-color-undefined " transform="translate(67,10) scale(1 1)" width="309" height="523" clip-path="url(#highcharts-63)"><path fill="none" d="M 21.791666666667 294.58 L 65.375 292.52 L 108.95833333333 286.34 L 152.54166666667 266.77 L 196.125 186.43 L 239.70833333333 158.62 L 283.29166666667 177.16 L 326.875 164.79999999999998 L 370.45833333333 135.95999999999998 L 414.04166666667 126.69 L 457.625 188.49 L 501.20833333333 260.59" class="highcharts-graph" stroke="#8BBAE8" stroke-width="2" stroke-linejoin="round" stroke-linecap="round"></path></g><g class="highcharts-markers highcharts-series-3 highcharts-line-series highcharts-color-undefined " transform="translate(67,10) scale(1 1)" width="309" height="523" clip-path="none"></g></g><g class="highcharts-legend" transform="translate(81,356)"><rect fill="none" class="highcharts-legend-box" rx="0" ry="0" x="0" y="0" width="438" height="29" visibility="visible"></rect><g><g><g class="highcharts-legend-item highcharts-column-series highcharts-color-undefined highcharts-series-0" transform="translate(8,3)"><text x="21" style="color:#333333;font-size:12px;font-weight:bold;cursor:pointer;fill:#333333;" text-anchor="start" y="15">Sunny</text><rect x="2" y="4" width="12" height="12" fill="#f3e905" rx="6" ry="6" class="highcharts-point"></rect></g><g class="highcharts-legend-item highcharts-column-series highcharts-color-undefined highcharts-series-1" transform="translate(86.765625,3)"><text x="21" y="15" style="color:#333333;font-size:12px;font-weight:bold;cursor:pointer;fill:#333333;" text-anchor="start"><tspan>Partly cloudy</tspan></text><rect x="2" y="4" width="12" height="12" fill="#D8D594" rx="6" ry="6" class="highcharts-point"></rect></g><g class="highcharts-legend-item highcharts-column-series highcharts-color-undefined highcharts-series-2" transform="translate(206.578125,3)"><text x="21" y="15" style="color:#333333;font-size:12px;font-weight:bold;cursor:pointer;fill:#333333;" text-anchor="start">Overcast</text><rect x="2" y="4" width="12" height="12" fill="#666666" rx="6" ry="6" class="highcharts-point"></rect></g><g class="highcharts-legend-item highcharts-line-series highcharts-color-undefined highcharts-series-3" transform="translate(301.265625,3)"><path fill="none" d="M 0 11 L 16 11" class="highcharts-graph" stroke="#8BBAE8" stroke-width="2"></path><text x="21" y="15" style="color:#333333;font-size:12px;font-weight:bold;cursor:pointer;fill:#333333;" text-anchor="start"><tspan>Precipitation days</tspan></text></g></g></g></g><g class="highcharts-axis-labels highcharts-xaxis-labels "><text x="88.79166666666667" style="color:#666666;cursor:default;font-size:11px;fill:#666666;" text-anchor="middle" transform="translate(0,0)" y="338" opacity="1">Jan</text><text x="132.375" style="color:#666666;cursor:default;font-size:11px;fill:#666666;" text-anchor="middle" transform="translate(0,0)" y="338" opacity="1">Feb</text><text x="175.95833333333334" style="color:#666666;cursor:default;font-size:11px;fill:#666666;" text-anchor="middle" transform="translate(0,0)" y="338" opacity="1">Mar</text><text x="219.54166666666666" style="color:#666666;cursor:default;font-size:11px;fill:#666666;" text-anchor="middle" transform="translate(0,0)" y="338" opacity="1">Apr</text><text x="263.125" style="color:#666666;cursor:default;font-size:11px;fill:#666666;" text-anchor="middle" transform="translate(0,0)" y="338" opacity="1">May</text><text x="306.70833333333337" style="color:#666666;cursor:default;font-size:11px;fill:#666666;" text-anchor="middle" transform="translate(0,0)" y="338" opacity="1">Jun</text><text x="350.2916666666667" style="color:#666666;cursor:default;font-size:11px;fill:#666666;" text-anchor="middle" transform="translate(0,0)" y="338" opacity="1">Jul</text><text x="393.87500000000006" style="color:#666666;cursor:default;font-size:11px;fill:#666666;" text-anchor="middle" transform="translate(0,0)" y="338" opacity="1">Aug</text><text x="437.45833333333337" style="color:#666666;cursor:default;font-size:11px;fill:#666666;" text-anchor="middle" transform="translate(0,0)" y="338" opacity="1">Sep</text><text x="481.0416666666667" style="color:#666666;cursor:default;font-size:11px;fill:#666666;" text-anchor="middle" transform="translate(0,0)" y="338" opacity="1">Oct</text><text x="524.625" style="color:#666666;cursor:default;font-size:11px;fill:#666666;" text-anchor="middle" transform="translate(0,0)" y="338" opacity="1">Nov</text><text x="568.2083333333334" style="color:#666666;cursor:default;font-size:11px;fill:#666666;" text-anchor="middle" transform="translate(0,0)" y="338" opacity="1">Dec</text></g><g class="highcharts-axis-labels highcharts-yaxis-labels "><text x="52" style="color:#666666;cursor:default;font-size:11px;fill:#666666;width:188px;text-overflow:clip;" text-anchor="end" transform="translate(0,0)" y="322" opacity="1"><tspan>0 days</tspan></text><text x="52" style="color:#666666;cursor:default;font-size:11px;fill:#666666;width:188px;text-overflow:clip;" text-anchor="end" transform="translate(0,0)" y="270" opacity="1"><tspan>5 days</tspan></text><text x="52" style="color:#666666;cursor:default;font-size:11px;fill:#666666;width:188px;text-overflow:clip;" text-anchor="end" transform="translate(0,0)" y="219" opacity="1"><tspan>10 days</tspan></text><text x="52" style="color:#666666;cursor:default;font-size:11px;fill:#666666;width:188px;text-overflow:clip;" text-anchor="end" transform="translate(0,0)" y="167" opacity="1"><tspan>15 days</tspan></text><text x="52" style="color:#666666;cursor:default;font-size:11px;fill:#666666;width:188px;text-overflow:clip;" text-anchor="end" transform="translate(0,0)" y="116" opacity="1"><tspan>20 days</tspan></text><text x="52" style="color:#666666;cursor:default;font-size:11px;fill:#666666;width:188px;text-overflow:clip;" text-anchor="end" transform="translate(0,0)" y="64" opacity="1"><tspan>25 days</tspan></text><text x="52" style="color:#666666;cursor:default;font-size:11px;fill:#666666;width:188px;text-overflow:clip;" text-anchor="end" transform="translate(0,0)" y="13" opacity="1"><tspan>30 days</tspan></text></g><text x="560" class="highcharts-credits" text-anchor="end" style="cursor:pointer;color:#999999;font-size:9px;font:12px meteoblue, sans-serif;fill:#999999;" y="390">meteoblue</text></svg>