<?xml version="1.0" standalone="no"?><!DOCTYPE svg PUBLIC "-//W3C//DTD SVG 1.1//EN" "http://www.w3.org/Graphics/SVG/1.1/DTD/svg11.dtd"><svg xmlns:xlink="http://www.w3.org/1999/xlink" version="1.1" class="highcharts-root" style="font-family:'lucida grande', 'lucida sans unicode', arial, helvetica, sans-serif;font-size:12px;" xmlns="http://www.w3.org/2000/svg" width="600" viewBox="0 0 600 400" height="400"><desc>Created with Highstock 5.0.2</desc><defs><clipPath id="highcharts-69"><rect x="0" y="0" width="523" height="309" fill="none"></rect></clipPath></defs><rect fill="transparent" class="highcharts-background" x="0" y="0" width="600" height="400" rx="0" ry="0"></rect><rect fill="none" class="highcharts-plot-background" x="67" y="10" width="523" height="309"></rect><g class="highcharts-grid highcharts-xaxis-grid "><path fill="none" class="highcharts-grid-line" d="M 88.5 10 L 88.5 319" opacity="1"></path><path fill="none" class="highcharts-grid-line" d="M 131.5 10 L 131.5 319" opacity="1"></path><path fill="none" class="highcharts-grid-line" d="M 175.5 10 L 175.5 319" opacity="1"></path><path fill="none" class="highcharts-grid-line" d="M 219.5 10 L 219.5 319" opacity="1"></path><path fill="none" class="highcharts-grid-line" d="M 262.5 10 L 262.5 319" opacity="1"></path><path fill="none" class="highcharts-grid-line" d="M 306.5 10 L 306.5 319" opacity="1"></path><path fill="none" class="highcharts-grid-line" d="M 349.5 10 L 349.5 319" opacity="1"></path><path fill="none" class="highcharts-grid-line" d="M 393.5 10 L 393.5 319" opacity="1"></path><path fill="none" class="highcharts-grid-line" d="M 436.5 10 L 436.5 319" opacity="1"></path><path fill="none" class="highcharts-grid-line" d="M 480.5 10 L 480.5 319" opacity="1"></path><path fill="none" class="highcharts-grid-line" d="M 524.5 10 L 524.5 319" opacity="1"></path><path fill="none" class="highcharts-grid-line" d="M 567.5 10 L 567.5 319" opacity="1"></path></g><g class="highcharts-grid highcharts-yaxis-grid "><path fill="none" stroke="#e6e6e6" stroke-width="1" class="highcharts-grid-line" d="M 67 319.5 L 590 319.5" opacity="1"></path><path fill="none" stroke="#e6e6e6" stroke-width="1" class="highcharts-grid-line" d="M 67 268.5 L 590 268.5" opacity="1"></path><path fill="none" stroke="#e6e6e6" stroke-width="1" class="highcharts-grid-line" d="M 67 216.5 L 590 216.5" opacity="1"></path><path fill="none" stroke="#e6e6e6" stroke-width="1" class="highcharts-grid-line" d="M 67 165.5 L 590 165.5" opacity="1"></path><path fill="none" stroke="#e6e6e6" stroke-width="1" class="highcharts-grid-line" d="M 67 113.5 L 590 113.5" opacity="1"></path><path fill="none" stroke="#e6e6e6" stroke-width="1" class="highcharts-grid-line" d="M 67 62.5 L 590 62.5" opacity="1"></path><path fill="none" stroke="#e6e6e6" stroke-width="1" class="highcharts-grid-line" d="M 67 9.5 L 590 9.5" opacity="1"></path></g><rect fill="none" class="highcharts-plot-border" x="67" y="10" width="523" height="309"></rect><g class="highcharts-axis highcharts-xaxis "><path fill="none" class="highcharts-tick" stroke="#ccd6eb" stroke-width="1" d="M 88.5 319 L 88.5 329" opacity="1"></path><path fill="none" class="highcharts-tick" stroke="#ccd6eb" stroke-width="1" d="M 131.5 319 L 131.5 329" opacity="1"></path><path fill="none" class="highcharts-tick" stroke="#ccd6eb" stroke-width="1" d="M 175.5 319 L 175.5 329" opacity="1"></path><path fill="none" class="highcharts-tick" stroke="#ccd6eb" stroke-width="1" d="M 219.5 319 L 219.5 329" opacity="1"></path><path fill="none" class="highcharts-tick" stroke="#ccd6eb" stroke-width="1" d="M 262.5 319 L 262.5 329" opacity="1"></path><path fill="none" class="highcharts-tick" stroke="#ccd6eb" stroke-width="1" d="M 306.5 319 L 306.5 329" opacity="1"></path><path fill="none" class="highcharts-tick" stroke="#ccd6eb" stroke-width="1" d="M 349.5 319 L 349.5 329" opacity="1"></path><path fill="none" class="highcharts-tick" stroke="#ccd6eb" stroke-width="1" d="M 393.5 319 L 393.5 329" opacity="1"></path><path fill="none" class="highcharts-tick" stroke="#ccd6eb" stroke-width="1" d="M 436.5 319 L 436.5 329" opacity="1"></path><path fill="none" class="highcharts-tick" stroke="#ccd6eb" stroke-width="1" d="M 480.5 319 L 480.5 329" opacity="1"></path><path fill="none" class="highcharts-tick" stroke="#ccd6eb" stroke-width="1" d="M 524.5 319 L 524.5 329" opacity="1"></path><path fill="none" class="highcharts-tick" stroke="#ccd6eb" stroke-width="1" d="M 567.5 319 L 567.5 329" opacity="1"></path><path fill="none" class="highcharts-axis-line" stroke="#ccd6eb" stroke-width="1" d="M 67 319.5 L 590 319.5"></path></g><g class="highcharts-axis highcharts-yaxis "><path fill="none" class="highcharts-axis-line" d="M 67 10 L 67 319"></path></g><g class="highcharts-series-group"><g class="highcharts-series highcharts-series-0 highcharts-column-series highcharts-color-undefined " transform="translate(67,10) scale(1 1)" width="309" height="523" clip-path="url(#highcharts-69)"><rect x="3.5" y="-9.5" width="35" height="0" fill="#F316C2" class="highcharts-point" stroke="#ffffff" stroke-width="1"></rect><rect x="47.5" y="18.5" width="35" height="0" fill="#F316C2" class="highcharts-point" stroke="#ffffff" stroke-width="1"></rect><rect x="91.5" y="-9.5" width="35" height="1" fill="#F316C2" class="highcharts-point" stroke="#ffffff" stroke-width="1"></rect><rect x="134.5" y="-0.5" width="35" height="28" fill="#F316C2" class="highcharts-point" stroke="#ffffff" stroke-width="1"></rect><rect x="178.5" y="-10.5" width="35" height="72" fill="#F316C2" class="highcharts-point" stroke="#ffffff" stroke-width="1"></rect><rect x="221.5" y="-0.5" width="35" height="4" fill="#F316C2" class="highcharts-point" stroke="#ffffff" stroke-width="1"></rect><rect x="265.5" y="-9.5" width="35" height="0" fill="#F316C2" class="highcharts-point" stroke="#ffffff" stroke-width="1"></rect><rect x="308.5" y="-9.5" width="35" height="0" fill="#F316C2" class="highcharts-point" stroke="#ffffff" stroke-width="1"></rect><rect x="352.5" y="1.5" width="35" height="0" fill="#F316C2" class="highcharts-point" stroke="#ffffff" stroke-width="1"></rect><rect x="396.5" y="-9.5" width="35" height="0" fill="#F316C2" class="highcharts-point" stroke="#ffffff" stroke-width="1"></rect><rect x="439.5" y="0.5" width="35" height="0" fill="#F316C2" class="highcharts-point" stroke="#ffffff" stroke-width="1"></rect><rect x="483.5" y="-8.5" width="35" height="0" fill="#F316C2" class="highcharts-point" stroke="#ffffff" stroke-width="1"></rect></g><g class="highcharts-markers highcharts-series-0 highcharts-column-series highcharts-color-undefined " transform="translate(67,10) scale(1 1)" width="309" height="523" clip-path="none"></g><g class="highcharts-series highcharts-series-1 highcharts-column-series highcharts-color-undefined " transform="translate(67,10) scale(1 1)" width="309" height="523" clip-path="url(#highcharts-69)"><rect x="3.5" y="-9.5" width="35" height="0" fill="#FF0100" class="highcharts-point" stroke="#ffffff" stroke-width="1"></rect><rect x="47.5" y="18.5" width="35" height="28" fill="#FF0100" class="highcharts-point" stroke="#ffffff" stroke-width="1"></rect><rect x="91.5" y="-8.5" width="35" height="206" fill="#FF0100" class="highcharts-point" stroke="#ffffff" stroke-width="1"></rect><rect x="134.5" y="27.5" width="35" height="236" fill="#FF0100" class="highcharts-point" stroke="#ffffff" stroke-width="1"></rect><rect x="178.5" y="61.5" width="35" height="210" fill="#FF0100" class="highcharts-point" stroke="#ffffff" stroke-width="1"></rect><rect x="221.5" y="3.5" width="35" height="191" fill="#FF0100" class="highcharts-point" stroke="#ffffff" stroke-width="1"></rect><rect x="265.5" y="-9.5" width="35" height="153" fill="#FF0100" class="highcharts-point" stroke="#ffffff" stroke-width="1"></rect><rect x="308.5" y="-9.5" width="35" height="149" fill="#FF0100" class="highcharts-point" stroke="#ffffff" stroke-width="1"></rect><rect x="352.5" y="1.5" width="35" height="109" fill="#FF0100" class="highcharts-point" stroke="#ffffff" stroke-width="1"></rect><rect x="396.5" y="-9.5" width="35" height="24" fill="#FF0100" class="highcharts-point" stroke="#ffffff" stroke-width="1"></rect><rect x="439.5" y="0.5" width="35" height="0" fill="#FF0100" class="highcharts-point" stroke="#ffffff" stroke-width="1"></rect><rect x="483.5" y="-8.5" width="35" height="0" fill="#FF0100" class="highcharts-point" stroke="#ffffff" stroke-width="1"></rect></g><g class="highcharts-markers highcharts-series-1 highcharts-column-series highcharts-color-undefined " transform="translate(67,10) scale(1 1)" width="309" height="523" clip-path="none"></g><g class="highcharts-series highcharts-series-2 highcharts-column-series highcharts-color-undefined " transform="translate(67,10) scale(1 1)" width="309" height="523" clip-path="url(#highcharts-69)"><rect x="3.5" y="-9.5" width="35" height="155" fill="#FF6600" class="highcharts-point" stroke="#ffffff" stroke-width="1"></rect><rect x="47.5" y="46.5" width="35" height="231" fill="#FF6600" class="highcharts-point" stroke="#ffffff" stroke-width="1"></rect><rect x="91.5" y="197.5" width="35" height="105" fill="#FF6600" class="highcharts-point" stroke="#ffffff" stroke-width="1"></rect><rect x="134.5" y="263.5" width="35" height="43" fill="#FF6600" class="highcharts-point" stroke="#ffffff" stroke-width="1"></rect><rect x="178.5" y="271.5" width="35" height="35" fill="#FF6600" class="highcharts-point" stroke="#ffffff" stroke-width="1"></rect><rect x="221.5" y="194.5" width="35" height="110" fill="#FF6600" class="highcharts-point" stroke="#ffffff" stroke-width="1"></rect><rect x="265.5" y="143.5" width="35" height="159" fill="#FF6600" class="highcharts-point" stroke="#ffffff" stroke-width="1"></rect><rect x="308.5" y="139.5" width="35" height="164" fill="#FF6600" class="highcharts-point" stroke="#ffffff" stroke-width="1"></rect><rect x="352.5" y="110.5" width="35" height="179" fill="#FF6600" class="highcharts-point" stroke="#ffffff" stroke-width="1"></rect><rect x="396.5" y="14.5" width="35" height="215" fill="#FF6600" class="highcharts-point" stroke="#ffffff" stroke-width="1"></rect><rect x="439.5" y="-0.5" width="35" height="134" fill="#FF6600" class="highcharts-point" stroke="#ffffff" stroke-width="1"></rect><rect x="483.5" y="-8.5" width="35" height="76" fill="#FF6600" class="highcharts-point" stroke="#ffffff" stroke-width="1"></rect></g><g class="highcharts-markers highcharts-series-2 highcharts-column-series highcharts-color-undefined " transform="translate(67,10) scale(1 1)" width="309" height="523" clip-path="none"></g><g class="highcharts-series highcharts-series-3 highcharts-column-series highcharts-color-undefined " transform="translate(67,10) scale(1 1)" width="309" height="523" clip-path="url(#highcharts-69)"><rect x="3.5" y="145.5" width="35" height="161" fill="#FDCA0C" class="highcharts-point" stroke="#ffffff" stroke-width="1"></rect><rect x="47.5" y="277.5" width="35" height="31" fill="#FDCA0C" class="highcharts-point" stroke="#ffffff" stroke-width="1"></rect><rect x="91.5" y="302.5" width="35" height="7" fill="#FDCA0C" class="highcharts-point" stroke="#ffffff" stroke-width="1"></rect><rect x="134.5" y="306.5" width="35" height="3" fill="#FDCA0C" class="highcharts-point" stroke="#ffffff" stroke-width="1"></rect><rect x="178.5" y="306.5" width="35" height="3" fill="#FDCA0C" class="highcharts-point" stroke="#ffffff" stroke-width="1"></rect><rect x="221.5" y="304.5" width="35" height="5" fill="#FDCA0C" class="highcharts-point" stroke="#ffffff" stroke-width="1"></rect><rect x="265.5" y="302.5" width="35" height="7" fill="#FDCA0C" class="highcharts-point" stroke="#ffffff" stroke-width="1"></rect><rect x="308.5" y="303.5" width="35" height="6" fill="#FDCA0C" class="highcharts-point" stroke="#ffffff" stroke-width="1"></rect><rect x="352.5" y="289.5" width="35" height="20" fill="#FDCA0C" class="highcharts-point" stroke="#ffffff" stroke-width="1"></rect><rect x="396.5" y="229.5" width="35" height="80" fill="#FDCA0C" class="highcharts-point" stroke="#ffffff" stroke-width="1"></rect><rect x="439.5" y="133.5" width="35" height="170" fill="#FDCA0C" class="highcharts-point" stroke="#ffffff" stroke-width="1"></rect><rect x="483.5" y="67.5" width="35" height="235" fill="#FDCA0C" class="highcharts-point" stroke="#ffffff" stroke-width="1"></rect></g><g class="highcharts-markers highcharts-series-3 highcharts-column-series highcharts-color-undefined " transform="translate(67,10) scale(1 1)" width="309" height="523" clip-path="none"></g><g class="highcharts-series highcharts-series-4 highcharts-column-series highcharts-color-undefined " transform="translate(67,10) scale(1 1)" width="309" height="523" clip-path="url(#highcharts-69)"><rect x="3.5" y="306.5" width="35" height="3" fill="#FFF600" class="highcharts-point" stroke="#ffffff" stroke-width="1"></rect><rect x="47.5" y="308.5" width="35" height="1" fill="#FFF600" class="highcharts-point" stroke="#ffffff" stroke-width="1"></rect><rect x="91.5" y="309.5" width="35" height="0" fill="#FFF600" class="highcharts-point" stroke="#ffffff" stroke-width="1"></rect><rect x="134.5" y="309.5" width="35" height="0" fill="#FFF600" class="highcharts-point" stroke="#ffffff" stroke-width="1"></rect><rect x="178.5" y="309.5" width="35" height="0" fill="#FFF600" class="highcharts-point" stroke="#ffffff" stroke-width="1"></rect><rect x="221.5" y="309.5" width="35" height="0" fill="#FFF600" class="highcharts-point" stroke="#ffffff" stroke-width="1"></rect><rect x="265.5" y="309.5" width="35" height="0" fill="#FFF600" class="highcharts-point" stroke="#ffffff" stroke-width="1"></rect><rect x="308.5" y="309.5" width="35" height="0" fill="#FFF600" class="highcharts-point" stroke="#ffffff" stroke-width="1"></rect><rect x="352.5" y="309.5" width="35" height="0" fill="#FFF600" class="highcharts-point" stroke="#ffffff" stroke-width="1"></rect><rect x="396.5" y="309.5" width="35" height="0" fill="#FFF600" class="highcharts-point" stroke="#ffffff" stroke-width="1"></rect><rect x="439.5" y="303.5" width="35" height="6" fill="#FFF600" class="highcharts-point" stroke="#ffffff" stroke-width="1"></rect><rect x="483.5" y="302.5" width="35" height="7" fill="#FFF600" class="highcharts-point" stroke="#ffffff" stroke-width="1"></rect></g><g class="highcharts-markers highcharts-series-4 highcharts-column-series highcharts-color-undefined " transform="translate(67,10) scale(1 1)" width="309" height="523" clip-path="none"></g></g><g class="highcharts-legend" transform="translate(95,356)"><rect fill="none" class="highcharts-legend-box" rx="0" ry="0" x="0" y="0" width="409" height="29" visibility="visible"></rect><g><g><g class="highcharts-legend-item highcharts-column-series highcharts-color-undefined highcharts-series-0" transform="translate(8,3)"><text x="21" style="color:#333333;font-size:12px;font-weight:bold;cursor:pointer;fill:#333333;" text-anchor="start" y="15"><tspan>&gt; 40°C</tspan></text><rect x="2" y="4" width="12" height="12" fill="#F316C2" rx="6" ry="6" class="highcharts-point"></rect></g><g class="highcharts-legend-item highcharts-column-series highcharts-color-undefined highcharts-series-1" transform="translate(90.78125,3)"><text x="21" y="15" style="color:#333333;font-size:12px;font-weight:bold;cursor:pointer;fill:#333333;" text-anchor="start"><tspan>&gt; 35°C</tspan></text><rect x="2" y="4" width="12" height="12" fill="#FF0100" rx="6" ry="6" class="highcharts-point"></rect></g><g class="highcharts-legend-item highcharts-column-series highcharts-color-undefined highcharts-series-2" transform="translate(173.5625,3)"><text x="21" y="15" style="color:#333333;font-size:12px;font-weight:bold;cursor:pointer;fill:#333333;" text-anchor="start"><tspan>&gt; 30°C</tspan></text><rect x="2" y="4" width="12" height="12" fill="#FF6600" rx="6" ry="6" class="highcharts-point"></rect></g><g class="highcharts-legend-item highcharts-column-series highcharts-color-undefined highcharts-series-3" transform="translate(256.34375,3)"><text x="21" y="15" style="color:#333333;font-size:12px;font-weight:bold;cursor:pointer;fill:#333333;" text-anchor="start"><tspan>&gt; 25°C</tspan></text><rect x="2" y="4" width="12" height="12" fill="#FDCA0C" rx="6" ry="6" class="highcharts-point"></rect></g><g class="highcharts-legend-item highcharts-column-series highcharts-color-undefined highcharts-series-4" transform="translate(339.125,3)"><text x="21" y="15" style="color:#333333;font-size:12px;font-weight:bold;cursor:pointer;fill:#333333;" text-anchor="start"><tspan>&gt; 20°C</tspan></text><rect x="2" y="4" width="12" height="12" fill="#FFF600" rx="6" ry="6" class="highcharts-point"></rect></g></g></g></g><g class="highcharts-axis-labels highcharts-xaxis-labels "><text x="88.79166666666667" style="color:#666666;cursor:default;font-size:11px;fill:#666666;" text-anchor="middle" transform="translate(0,0)" y="338" opacity="1">Jan</text><text x="132.375" style="color:#666666;cursor:default;font-size:11px;fill:#666666;" text-anchor="middle" transform="translate(0,0)" y="338" opacity="1">Feb</text><text x="175.95833333333334" style="color:#666666;cursor:default;font-size:11px;fill:#666666;" text-anchor="middle" transform="translate(0,0)" y="338" opacity="1">Mar</text><text x="219.54166666666666" style="color:#666666;cursor:default;font-size:11px;fill:#666666;" text-anchor="middle" transform="translate(0,0)" y="338" opacity="1">Apr</text><text x="263.125" style="color:#666666;cursor:default;font-size:11px;fill:#666666;" text-anchor="middle" transform="translate(0,0)" y="338" opacity="1">May</text><text x="306.70833333333337" style="color:#666666;cursor:default;font-size:11px;fill:#666666;" text-anchor="middle" transform="translate(0,0)" y="338" opacity="1">Jun</text><text x="350.2916666666667" style="color:#666666;cursor:default;font-size:11px;fill:#666666;" text-anchor="middle" transform="translate(0,0)" y="338" opacity="1">Jul</text><text x="393.87500000000006" style="color:#666666;cursor:default;font-size:11px;fill:#666666;" text-anchor="middle" transform="translate(0,0)" y="338" opacity="1">Aug</text><text x="437.45833333333337" style="color:#666666;cursor:default;font-size:11px;fill:#666666;" text-anchor="middle" transform="translate(0,0)" y="338" opacity="1">Sep</text><text x="481.0416666666667" style="color:#666666;cursor:default;font-size:11px;fill:#666666;" text-anchor="middle" transform="translate(0,0)" y="338" opacity="1">Oct</text><text x="524.625" style="color:#666666;cursor:default;font-size:11px;fill:#666666;" text-anchor="middle" transform="translate(0,0)" y="338" opacity="1">Nov</text><text x="568.2083333333334" style="color:#666666;cursor:default;font-size:11px;fill:#666666;" text-anchor="middle" transform="translate(0,0)" y="338" opacity="1">Dec</text></g><g class="highcharts-axis-labels highcharts-yaxis-labels "><text x="52" style="color:#666666;cursor:default;font-size:11px;fill:#666666;width:188px;text-overflow:clip;" text-anchor="end" transform="translate(0,0)" y="322" opacity="1"><tspan>0 days</tspan></text><text x="52" style="color:#666666;cursor:default;font-size:11px;fill:#666666;width:188px;text-overflow:clip;" text-anchor="end" transform="translate(0,0)" y="270" opacity="1"><tspan>5 days</tspan></text><text x="52" style="color:#666666;cursor:default;font-size:11px;fill:#666666;width:188px;text-overflow:clip;" text-anchor="end" transform="translate(0,0)" y="219" opacity="1"><tspan>10 days</tspan></text><text x="52" style="color:#666666;cursor:default;font-size:11px;fill:#666666;width:188px;text-overflow:clip;" text-anchor="end" transform="translate(0,0)" y="167" opacity="1"><tspan>15 days</tspan></text><text x="52" style="color:#666666;cursor:default;font-size:11px;fill:#666666;width:188px;text-overflow:clip;" text-anchor="end" transform="translate(0,0)" y="116" opacity="1"><tspan>20 days</tspan></text><text x="52" style="color:#666666;cursor:default;font-size:11px;fill:#666666;width:188px;text-overflow:clip;" text-anchor="end" transform="translate(0,0)" y="64" opacity="1"><tspan>25 days</tspan></text><text x="52" style="color:#666666;cursor:default;font-size:11px;fill:#666666;width:188px;text-overflow:clip;" text-anchor="end" transform="translate(0,0)" y="13" opacity="1"><tspan>30 days</tspan></text></g><text x="560" class="highcharts-credits" text-anchor="end" style="cursor:pointer;color:#999999;font-size:9px;font:12px meteoblue, sans-serif;fill:#999999;" y="390">meteoblue</text></svg>